<?xml version="1.0" encoding="UTF-8"?>
<svg width="312px" height="56px" viewBox="0 0 312 56" version="1.1" xmlns="http://www.w3.org/2000/svg" xmlns:xlink="http://www.w3.org/1999/xlink">
    <!-- Generator: Sketch 49.3 (51167) - http://www.bohemiancoding.com/sketch -->
    <title> Logo / Black</title>
    <desc>Created with Sketch.</desc>
    <defs>
        <linearGradient x1="1.46315029%" y1="1.46315029%" x2="98.2229949%" y2="98.2229949%" id="linearGradient-1">
            <stop stop-color="#FF5980" offset="0%"></stop>
            <stop stop-color="#FFA882" offset="100%"></stop>
        </linearGradient>
    </defs>
    <g id="-Logo-/-Black" stroke="none" stroke-width="1" fill="none" fill-rule="evenodd">
        <path d="M0,8 L14.6694924,8 C26.259236,8 30.4619571,9.20673294 34.6989941,11.4727251 C38.9360312,13.7387174 42.2612826,17.0639688 44.5272749,21.3010059 C46.7932671,25.5380429 48,29.740764 48,41.3305076 L48,56 L0,56 L0,8 Z" id="Rectangle-6" fill="#0C66FF"></path>
        <polygon id="Rectangle-6" fill="#FFA800" points="0 8 48 56 0 56"></polygon>
        <circle id="Oval-3" fill="url(#linearGradient-1)" cx="47" cy="9" r="5"></circle>
        <g id="Text" transform="translate(64.000000, 8.000000)" fill="#000C20" fill-rule="nonzero">
            <path d="M5.88859862,42.5545105 C2.54491823,39.1944741 0.697616009,34.6323066 0.76340694,29.8971429 C0.697616009,25.1619791 2.54491823,20.5998116 5.88859862,17.2397752 C9.23227902,13.8797389 13.7906816,12.0048676 18.5355205,12.0380952 C22.3576389,12.007296 26.0790382,13.2605285 29.1010726,15.5961905 L29.1010726,12.6933333 L36.735142,11.1695238 L36.735142,47 L29.1010726,47 L29.1010726,44.1904762 C26.080034,46.5288647 22.3585422,47.784812 18.5355205,47.7561905 C13.7906816,47.7894182 9.23227902,45.9145468 5.88859862,42.5545105 Z M18.7798107,19.4742857 C13.0120763,19.4742857 8.33640379,24.1407578 8.33640379,29.8971429 C8.33640379,35.6535279 13.0120763,40.32 18.7798107,40.32 C21.5423153,40.332659 24.1935669,39.2346342 26.135449,37.2736375 C28.0773311,35.3126409 29.1462545,32.6538719 29.1010726,29.8971429 C29.1462545,27.1404138 28.0773311,24.4816448 26.135449,22.5206482 C24.1935669,20.5596516 21.5423153,19.4616268 18.7798107,19.4742857 Z" id="Shape"></path>
            <path d="M58.8281388,47.4285714 C55.6447319,47.4285714 53.2858044,46.6666667 51.5376025,45.2038095 C49.5374763,43.4819048 48.4839748,40.8228571 48.4839748,37.2952381 L48.4839748,20.1904762 L41.9415773,20.1904762 L41.9415773,12.6933333 L48.5221451,12.6933333 L48.5221451,5.83619048 L56.1562145,3.59619048 L56.1562145,12.7390476 L65.0575394,12.7390476 L65.0575394,20.1904762 L56.1485804,20.1904762 L56.1485804,37.3333333 C56.1485804,38.5142857 56.324164,39.36 56.6371609,39.6190476 C57.4005678,40.312381 60.6297792,40.0304762 62.5611987,39.8552381 L65.0575394,39.6190476 L65.0575394,46.7580952 L63.1108517,47.0552381 C61.6949909,47.2891493 60.2631922,47.4139623 58.8281388,47.4285714 Z" id="Shape"></path>
            <path d="M84.8908517,47.7561905 C75.0151356,47.7267561 67.03042,39.7180013 67.050067,29.8616935 C67.0697139,20.0053856 75.0862946,12.0284015 84.9620499,12.0381837 C94.8378052,12.0479659 102.838505,20.0408155 102.838549,29.8971429 C102.873621,34.6535718 100.992238,39.2245828 97.617192,42.5829587 C94.2421457,45.9413345 89.6565327,47.805377 84.8908517,47.7561905 Z M84.8908517,19.4742857 C79.1231173,19.4742857 74.4474448,24.1407578 74.4474448,29.8971429 C74.4474448,35.6535279 79.1231173,40.32 84.8908517,40.32 C87.6533563,40.332659 90.3046079,39.2346342 92.24649,37.2736375 C94.1883721,35.3126409 95.2572955,32.6538719 95.2121136,29.8971429 C95.2572955,27.1404138 94.1883721,24.4816448 92.24649,22.5206482 C90.3046079,20.5596516 87.6533563,19.4616268 84.8908517,19.4742857 Z" id="Shape"></path>
            <path d="M155.872429,47 L148.299432,47 L148.299432,25.9047619 C148.299432,21.76 146.291672,19.4819048 142.642587,19.4819048 C138.336972,19.4819048 135.962776,22.567619 135.962776,28.1752381 L135.962776,47 L128.397413,47 L128.397413,25.9047619 C128.397413,22.9714286 127.466057,19.4819048 123.053565,19.4819048 C120.96183,19.4819048 116.083659,20.327619 116.083659,28.1752381 L116.083659,47 L108.510662,47 L108.510662,12.6933333 L116.037855,12.6933333 L116.037855,14.1714286 C118.211207,12.7430955 120.764605,11.99982 123.366562,12.0380952 C127.0011,11.9093964 130.495575,13.4441641 132.85571,16.2057143 C135.389852,13.4880896 138.961583,11.9730217 142.680757,12.0380952 C150.681262,12.0380952 155.849527,17.4780952 155.849527,25.8971429 L155.872429,47 Z" id="Shape"></path>
            <path d="M170.338991,47 L162.773628,47 L162.773628,12.6933333 L170.338991,12.6933333 L170.338991,47 Z M166.560126,10.0495238 C165.312306,10.0556005 164.113394,9.56565834 163.228181,8.6879056 C162.342968,7.81015286 161.844285,6.61680676 161.842271,5.37142857 C161.842271,2.78778791 163.940855,0.693333333 166.52959,0.693333333 C169.118324,0.693333333 171.216909,2.78778791 171.216909,5.37142857 C171.216909,7.95506923 169.118324,10.0495238 166.52959,10.0495238 L166.560126,10.0495238 Z" id="Shape"></path>
            <polygon id="Shape" points="177.347066 47 177.347066 42.1104762 193.11142 20.1904762 177.950158 20.1904762 177.950158 12.6933333 204.051041 12.6933333 204.051041 17.6838095 188.340126 39.6038095 204.646498 39.6038095 204.646498 47"></polygon>
            <path d="M241.167886,33.7295238 L214.754006,33.7295238 C216.158675,37.8057143 219.800126,40.32 224.601956,40.32 C228.365552,40.32 231.472618,38.7352381 232.930726,36.0761905 L239.534196,39.8857143 C236.564543,44.8 230.961136,47.7333333 224.540883,47.7333333 C214.10511,47.7333333 206.524479,40.2209524 206.524479,29.8742857 C206.524479,19.6952381 214.158549,12.0152381 224.304227,12.0152381 C234.022397,12.0152381 241.709905,19.9390476 241.358738,29.9961905 C241.366367,31.2432459 241.302646,32.4897188 241.167886,33.7295238 Z M214.708202,26.24 L233.213186,26.24 C232.193546,22.1834303 228.493521,19.3735277 224.304227,19.4742857 C219.639811,19.4742857 216.044164,22.0952381 214.708202,26.24 Z" id="Shape"></path>
        </g>
    </g>
</svg>