<?xml version="1.0" encoding="utf-8"?>
<!-- Generator: Adobe Illustrator 21.0.2, SVG Export Plug-In . SVG Version: 6.00 Build 0)  -->
<svg version="1.1" id="Layer_1" xmlns="http://www.w3.org/2000/svg" xmlns:xlink="http://www.w3.org/1999/xlink" x="0px" y="0px"
	 viewBox="0 0 220 220" style="enable-background:new 0 0 220 220;" xml:space="preserve">
<style type="text/css">
	.st0{fill:#FFF7EE;}
	.st1{fill:#FFFCF8;}
	.st2{fill:#513852;}
	.st3{fill:none;stroke:#1AFFDE;stroke-width:0.333;stroke-miterlimit:10;}
	.st4{fill:#61C9B5;}
	.st5{fill:#D39C74;}
	.st6{fill:#BAC0C6;}
	.st7{fill:#243331;}
	.st8{fill:#754B2E;}
	.st9{fill:#FFFFFF;}
	.st10{fill:#314341;}
	.st11{fill:#FFBA49;}
	.st12{fill:#EF5B5B;}
	.st13{fill:#3D5450;}
	.st14{fill:#70818E;}
	.st15{fill:#2CD4E5;}
	.st16{fill:#22ADBC;}
	.st17{fill:#26C1DB;}
	.st18{fill:#C14D4D;}
	.st19{fill:#C77E50;}
	.st20{fill:#E5E6E9;}
	.st21{fill:#F5FDFD;}
	.st22{fill:#476862;}
	.st23{fill:#16CCBB;}
</style>
<g>
	<path class="st0" d="M82.5,71.3c-11.3,1.1-19.9,4.6-22.6,5.8c-8.9,3.7-7.3,5.6-15.5,9.1c-12.2,5.2-19.2,2.6-26.7,7
		c-7.3,4.2-10.3,12.2-3.4,18.4c6.8,6.1,17.1,5,28.9,12.4c11.3,7.1,5.7,10.6,15.9,17.6c10.5,7.1,30.1,12.8,46.1,12.7
		c16.8-0.1,17.1-8.2,32,7.3c15.2,15.9-25,20.3-55.9,26.2c-25.8,4.8-32.4,27.7-3.3,25c73.7-6.8,86.5,6.8,111.1-8.9
		c6.4-4,25-28.5,6.8-52c-5.3-6.9-17.6-11.4-20.3-19.1c-7-20.5-15.8-52.8-44.1-54.9C107.8,76.4,100.7,69.7,82.5,71.3z"/>
	<path class="st1" d="M82.5,58c-11.3,1.1-19.9,4.6-22.6,5.8c-8.9,3.7-7.3,5.6-15.5,9.1c-12.2,5.2-19.2,2.6-26.7,7
		c-7.3,4.2-10.3,12.2-3.4,18.4c6.8,6.1,17.1,5,28.9,12.4c11.3,7.1,5.7,10.6,15.9,17.6c10.5,7.1,30.1,12.8,46.1,12.7
		c16.8-0.1,17.1-8.2,32,7.3c15.2,15.9-25,20.3-55.9,26.2c-25.8,4.8-32.4,27.7-3.3,25c73.7-6.8,86.5,6.8,111.1-8.9
		c6.4-4,25-28.5,6.8-52c-5.3-6.9-17.6-11.4-20.3-19.1c-7-20.5-15.8-52.8-44.1-54.9C107.8,63.2,100.7,56.4,82.5,58z"/>
	<path class="st2" d="M79.5,25.2c4.1-2.6,4.5-6.1,6.9-8.5c0.4-0.4,0.9-0.8,1.5-1.2c0.9-0.5,2.1-0.9,3.4-1.1
		c4.1-0.7,9.9-0.1,12.8-1.1c3.4-1.2,4.8-5.2,9.7-8.7c5.7-3.6,19.7-0.8,20.1,7.7c1.3,4.5-9,10.7-13.5,12.2c-4.2,1.3-9.8,3.6-14.2,4.4
		c-1.5,0.3-10.7,0.3-18-0.3c-1.7-0.1,0.5-1.5-0.9-1.7C83.6,26.1,77.5,26.4,79.5,25.2z"/>
	<line class="st3" x1="194.4" y1="67.4" x2="192.8" y2="70.2"/>
	<polygon class="st4" points="152.8,82.7 155.6,78 152.4,76.4 	"/>
	<path class="st5" d="M149.5,76.2c0,0,0-2.5,1.5-2.6c1.7-0.1,8.9,0.5,10.5,1.1c1.3,0.4,3.7,2,4.8,3.6c0.3,0.5,0.5,0.9,0.5,1.5
		c0,0.1,0,0.3,0,0.4c0,0.3-0.4,0.5-0.8,0.7c-0.5,0.1-1.2,0.3-1.6,0.1c-0.7-0.3-3.2-1.9-3.2-1.9l-5.2-1.1c0,0,2.5,2.1,2.8,3.3
		c0.1,0.4-0.3,0.5-0.7,0.3c-0.8-0.8-2.4-1.9-2.4-1.9l-4.5-2L149.5,76.2z"/>
	<rect x="101.4" y="122.4" class="st6" width="7" height="57.3"/>
	<path class="st6" d="M113.9,185.3h-18c0,0,1.7-3.6,3.6-4.1c2.3-0.8,8.6-0.8,10.9,0C112.2,181.7,113.9,185.3,113.9,185.3z"/>
	<polygon class="st6" points="189.4,82.1 153.5,82.1 150,79.5 189.4,79.5 	"/>
	<polygon class="st5" points="126.3,160 120.4,175.6 114.7,172.8 122,158.4 	"/>
	<path class="st7" d="M113.6,171.6c0,0.9-1.6-0.7-1.2,0.3c-1.3,2.3-1.2,4.5-1.2,4.5l3.7,2.5c0,0,1.3-1.2,1.7-0.9
		c0.7,0.4,2.6,3.3,3.3,3.6c9.9,5.4,14.6,5.3,14.8,4.5c-0.9-3.3-11.7-9.7-14-12.2c-1.9-1.9-6.5-3.6-6.5-3.6S113.8,170.8,113.6,171.6z
		"/>
	<path class="st8" d="M112.6,174c1.5,1.7,3,1.5,6.4,3.8c7.3,5.2,10.6,7.5,15.2,7.5c-0.7-2-8.3-9-10.3-14.8c-0.9-0.8-3.4,0-4.8-0.5
		c-1.5-0.5-1.6-2-1.6-2S110.2,171.5,112.6,174z"/>
	<path class="st9" d="M149.9,172.2"/>
	<path class="st9" d="M155.7,168.6c0,0-2.5,0.4-3,0.8"/>
	<path class="st10" d="M85.6,89.4l-2.1,20.3l11.1,5.8l41.8,5.4c0,0-6.8,9.7-7.7,14.7c-2,11-11.8,29.9-11.8,29.9l7.3,1.2
		c0,0,8.2-15.6,15.2-25.6c13-18.4,11.8-22.5,9.4-33.2c-0.7-3.3-7.4-4.6-11.5-6.1c-11.9-4.4-26.9-6.2-26.9-6.2L85.6,89.4z"/>
	<polygon class="st5" points="157.5,164 162.8,181.2 155.3,181.2 154.2,165.5 	"/>
	<path class="st7" d="M153.8,183.9c0.4,0.8,1.6,4.4,1.6,4.4s1.2,0.1,3.3-0.3c1.1-0.3,0.5-1.7,1.7-1.7c1.5-0.1,2.9,0,4.2,0.3
		c1.2,0.3,2.1,0.4,3,0.4c7.1,0,12.2-5.2,12.2-5.7c-0.3-3.8-12.4,0.9-15.8-0.1c-2.5-0.8-7.7-0.5-7.7-0.5S153.5,183.3,153.8,183.9z"/>
	<path class="st8" d="M154.7,185.3c2.1,1.1,6.4-0.9,10.6,0c9.3,1.9,14.8-3.7,15.2-4.4c0.9-1.5-14.4-1.6-17.7-2.6
		c-1.2-0.4-2,0.8-3.4,0.8c-1.9,0-4.5-1.1-4.5-1.1S152.8,184.3,154.7,185.3z"/>
	<path class="st11" d="M169.5,179.4c0-0.1-1.7-1.3-2.3-0.7c-0.8,0.5-2.9,2.3-2.9,2.3"/>
	<polygon class="st12" points="80.7,130.2 128.9,130.2 135.9,121.7 74.4,120 	"/>
	<path class="st13" d="M92.6,94.3L80.9,118l18.7-1.7l43.8,4.1c0,0-1.6,8.5-1.1,12.6c1.6,11.4,11.7,40.2,11.7,40.2l6.9-1.7
		c0,0-3.7-17.1-4.2-26.6c-1.6-26.3-1.2-26.6-2.5-35.9c-0.4-3.3-8.5-5.6-12.8-6.8c-12.2-3.4-25.7-6-25.7-6L92.6,94.3z"/>
	<polygon class="st14" points="109.4,30.1 115.1,31.2 116.3,34.6 114.6,38.8 111.7,35.1 	"/>
	<path class="st15" d="M153.8,73.5l-28.5-3.8c0,0-9.5-18.7-9.4-30.7c0-4-12.4,10.9-8.5,19.6c1.7,3.7,6.1,13.4,10.7,17.6
		c1.9,1.6,4,2,6.5,2.4l28.3,4.4L153.8,73.5z"/>
	<polygon class="st16" points="119.9,77.1 119.6,57 117.3,43.5 112.7,71.1 117.3,75.2 	"/>
	<path class="st17" d="M116.3,36.1c0.8,4.4,2.4,11.3,2,19.2c-0.4,9-1.9,10.9-1.5,17.5c0.7,13,1.1,18.8,2,23.7c-0.8,1.1-6-0.9-9-0.3
		c-0.7,0.1,0.5-6.1-0.8-7.3c-1.3-1.3-2,6.5-2.6,10.1c-0.3,1.3-0.3,8.2-1.3,8.3c-9.5,0.5-20.4-1.7-26.1-9.4
		c-1.6-2.3,11.3-17.6,11-26.1c-0.7-15.9,2.5-36.4,9.4-37.2c3.8-0.4,9.1-3.6,12.8-3.3C114.8,31.4,114.6,39.2,116.3,36.1z"/>
	<path class="st5" d="M132.2,12.4c0.5,0.4,0.5,3.7-0.9,6c-0.1,1.1-0.5,2.5-0.4,3.2c0.4,2.1,1.7,2.8,1.1,3.8
		c-0.4,0.4-1.5,0.1-1.9,1.1c-1.2,1.6-1.2,1.9-2,3c-0.4,0.7-1.3,2.3-1.6,2.5c-0.8,0.7-5.6-2.8-6.4-2.5c-0.7,0.3-1.1,0.7-2.4,2.3
		c-1.3,1.7-1.3,2.6-1.6,3.4c-0.4,1.9,1.3,3.7,0.5,4.1c-1.5,0.9-9.8-3.7-8.9-6.4c0.4-0.8,1.3-0.9,2.6-1.7c0.9-0.5,4.5-2.9,4.6-6.2
		c0.1-0.9-0.1-1.3,0.1-2c0.5-1.5,4.6-8.7,8.7-10.3C129.1,9.7,131.1,11.6,132.2,12.4z"/>
	<path class="st2" d="M132.3,16.1c0,0-1.2-0.8-2-0.5c-0.7,0.3-3.7,1.1-3.7,1.1L132.3,16.1z"/>
	<polygon class="st18" points="128.5,28.6 127,27.5 126.1,26.1 129.1,27.5 	"/>
	<polyline class="st19" points="118,30.8 119.2,27.8 120.5,28.8 	"/>
	<polygon class="st20" points="116.4,39.6 114.4,54.5 111.3,88.1 114.4,96.3 106.6,97.2 107.7,57.6 109.1,36.9 	"/>
	<polygon class="st6" points="106.4,34.5 109,43.6 113.5,39.5 113.2,44.9 116.7,41 116,39 109.7,38.7 	"/>
	<path class="st21" d="M109.4,30.1c0,0,1.7,4,2.3,4.9c0.8,1.7,2.8,3.7,2.8,3.7l-3.6,6c0,0-3.2-7.1-4.2-9c-0.9-1.9-0.4-3.4-0.4-3.4
		L109.4,30.1z"/>
	<polygon class="st21" points="116.3,34.6 115.4,37.1 114,38.8 114,45.1 117.5,39.6 	"/>
	<polygon class="st8" points="199.3,82.3 117.1,82.3 118.8,85.8 201,85.8 	"/>
	<path class="st5" d="M123.3,86.5c0,0,7.9,0.1,9.4-0.7c1.5-0.7,4.1-3.6,5.6-4.4c1.1-0.5,4.5,0,3.7-1.1c-0.9-1.2-3.3-2.4-5-2.4
		c-1.1,0-3.6,2.4-4.8,3c-0.7,0.4-2.8,0.9-2.8,0.9L123.3,86.5z"/>
	<polygon class="st20" points="127,80.3 130.7,79.7 129.1,87.7 125,87 	"/>
	<polygon class="st6" points="186.2,81.5 183.8,80.7 193.7,46 195.1,48.9 	"/>
	
		<ellipse transform="matrix(7.085637e-02 -0.9975 0.9975 7.085637e-02 36.3609 200.4888)" class="st22" cx="125.8" cy="80.7" rx="0.8" ry="1.2"/>
	<ellipse transform="matrix(0.2466 -0.9691 0.9691 0.2466 79.9153 140.6706)" class="st2" cx="130.4" cy="18.9" rx="0.8" ry="0.8"/>
	<path class="st2" d="M131.5,18.6c0,0,0.4-1.3-0.5-1.1c-0.8,0-3.4,0.5-3.4,0.7L131.5,18.6z"/>
	<rect x="106.5" y="130.2" class="st9" width="0.8" height="49.6"/>
	<path class="st23" d="M196.5,73.7c0,2.8-2.3,5-5,5c-2.8,0-5-2.3-5-5c0-2.8,1.2-5.2,5-5C195.7,68.6,196.5,70.9,196.5,73.7z"/>
	<polygon class="st12" points="185.3,73.3 197.8,73.3 195.3,82.4 186.7,82.4 	"/>
	<line class="st3" x1="188.2" y1="69" x2="189.4" y2="71.8"/>
	<line class="st3" x1="191.2" y1="67.3" x2="190.8" y2="70.3"/>
	<line class="st3" x1="196.5" y1="69.7" x2="194.5" y2="72.1"/>
	<polygon class="st7" points="87.3,111.7 87.3,110.7 147.5,115.5 147.4,116.7 	"/>
	<path class="st11" d="M52.1,54.2c2.1-7.7,10.3-10.9,10.3-10.9l27,72.6L75.2,127C75.4,127,47.7,70.5,52.1,54.2z"/>
	<path class="st11" d="M75.1,127.1l59.1,0.5c0,0,6.4-3.6,5.6-5.2c-5.3-11.9-60.5-6.6-60.5-6.6l-6.8,2.9L75.1,127.1z"/>
	<polygon class="st9" points="85.3,118.7 84.6,119.5 56.7,46.5 57.8,46.1 	"/>
	<polygon class="st9" points="84.5,119.5 84.5,118.5 135,118.5 136.9,119.5 	"/>
	<path class="st7" d="M147.4,115.4l0.9,0.3c0,0-0.4,12.4,0.1,16.5c1.1,10.1,8.6,39.5,8.6,39.5l-1.1,0.5c0,0-7.9-29.7-8.9-39.9
		C146.7,128.1,147.4,115.4,147.4,115.4z"/>
	<path class="st11" d="M127.3,175.2c0.1-0.1-0.5-2-1.3-2c-0.9,0-3.7,0-3.7,0"/>
	<path class="st17" d="M96.6,36.9c-1.7-0.1-4.1,5.2-4.8,8.3c-0.9,4.5-1.2,9-1.1,18.1c0.3,12.4,0.7,15.4,0.8,18.3
		c0.1,1.2,6.4,2.4,7.5,2.6c4.1,0.9,7.9,1.5,12.6,2.4c9.1,1.6,15.9,1.7,15.9,1.7s2.1-9.3,0.3-9c-10.7,1.7-26.6-6.2-26.6-6.2
		s0.1-7.1,0.4-15.9C101.7,46.1,98.9,37,96.6,36.9z"/>
	<path class="st16" d="M100.5,80.9c-1.3-0.3-8.2-1.7-8.3-2.9c-0.3-3.3-0.7-6.4-0.9-20.3c-0.1-4-0.1-7.1,0-9.9
		c-0.5,3.7-0.7,8.1-0.5,15.5c0.3,12.4,0.7,15.4,0.8,18.3c0.1,1.2,6.4,2.4,7.5,2.6c4.1,0.9,7.9,1.5,12.6,2.4
		c9.1,1.6,15.9,1.7,15.9,1.7s0.3-1.3,0.5-3c-3.2-0.3-7.9-0.7-13.6-1.7C109.4,82.7,105.2,82,100.5,80.9z"/>
	<path class="st15" d="M127.8,79.2c-10.7,1.7-26.6-6.2-26.6-6.2s0.1-7.1,0.4-15.9c0.3-10.9-2.6-20-5-20.3c-1.7-0.1-4.1,5.2-4.8,8.3
		c-0.1,0.9-0.3,1.9-0.4,2.8c-0.1,2.6-0.1,5.8,0,9.9c0.3,13.8,0.7,16.9,0.9,20.3c0.1,1.2,7.1,2.6,8.3,2.9c4.6,0.9,8.9,1.6,13.9,2.5
		c5.6,0.9,10.5,1.5,13.6,1.7C128.6,82.5,129,79.1,127.8,79.2z"/>
</g>
</svg>
