<?xml version="1.0" encoding="UTF-8"?>
<svg width="109px" height="109px" viewBox="0 0 109 109" version="1.1" xmlns="http://www.w3.org/2000/svg" xmlns:xlink="http://www.w3.org/1999/xlink">
    <!-- Generator: Sketch 48.2 (47327) - http://www.bohemiancoding.com/sketch -->
    <title>Group 2</title>
    <desc>Created with Sketch.</desc>
    <defs></defs>
    <g id="home_page_v1" stroke="none" stroke-width="1" fill="none" fill-rule="evenodd" transform="translate(-240.000000, -2896.000000)">
        <g id="Group-2" transform="translate(240.000000, 2896.000000)">
            <circle id="Oval-3" fill="#16CCBB" cx="54.5" cy="54.5" r="54.5"></circle>
            <path d="M62.9787234,49.6093298 C62.9787234,48.7675245 62.2963053,48.0851064 61.4545,48.0851064 L50.6731596,48.0851064 C49.8313542,48.0851064 49.1489362,48.7675245 49.1489362,49.6093298 L49.1489362,60.3906702 C49.1489362,61.2324755 49.8313542,61.9148936 50.6731596,61.9148936 L61.4545,61.9148936 C62.2963053,61.9148936 62.9787234,61.2324755 62.9787234,60.3906702 L62.9787234,49.6093298 Z M58.2231463,56.5242234 L53.9045133,56.5242234 L53.9045133,53.4757766 L58.2231463,53.4757766 L58.2231463,56.5242234 Z" id="Shape" fill="#FFFFFF" fill-rule="nonzero" opacity="0.600000024"></path>
            <path d="M57.581842,43.8297872 L57.581842,39.1951987 C59.8075627,38.4614319 61.1654756,36.2449904 60.7884556,33.9612317 C60.4114356,31.677473 58.4106861,30 56.0638298,30 C53.7169735,30 51.7162239,31.677473 51.339204,33.9612317 C50.962184,36.2449904 52.3200969,38.4614319 54.5458175,39.1951987 L54.5458175,43.8297872 L57.581842,43.8297872 Z" id="Shape" fill="#FFFFFF" fill-rule="nonzero"></path>
            <path d="M57.581842,70.8048013 L57.581842,66.1702128 L54.5458175,66.1702128 L54.5458175,70.8048013 C52.3200969,71.5385681 50.962184,73.7550096 51.339204,76.0387683 C51.7162239,78.322527 53.7169735,80 56.0638298,80 C58.4106861,80 60.4114356,78.322527 60.7884556,76.0387683 C61.1654756,73.7550096 59.8075627,71.5385681 57.581842,70.8048013 Z" id="Shape" fill="#FFFFFF" fill-rule="nonzero"></path>
            <path d="M66.2569092,47.0212766 L69.6800431,43.5965939 C71.5755538,44.5469358 73.8664541,44.1751001 75.3644253,42.6739625 C77.1440534,40.8939498 77.2976125,38.0585516 75.7206419,36.096588 C74.1436713,34.1346245 71.3426304,33.6761994 69.2229674,35.033163 C67.1033043,36.3901266 66.3457696,39.1266767 67.4656871,41.381236 L64.0425532,44.8059187 L66.2569092,47.0212766 Z" id="Shape" fill="#FFFFFF" fill-rule="nonzero"></path>
            <path d="M44.8114901,61.9148936 L41.3873633,65.335205 C39.2243617,64.2552567 36.5977227,64.9035011 35.1849566,66.8659352 C33.7721904,68.8283693 33.9900679,71.5260685 35.6994408,73.2361396 C37.4088138,74.9462107 40.1054116,75.1641771 42.0670445,73.7508339 C44.0286774,72.3374908 44.6766572,69.709779 43.5971498,67.5458941 L47.0212766,64.1203688 L44.8114901,61.9148936 Z" id="Shape" fill="#FFFFFF" fill-rule="nonzero"></path>
            <path d="M69.6750793,65.3394211 L66.2517956,61.9148936 L64.0425532,64.1249388 L67.4658368,67.5494663 C66.5234446,69.4451728 66.8944877,71.7309575 68.3880913,73.2309503 C70.1664215,75.0156847 73.0038008,75.1719082 74.967185,73.5931891 C76.9305693,72.0144699 77.3881221,69.2088556 76.0281229,67.0877495 C74.6681236,64.9666433 71.9282334,64.2126382 69.6750793,65.3394211 Z" id="Shape" fill="#FFFFFF" fill-rule="nonzero"></path>
            <path d="M41.301145,45.2454652 C42.0662604,45.2453536 42.8207768,45.066857 43.5045834,44.7241957 L46.935055,48.1489362 L49.1489362,45.9387536 L45.7393503,42.5140132 C46.6912986,40.6176128 46.3188343,38.3256374 44.8151593,36.8269632 C43.2360882,35.2509362 40.7943122,34.9284545 38.859062,36.0403502 C36.9238118,37.1522459 35.9763852,39.4219901 36.5480534,41.5768192 C37.1197216,43.7316484 39.0683105,45.2356553 41.301145,45.2454652 Z" id="Shape" fill="#FFFFFF" fill-rule="nonzero"></path>
            <path d="M75.2824414,49.1489482 C73.2463009,49.1443492 71.4359149,50.4626732 70.7887396,52.4212643 L66.1702128,52.4212643 L66.1702128,55.4605672 L70.8087116,55.4605672 C71.5751707,57.7746042 73.9352371,59.1328077 76.2862767,58.6128718 C78.6373163,58.0929359 80.2260788,55.8614431 79.973694,53.4337178 C79.7213093,51.0059925 77.708639,49.1598546 75.3024134,49.1489482 L75.2824414,49.1489482 Z" id="Shape" fill="#FFFFFF" fill-rule="nonzero"></path>
            <path d="M39.1951987,55.4541825 L43.8297872,55.4541825 L43.8297872,52.418158 L39.1951987,52.418158 C38.4614319,50.1924373 36.2449904,48.8345244 33.9612317,49.2115444 C31.677473,49.5885644 30,51.5893139 30,53.9361702 C30,56.2830265 31.677473,58.2837761 33.9612317,58.660796 C36.2449904,59.037816 38.4614319,57.6799031 39.1951987,55.4541825 Z" id="Shape" fill="#FFFFFF" fill-rule="nonzero"></path>
        </g>
    </g>
</svg>