<?xml version="1.0" encoding="utf-8"?>
<!-- Generator: Adobe Illustrator 21.0.2, SVG Export Plug-In . SVG Version: 6.00 Build 0)  -->
<svg version="1.1" id="Layer_1" xmlns="http://www.w3.org/2000/svg" xmlns:xlink="http://www.w3.org/1999/xlink" x="0px" y="0px"
	 viewBox="0 0 109 109" style="enable-background:new 0 0 109 109;" xml:space="preserve">
<style type="text/css">
	.st0{fill:#26A9C6;}
	.st1{fill:url(#Rectangle-3_1_);}
	.st2{enable-background:new    ;}
</style>
<title>Group 7</title>
<desc>Created with Sketch.</desc>
<g id="home_page_v1" transform="translate(-240.000000, -3069.000000)">
	<g id="Group-7" transform="translate(240.000000, 3069.000000)">
		<circle id="Oval-3" class="st0" cx="54.5" cy="54.5" r="54.5"/>
		<g id="Group-6" transform="translate(20.000000, 40.000000)">
			
				<linearGradient id="Rectangle-3_1_" gradientUnits="userSpaceOnUse" x1="-23.9286" y1="74.3214" x2="-24.9286" y2="74.3214" gradientTransform="matrix(70 0 0 -28 1745 2096)">
				<stop  offset="0" style="stop-color:#FFFFFF;stop-opacity:0.56"/>
				<stop  offset="1" style="stop-color:#FFFFFF"/>
			</linearGradient>
			<path id="Rectangle-3" class="st1" d="M4,1h62c2.2,0,4,1.8,4,4v20c0,2.2-1.8,4-4,4H4c-2.2,0-4-1.8-4-4V5C0,2.8,1.8,1,4,1z"/>
			<g class="st2">
				<path class="st0" d="M26.5,11.6c-0.8,0-1.4,0.3-1.9,0.9C24.2,13.1,24,14,24,15c0,2.2,0.8,3.3,2.5,3.3c0.7,0,1.6-0.2,2.5-0.5v1.8
					c-0.8,0.3-1.7,0.5-2.7,0.5c-1.5,0-2.6-0.4-3.3-1.3c-0.8-0.9-1.2-2.1-1.2-3.8c0-1,0.2-1.9,0.6-2.7c0.4-0.8,0.9-1.4,1.6-1.8
					c0.7-0.4,1.5-0.6,2.5-0.6c1,0,1.9,0.2,2.9,0.7l-0.7,1.7c-0.4-0.2-0.7-0.3-1.1-0.5S26.9,11.6,26.5,11.6z"/>
				<path class="st0" d="M35,20h-2.1v-8.2h-2.7V10h7.5v1.8H35V20z"/>
				<path class="st0" d="M45.4,20l-0.7-2.4H41L40.3,20H38l3.5-10h2.6l3.5,10H45.4z M44.2,15.8c-0.7-2.2-1-3.4-1.1-3.7
					c-0.1-0.3-0.1-0.5-0.2-0.7c-0.2,0.6-0.6,2-1.3,4.3H44.2z"/>
			</g>
		</g>
	</g>
</g>
</svg>
