<?xml version="1.0" encoding="UTF-8"?>
<svg width="109px" height="109px" viewBox="0 0 109 109" version="1.1" xmlns="http://www.w3.org/2000/svg" xmlns:xlink="http://www.w3.org/1999/xlink">
    <!-- Generator: Sketch 48.2 (47327) - http://www.bohemiancoding.com/sketch -->
    <title>Group 4</title>
    <desc>Created with Sketch.</desc>
    <defs></defs>
    <g id="home_page_v1" stroke="none" stroke-width="1" fill="none" fill-rule="evenodd" transform="translate(-240.000000, -3242.000000)">
        <g id="Group-4" transform="translate(240.000000, 3242.000000)">
            <circle id="Oval-3" fill="#FFBA49" cx="54.5" cy="54.5" r="54.5"></circle>
            <path d="M30,71 C30.5982933,71.2126152 31.2384252,71.5570517 31.9203959,72.0609497 C32.0187168,72.1502481 32.0270845,72.3054571 31.9392233,72.4053863 L31.9203959,72.4245216 C31.3702171,72.8625089 30.9204512,73.4004252 30.5878336,74" id="Shape" fill="#FFFFFF"></path>
            <g id="Group-3" transform="translate(29.000000, 30.000000)" fill="#FFFFFF">
                <path d="M8.2307253,38.9016155 C7.70264368,39.8241638 7.43146663,40.8825188 7.46952657,41.9689717 C7.47666281,42.1937551 7.65982625,42.3717086 7.88818587,42.3810746 C9.78166772,42.4560023 11.5990297,41.6435042 12.786024,40.1964613 C12.8811738,40.0793866 13.0548223,40.0629962 13.1713808,40.1566559 C13.1856533,40.1683634 13.1999258,40.1824123 13.2118195,40.1964613 C13.975397,41.0885702 16.0782085,44.0013879 13.7494161,46.8135214 C12.7313128,48.012366 11.2755202,48.7710099 9.69127537,48.9255484 C7.43146663,49.1620392 3.25676734,49.8855607 1.55120643,51.7962192 C1.34187678,52.0373931 0.970792399,52.070174 0.723402811,51.8641225 C0.635389208,51.7915363 0.571163065,51.6931935 0.53786062,51.5854848 C-0.0639621269,49.5694591 -1.00118807,45.0620844 3.93946745,41.177547 C2.90471293,40.82164 1.79145978,40.7326632 0.711509081,40.9246657 C0.516451906,40.9644711 0.311879747,40.9059338 0.173912477,40.7654442 C-0.00211473,40.5945151 -0.0496896507,40.3346094 0.0549751749,40.1168505 C1.03977603,38.0399459 3.42090082,34.1600915 7.56229766,35.5977684" id="Shape" opacity="0.600000024"></path>
                <path d="M29.8726858,13.0838108 C31.7592772,11.2377049 34.8104895,11.2447066 36.6899794,13.0954803 C38.5671023,14.9485879 38.562368,17.9453009 36.6781438,19.7914068 C34.7962868,21.6328449 31.7545429,21.6328449 29.8726858,19.7914068 C27.9884617,17.9453009 27.9837274,14.9485879 29.8608503,13.0954803 L29.8726858,13.0838108 Z M4.89961392,22.405362 L11.1109258,24.9352973 C10.4102596,26.6740443 9.85162022,28.461803 9.43974207,30.2869039 L9.2053976,31.3394877 L18.1104873,40.09157 L19.1804237,39.8651828 C21.0362425,39.4614201 22.8589217,38.9129562 24.6247901,38.2244591 L27.2025792,44.325244 C27.2854283,44.5282923 27.5197727,44.6239817 27.7257118,44.5422956 C27.7754212,44.5212906 27.8227635,44.49095 27.8606374,44.4536078 L31.7521758,40.6283644 C33.0375197,39.3657306 33.7192491,37.6293175 33.6269315,35.8462266 L33.4872717,33.3909758 C40.6951394,28.1607314 47.9882232,18.9932168 49.9742334,2.98974256 C50.1778054,1.54973328 49.1528442,0.224084539 47.6875995,0.0257040058 C47.4508879,-0.00697043496 47.2094421,-0.00930432358 46.9703634,0.0233701171 C30.6869737,1.99083823 21.3487018,9.16054408 16.0274254,16.2205572 L13.5301182,16.0945272 C11.7216417,15.9965039 9.9534062,16.6569943 8.66332808,17.9079586 L4.77178967,21.7332021 C4.60135733,21.8732354 4.5824204,22.1229615 4.72444735,22.2886676 C4.77178967,22.342347 4.83096756,22.3820231 4.89961392,22.405362 Z" id="Shape"></path>
            </g>
            <ellipse id="Oval" fill="#FED031" cx="63.5" cy="46" rx="5.5" ry="5"></ellipse>
        </g>
    </g>
</svg>