<?xml version="1.0" encoding="UTF-8"?>
<svg width="109px" height="109px" viewBox="0 0 109 109" version="1.1" xmlns="http://www.w3.org/2000/svg" xmlns:xlink="http://www.w3.org/1999/xlink">
    <!-- Generator: Sketch 48.2 (47327) - http://www.bohemiancoding.com/sketch -->
    <title>Group</title>
    <desc>Created with Sketch.</desc>
    <defs></defs>
    <g id="home_page_v1" stroke="none" stroke-width="1" fill="none" fill-rule="evenodd" transform="translate(-240.000000, -3415.000000)">
        <g id="Group" transform="translate(240.000000, 3415.000000)">
            <circle id="Oval-3" fill="#EF5B5B" cx="54.5" cy="54.5" r="54.5"></circle>
            <path d="M59.9780883,59.8795031 C59.9780883,55.2926708 63.5802374,51.56 68.0030199,51.56 L75,51.56 L75,47.1863354 C75,44.9473292 73.250755,43.1868323 71.141583,43.1868323 L38.1161247,43.1868323 C35.4397078,43.1868323 34,41 34,41 L34,74.2273292 C35.3893181,77 37.9606363,77 37.9606363,77 L71.141583,77 C73.3025845,77 75,75.1873292 75,73.0004969 L75,68.2004969 L68.0030199,68.2004969 C63.5802374,68.2004969 59.9780883,64.4663354 59.9780883,59.8795031 Z" id="Shape" fill="#FFFFFF" fill-rule="nonzero"></path>
            <path d="M70,62.3189665 C68.8018018,62.3189665 67.8424382,61.3113329 67.8424382,60.0500294 C67.8424382,58.7901351 68.8018018,57.7810922 70,57.7810922 C71.19954,57.7810922 72.1575618,58.7901351 72.1575618,60.0500294 C72.1575618,61.3113329 71.19954,62.3189665 70,62.3189665 Z M75.5616255,54 L75.2261836,54 L68.7051946,54 C65.5413073,54 63,56.6719906 63,60.0007046 C63,63.3280094 65.5413073,66 68.7051946,66 L75.2261836,66 L75.5133218,66 C76.3291164,66 77,65.2939518 77,64.437111 L77,55.562889 C77,54.7060482 76.3760782,54 75.5616255,54 Z" id="Shape" fill="#FFFFFF" opacity="0.669999957"></path>
            <path d="M36.7970779,42.4440994 L36.9013405,42.4440994 L39.2298719,42.4440994 L40.6779635,42.4440994 L43.1614406,42.4440994 L64.6351914,32.7779503 L67.2736144,42.4440994 L68.2568686,42.4440994 L69.2401228,42.4440994 L71.4643916,42.4440994 C71.4643916,42.4440994 73.2238229,42.6661491 74,44 L74,43.5559006 C74,41.3338509 72.3448313,39.5559006 70.2755083,39.5559006 L68.4639457,39.5559006 L65.8255227,30 L44.6109804,39.6118012 L40.1088635,39.6118012 C35.6588779,39.6118012 35.296855,42.0559006 36.7970779,42.4440994 Z" id="Shape" fill="#FFFFFF" fill-rule="nonzero" opacity="0.699999988"></path>
        </g>
    </g>
</svg>