<?xml version="1.0" encoding="utf-8"?>
<!-- Generator: Adobe Illustrator 21.0.2, SVG Export Plug-In . SVG Version: 6.00 Build 0)  -->
<svg version="1.1" id="Layer_1" xmlns="http://www.w3.org/2000/svg" xmlns:xlink="http://www.w3.org/1999/xlink" x="0px" y="0px"
	 viewBox="0 0 240 240" style="enable-background:new 0 0 240 240;" xml:space="preserve">
<style type="text/css">
	.st0{fill:#FFF7EE;}
	.st1{fill:#FFFCF8;}
	.st2{fill:#D39C74;}
	.st3{fill:#663B61;}
	.st4{fill:#70818E;}
	.st5{fill:#16CCBB;}
	.st6{fill:#22ADBC;}
	.st7{fill:#26C1DB;}
	.st8{fill:#FFFFFF;}
	.st9{opacity:0.58;fill:url(#SVGID_1_);enable-background:new    ;}
	.st10{fill:#FFBA49;}
	.st11{fill:#E5E6E9;}
	.st12{fill:#BAC0C6;}
	.st13{fill:#513852;}
	.st14{fill:#744B31;}
	.st15{fill:#CC8166;}
	.st16{fill:#EF5B5B;}
	.st17{fill:#956FA7;}
	.st18{fill:none;stroke:#513852;stroke-width:0.3231;stroke-miterlimit:10;}
	.st19{fill:#2CD4E5;}
	.st20{fill:#314341;}
	.st21{fill:#3D5450;}
	.st22{fill:#FFD092;}
</style>
<g>
	<path class="st0" d="M27.2,127c1.2-10.8,5.4-19,6.8-21.6c4.4-8.6,6.5-7,10.5-15c6-11.7,3.1-18.2,8.2-25.5c4.9-7,14.1-10.2,21.4-4
		c7.2,6.1,5.9,16,14.5,26.8C96.8,98,100.9,92.5,109,102c8.3,9.6,14.9,27.9,14.7,43c-0.1,15.9-9.6,16.5,8.5,30
		c18.4,13.8,23.6-24.3,30.5-53.8c5.8-24.5,51.5-27.1,48.4,0.4c-7.8,69.9-11.3,76.8-29.3,100.8c-4.6,6.1-33.2,24.7-60.4,8.3
		c-8.1-4.7-13.3-16.3-22.2-18.4c-23.9-5.9-61.3-12.8-63.8-39.4C33.1,150.6,25.3,144.1,27.2,127z"/>
	<path class="st1" d="M27.2,114.1c1.2-10.8,5.4-19,6.8-21.6c4.4-8.6,6.5-7,10.5-15c6-11.7,3.1-18.2,8.2-25.5c4.9-7,14.1-10.2,21.4-4
		c7.2,6.1,5.9,16,14.5,26.8c8.3,10.4,12.4,4.9,20.5,14.3c8.3,9.6,14.9,27.9,14.7,43c-0.1,15.9-9.6,16.5,8.5,30
		c18.4,13.8,23.6-24.3,30.5-53.8c5.8-24.5,51.5-27.1,48.4,0.4c-7.8,69.9-11.3,76.8-29.3,100.8c-4.6,6.1-33.2,24.7-60.4,8.3
		c-8.1-4.7-13.3-16.3-22.2-18.4c-23.9-5.9-61.3-12.8-63.8-39.4C33.1,137.8,25.3,131.3,27.2,114.1z"/>
	<path class="st2" d="M48,196.4c0,0.3,0,0.4,0,0.5c0-0.4,0-0.9,0.1-1.4l0,0c0-0.1,0-0.3,0-0.5l0,0c0-0.3,0.1-0.6,0.3-0.9l-0.5-2
		c0-0.1,0.6,1.7,0.6,1.5l0.1-1.9c0-0.1,0.8-8.6,0.9-8.7c0,0,6.5-5.8,7.7-4.6c0.1,0.1-4.1,15.5-4,15.6c0.1,0.1,0.3,0.1,0.3,0.3
		l-0.8,0.8C52.8,195.1,48.3,194.4,48,196.4z"/>
	<path class="st3" d="M59.3,191.6L59.3,191.6L59.3,191.6z"/>
	<path class="st4" d="M50.9,189.8c-0.1,0.1-0.1,0.1-0.3,0.3C50.6,190.1,50.7,190,50.9,189.8z"/>
	<path class="st4" d="M51.2,189.6c-0.1,0-0.3,0.1-0.4,0.3C51,189.8,51.1,189.7,51.2,189.6z"/>
	<path class="st4" d="M50.5,190.2c-0.1,0.1-0.1,0.3-0.3,0.4C50.4,190.5,50.5,190.3,50.5,190.2z"/>
	<path class="st4" d="M50.1,190.1c-0.1,0.1-0.1,0.3-0.3,0.4C50,190.3,50,190.2,50.1,190.1z"/>
	<path class="st4" d="M51.5,189.4c-0.1,0-0.3,0.1-0.4,0.1C51.4,189.6,51.4,189.4,51.5,189.4z"/>
	<path class="st4" d="M53.6,191.5c-0.1-0.1-0.3-0.3-0.3-0.5C53.4,191.2,53.6,191.4,53.6,191.5z"/>
	<path class="st4" d="M49.8,190.5c-0.1,0.1-0.1,0.3-0.3,0.4C49.6,190.7,49.7,190.6,49.8,190.5z"/>
	<path class="st4" d="M52.8,189.3c-0.1,0-0.3,0-0.4,0C52.5,189.3,52.7,189.3,52.8,189.3z"/>
	<path class="st4" d="M52.3,189.3c-0.1,0-0.3,0-0.4,0C52,189.3,52.1,189.3,52.3,189.3z"/>
	<path class="st4" d="M51.9,189.3c-0.1,0-0.3,0-0.4,0.1C51.6,189.4,51.8,189.3,51.9,189.3z"/>
	<path class="st4" d="M48.7,190.2c0,0.1-0.1,0.3-0.3,0.4C48.6,190.6,48.6,190.3,48.7,190.2z"/>
	<path class="st4" d="M48.4,190.7c-0.1,0.3-0.3,0.6-0.4,0.9C48.2,191.4,48.3,191,48.4,190.7z"/>
	<path class="st3" d="M49.8,190.5L49.8,190.5L49.8,190.5z"/>
	<path class="st3" d="M52,189.3L52,189.3C51.9,189.3,52,189.3,52,189.3z"/>
	<path class="st3" d="M53.8,191.9L53.8,191.9c-0.1-0.1-0.1-0.3-0.3-0.3C53.7,191.6,53.8,191.9,53.8,191.9z"/>
	<path class="st3" d="M52.4,189.3L52.4,189.3L52.4,189.3z"/>
	<path class="st3" d="M51.6,189.4L51.6,189.4L51.6,189.4z"/>
	<path class="st3" d="M50.2,190.6"/>
	<path class="st3" d="M49.6,190.9L49.6,190.9L49.6,190.9z"/>
	<path class="st3" d="M50.6,190.2L50.6,190.2C50.5,190.2,50.5,190.2,50.6,190.2z"/>
	<path class="st3" d="M48.4,190.6C48.4,190.7,48.4,190.7,48.4,190.6C48.4,190.7,48.4,190.7,48.4,190.6z"/>
	<path class="st3" d="M51.2,189.6L51.2,189.6L51.2,189.6z"/>
	<path class="st3" d="M50.9,189.8"/>
	<path class="st5" d="M47.3,194.6c0-0.6,0.4-3.2,0.8-4.1c-0.1,0.5,6.3,0.9,6.3,0.9c0.3,0.4-0.3,0.5,0.1,0.8
		c4.6,4.4,12.8,4.1,12.4,6.9c-0.1,0.8-2.4,1.3-2.6,1.3c-2.8,0.5-3.3,0.6-6.7-0.1c-4.9-1.3-9-1.4-10.2-3.2
		C47,196.5,47.1,196.2,47.3,194.6z"/>
	<path class="st6" d="M47.4,196.6c1.5,1.5,5.5,1.4,10.2,2.7c3.3,0.8,3.7,0.6,6.7,0.1c0.1,0,1.9-0.4,2.4-0.9c0.1,0.3,0.1,0.5,0.1,0.8
		c-0.1,0.8-2.4,1.3-2.6,1.3c-2.8,0.5-3.3,0.6-6.7-0.1c-4.9-1.3-9.3-1-10.6-2.8c-0.3-0.3,0.1-0.9,0.1-1.4
		C47.1,196.2,47.3,196.5,47.4,196.6z"/>
	<path class="st7" d="M84.5,114.7c-0.5,3.8-7.7,28-11.7,36.9c-2,4.7-7.4,13.3-9.7,18.3c-5.5,12.2-7.8,20.5-7.8,20.5l-7.8-1.8
		c0,0,0.6-2.6,8.5-26.4c5.3-16,5.6-14.3,6.7-19.3c4.1-19-0.8-26,4.4-34.3C69.6,104.2,85.7,106.6,84.5,114.7z"/>
	<path class="st4" d="M81.9,194.2c-0.1,0.4-0.1,0.8-0.3,1C81.7,195,81.7,194.6,81.9,194.2z"/>
	<path class="st4" d="M81.6,195.3c0,0.1,0,0.4,0,0.5C81.5,195.7,81.6,195.5,81.6,195.3z"/>
	<path class="st3" d="M81.5,195.8L81.5,195.8L81.5,195.8z"/>
	<path class="st3" d="M81.6,195.3L81.6,195.3L81.6,195.3z"/>
	<path class="st4" d="M81.5,200.1c-0.3-0.5-0.3-1.4-0.1-2.6c0,0.4,0,0.8,0,1.2C81.5,199.3,81.5,199.8,81.5,200.1z"/>
	<path class="st8" d="M62.9,196.4c0,0-1.7,0.9-1.8,1.3c-0.6,1.5-0.6,2.6-0.6,2.6l6.4-0.8c0,0,0-0.6-0.1-0.9
		C66.4,197.1,62.9,196.4,62.9,196.4z"/>
	<path class="st2" d="M81.5,196.9c0,0.3,0,0.4,0,0.6c0-0.5,0-1,0.1-1.5l0,0c0-0.1,0-0.4,0-0.5l0,0c0-0.4,0.1-0.8,0.3-1l0,0
		c0-0.1,0.1-0.3,0.1-0.5l0,0c0-0.1,2.2-15.5,2.2-15.6c0,0,6-3.7,7.3-2.4c0.1,0.1-4.4,20.7-4.2,20.9c0.1,0.1,0.4-2,0.5-1.9l-0.9,0.9
		C87,195.3,81.7,194.6,81.5,196.9z"/>
	<path class="st4" d="M87.5,194.2c-0.1-0.1-0.3-0.3-0.4-0.4C87.2,193.9,87.2,193.9,87.5,194.2z"/>
	<path class="st5" d="M81.3,198c0-0.6,0.1-4.1,0.4-5.1c-0.1,0.5,5.8,0.3,7.2-0.3c0.3-0.1,0,1.7,0,1.7c5.5,5.3,13.7,2.8,13.7,6
		c0,0.9-2.3,1.7-2.6,1.7c-2.9,0.9-3.5,1.2-7,0.6c-5.3-0.6-9.7-0.3-11.3-2C81.3,199.9,81.3,199.7,81.3,198z"/>
	<path class="st3" d="M87.9,194.4L87.9,194.4c-0.1-0.1-0.3-0.1-0.4-0.3C87.6,194.2,87.7,194.3,87.9,194.4z"/>
	<path class="st6" d="M81.9,199.9c1.9,1.4,5.9,0.8,11.1,1.4c3.6,0.4,4.1,0.3,7-0.6c0.1,0,1.9-0.6,2.4-1.4c0.1,0.1,0.3,0.5,0.3,0.8
		c0,0.9-2.3,1.7-2.6,1.7c-2.9,0.9-3.5,1.2-7,0.6c-5.3-0.6-9.7-0.3-11.4-2c-0.3-0.3-0.4-0.6-0.4-1.2
		C81.5,199.7,81.6,199.8,81.9,199.9z"/>
	<path class="st8" d="M97.7,197.8c0,0-1.3,0.6-1.4,1c-0.4,0.6-0.4,3.1-0.4,3.1l6.1-1.3c0,0,0.4-1,0.1-1.3
		C101.7,198.3,97.7,197.8,97.7,197.8z"/>
	
		<linearGradient id="SVGID_1_" gradientUnits="userSpaceOnUse" x1="85.8861" y1="-1264.5226" x2="85.8861" y2="-1277.3564" gradientTransform="matrix(1 0 0 1 0 1382)">
		<stop  offset="0.1919" style="stop-color:#26C1DB"/>
		<stop  offset="1" style="stop-color:#64BFB1"/>
	</linearGradient>
	<polygon class="st9" points="81.7,106.6 88.1,117.5 90,104.7 	"/>
	<polygon class="st10" points="209.3,196 131.7,196.4 133.7,21.2 187.2,12.5 191.7,38.2 175.2,91.9 	"/>
	<polygon class="st11" points="138.5,198.3 131.7,197.6 131.7,18.7 139,19.9 	"/>
	<polygon class="st12" points="130.5,18.6 137.6,21.8 209.8,13.4 195.8,10.9 	"/>
	<polygon class="st12" points="173.4,5 210.3,12.7 210.4,197.3 173,204.3 173.7,140.3 	"/>
	<polygon class="st8" points="176.1,205.1 171.7,204.7 171.7,4.3 175.6,4.3 	"/>
	<path class="st2" d="M81.6,50l-4.2-21.1l-2.9-1.5c0,0,0.6,11.7-0.3,15.5c-0.4,1.8-2.8,6.7-2.8,6.7L81.6,50z"/>
	<path class="st2" d="M74.2,36.7c0,0,8.2,8.1,10.8,6.5c2.6-1.4,3.5-3.5,3.3-6.9l2.4-0.5c0,0-2.3-1.8-2.9-3.2
		c-0.8-6.3-3.2-10.1-3.2-10.1L77,20.5L74.2,36.7z"/>
	<path class="st13" d="M72.2,21.4c8.8-3.3,17.9,1.2,14.5,3.2c-3.1,1.9-5.9,5.9-8.3,5.9c-1.5,0.1-2.3-1.2-2.9-0.6
		c-0.5,0.4-0.5,1.2,0.5,6c0.5,2.6,0.8,3.2,0.4,3.3c-0.8,0.5-3.7-1.5-5.1-4.2c-1.9-3.5-2.8-6.1-2.3-7.7C69,26.2,70.2,22.2,72.2,21.4z
		"/>
	<path class="st8" d="M87.9,40.3c0,0-1.4-0.4-1.8-0.6c-0.8-0.4-2.6-1.4-2.6-1.4l4.6,0.4L87.9,40.3z"/>
	<path class="st14" d="M88.4,29.1c0,0-0.6,1.4-1.2,1.7c-0.6,0.4-3.1,0.3-3.1,0.3L88.4,29.1z"/>
	<path class="st15" d="M78.1,40.5c0,0,1.4,0.5,1.8,1c0.4,0.6,0.5,2.9,0.5,2.9L78.1,40.5z"/>
	<path class="st16" d="M90.6,21.7c0,0,2.6-1.4,2.2-1.8c-1.3-1.3-8.1,0.5-8.1,0.5s-6.4-4.6-12.4-1.7c-6.1,3.1-4.1,13.4-4.1,13.4
		L90.6,21.7z"/>
	<path class="st17" d="M97.2,67.7"/>
	<path class="st18" d="M77.5,33.7c0,21.6,18.6-1,14,35.9"/>
	<circle class="st13" cx="77.4" cy="34.2" r="1.3"/>
	<polygon class="st6" points="55.5,192.6 53.9,193.8 56.9,194.7 	"/>
	<polygon class="st6" points="89.8,193.9 88.3,195.1 91.2,196 	"/>
	<polygon class="st6" points="65.6,111.3 67.6,129.5 71,139 71.9,153.5 78.4,135.7 82.1,97.2 	"/>
	<path class="st19" d="M89.8,190.6l-8.3,0.3c0,0,2.2-22,1.8-29.5c-0.4-9-9.6-51.2-9.6-51.2l0.9-5.8l16.8-0.8c0,0,3.6,38.4,3.2,47.1
		C94.3,160.1,89.8,190.6,89.8,190.6z"/>
	<path class="st20" d="M84.9,49.6c-1.3-0.5-1.9-0.6-3.7-1c-1.5-0.3-4.5,0.8-6,0.6c-1.5-0.1-2.8-1.5-3.8-1.4
		c-2.9,0.4-7.6,13.2-5.6,22.7c6.1,29.3-4.7,41.2-0.5,41.6c5.4,0.5,12.4-4.7,27-0.5c2.6,0.8,0.9-34.7,0.8-36.9
		C92.2,63.9,87.1,50.4,84.9,49.6z"/>
	<path class="st21" d="M84.9,47.4c-1.3-0.5-1.9-0.6-3.7-1c-1.5-0.3-4.5,0.8-6,0.6s-2.8-1.5-3.8-1.4C68.4,46,62,59.1,64.1,68.6
		c6.1,29.3-4.9,43-0.8,42.3c5.3-0.9,14.2-5.6,28.9-1.4c2.6,0.8,0.9-34.7,0.8-36.9C92.2,61.6,87.1,48.2,84.9,47.4z"/>
	<polygon class="st20" points="79.3,56.3 81,85.6 91.2,101.7 93.8,93 	"/>
	<polygon class="st8" points="88,112.1 92.1,146.4 87.5,189.8 90.4,146.8 85.4,111.3 	"/>
	<polygon class="st11" points="181,14.4 182,14.4 182,198.7 181,198.7 	"/>
	<ellipse class="st8" cx="181.6" cy="105.8" rx="2.7" ry="3.8"/>
	<path class="st22" d="M182.9,104.7l8.2,1.4c0,0,0.4,2.7-0.3,3.1c-1.5,1.3-6.4-1-7.7-2.6C182.9,106.3,182.9,104.7,182.9,104.7z"/>
	<path class="st18" d="M123,74.1c-18.3-11.3-2.3,31.6-31.2,8.3"/>
	<polygon class="st12" points="121.7,74.2 128.3,70.4 136.8,83.4 130.4,87.6 	"/>
	<polygon class="st13" points="123.2,75 128.3,71.8 135.1,82.3 130,85.5 	"/>
	<path class="st2" d="M116.3,83.7c0,0,9.9,2,11.4,1.7c1.7-0.4,2.7-3.3,4.4-3.8c1.2-0.4,5.4,1.4,4.9,0.4c-0.6-1.4-2.7-5.5-4.4-5.8
		c-1.2-0.1-5,0.6-6.4,4.1c-0.3,0.6-2.8,0.4-2.8,0.4L116.3,83.7z"/>
	<path class="st21" d="M85.8,48.2c-0.9,0-5,7.3-3.5,16.1c4.6,27.4,9.5,32,9.5,32l33.3-10.5c0,0,3.2-6.4-5.1-6.1
		c-5.6,0.1-24.5,5.1-24.6,4.4C94.5,73.8,88.9,48.5,85.8,48.2z"/>
</g>
</svg>
