<?xml version="1.0" encoding="UTF-8"?>
<svg width="823px" height="753px" viewBox="0 0 823 753" version="1.1" xmlns="http://www.w3.org/2000/svg" xmlns:xlink="http://www.w3.org/1999/xlink">
    <!-- Generator: Sketch 48.2 (47327) - http://www.bohemiancoding.com/sketch -->
    <title>Frictionless integration, seamless revenue</title>
    <desc>Created with Sketch.</desc>
    <defs>
        <linearGradient x1="-0.0018285896%" y1="50.006263%" x2="99.999841%" y2="50.006263%" id="linearGradient-1">
            <stop stop-color="#ECE9E3" offset="15.94%"></stop>
            <stop stop-color="#ECE9E3" stop-opacity="0.8" offset="92.3%"></stop>
        </linearGradient>
        <linearGradient x1="-0.00615384615%" y1="50.0129084%" x2="99.9980513%" y2="50.0129084%" id="linearGradient-2">
            <stop stop-color="#8E8DFF" offset="0%"></stop>
            <stop stop-color="#9391FF" offset="12.51%"></stop>
        </linearGradient>
        <linearGradient x1="-0.0918674043%" y1="49.962161%" x2="100.635248%" y2="49.962161%" id="linearGradient-3">
            <stop stop-color="#EAA572" offset="0%"></stop>
            <stop stop-color="#E99B84" offset="100%"></stop>
        </linearGradient>
        <linearGradient x1="0.399093656%" y1="50.0782816%" x2="99.9697885%" y2="50.0782816%" id="linearGradient-4">
            <stop stop-color="#EA965F" offset="0%"></stop>
            <stop stop-color="#E99B84" offset="100%"></stop>
        </linearGradient>
        <linearGradient x1="-0.296634615%" y1="49.9961952%" x2="99.4697115%" y2="49.9961952%" id="linearGradient-5">
            <stop stop-color="#EDB685" offset="0%"></stop>
            <stop stop-color="#E4A895" offset="100%"></stop>
        </linearGradient>
        <linearGradient x1="0.0524547804%" y1="50.0460784%" x2="100.088372%" y2="50.0460784%" id="linearGradient-6">
            <stop stop-color="#EDB685" offset="0%"></stop>
            <stop stop-color="#E4A895" offset="100%"></stop>
        </linearGradient>
        <linearGradient x1="-15.5567718%" y1="49.9678495%" x2="99.9426716%" y2="49.9678495%" id="linearGradient-7">
            <stop stop-color="#EAA572" offset="0%"></stop>
            <stop stop-color="#E99B84" offset="100%"></stop>
        </linearGradient>
        <linearGradient x1="-17.0889561%" y1="49.9741597%" x2="99.9456884%" y2="49.9741597%" id="linearGradient-8">
            <stop stop-color="#EAA572" offset="0%"></stop>
            <stop stop-color="#E99B84" offset="100%"></stop>
        </linearGradient>
        <linearGradient x1="-0.691939751%" y1="49.9293574%" x2="98.9546239%" y2="49.9293574%" id="linearGradient-9">
            <stop stop-color="#EAA572" offset="0%"></stop>
            <stop stop-color="#E99B84" offset="100%"></stop>
        </linearGradient>
        <linearGradient x1="0.0058220311%" y1="49.9006952%" x2="99.7046797%" y2="49.9006952%" id="linearGradient-10">
            <stop stop-color="#36338E" offset="18.58%"></stop>
            <stop stop-color="#36338E" offset="37.8%"></stop>
        </linearGradient>
        <linearGradient x1="-0.661285975%" y1="50.1371069%" x2="99.4740018%" y2="50.1371069%" id="linearGradient-11">
            <stop stop-color="#EAA572" offset="0%"></stop>
            <stop stop-color="#E99B84" offset="100%"></stop>
        </linearGradient>
        <linearGradient x1="-0.10942623%" y1="49.9569672%" x2="99.2528689%" y2="49.9569672%" id="linearGradient-12">
            <stop stop-color="#8E8DFF" offset="0%"></stop>
            <stop stop-color="#9391FF" offset="12.51%"></stop>
        </linearGradient>
        <linearGradient x1="0.612935587%" y1="49.8883387%" x2="100.158794%" y2="49.8883387%" id="linearGradient-13">
            <stop stop-color="#36338E" offset="18.58%"></stop>
            <stop stop-color="#36338E" offset="37.8%"></stop>
        </linearGradient>
        <linearGradient x1="-0.968918919%" y1="50.5961538%" x2="99.4837838%" y2="50.5961538%" id="linearGradient-14">
            <stop stop-color="#36338E" offset="18.58%"></stop>
            <stop stop-color="#36338E" offset="37.8%"></stop>
        </linearGradient>
        <linearGradient x1="-0.567272727%" y1="50.0263158%" x2="99.1836364%" y2="50.0263158%" id="linearGradient-15">
            <stop stop-color="#36338E" offset="18.58%"></stop>
            <stop stop-color="#36338E" offset="37.8%"></stop>
        </linearGradient>
        <linearGradient x1="-2.09830525%" y1="51.8347457%" x2="97.3277041%" y2="51.8347457%" id="linearGradient-16">
            <stop stop-color="#8E8DFF" offset="0%"></stop>
            <stop stop-color="#9391FF" offset="12.51%"></stop>
        </linearGradient>
        <linearGradient x1="1.44402577%" y1="49.693258%" x2="100.874948%" y2="49.693258%" id="linearGradient-17">
            <stop stop-color="#8E8DFF" offset="0%"></stop>
            <stop stop-color="#9391FF" offset="12.51%"></stop>
        </linearGradient>
        <linearGradient x1="-7.33694671%" y1="49.5323383%" x2="98.2014076%" y2="49.5323383%" id="linearGradient-18">
            <stop stop-color="#8E8DFF" offset="0%"></stop>
            <stop stop-color="#9391FF" offset="12.51%"></stop>
        </linearGradient>
        <linearGradient x1="-1.28552632%" y1="50.0921348%" x2="100.984211%" y2="50.0921348%" id="linearGradient-19">
            <stop stop-color="#8E8DFF" offset="0%"></stop>
            <stop stop-color="#9391FF" offset="12.51%"></stop>
        </linearGradient>
    </defs>
    <g id="home_page_v1" stroke="none" stroke-width="1" fill="none" fill-rule="evenodd" transform="translate(-747.000000, -2858.000000)">
        <g id="Frictionless-integration,-seamless-revenue" transform="translate(747.000000, 2858.000000)">
            <path d="M730.2,491.3 C644.8,461.4 508,521 394.5,536 C301.2,548.3 225,467.5 169,419.1 C104.1,363.4 158.6,300.4 234.2,300.4 C352.6,300.4 382.9,226 472,215 C770.4,178.6 461,99 341.9,99 C220.7,99 185.8,204.6 104.1,246.5 C35.5,281.4 60.3,337.7 16.6,407.8 C-2.4,438.1 -3.6,473.3 9.3,507.3 C24.6,547.7 59.8,586 108.2,610.4 C189.6,651.7 145.8,702.8 248.4,725.2 C308.7,738.4 385.8,713.3 474.3,697.7 C599.2,675.7 619.1,699.2 741.8,671.4 C758.3,667.7 775.8,657.9 790.5,644.8 C833.7,605.5 850.5,533.9 730.2,491.3 Z" id="Shape" fill="#E8F3F3" fill-rule="nonzero" opacity="0.52"></path>
            <ellipse id="Oval" fill="#B1BFCF" fill-rule="nonzero" cx="394.5" cy="111.6" rx="133.4" ry="23"></ellipse>
            <ellipse id="Oval" fill="#D4D8DE" fill-rule="nonzero" cx="394.5" cy="104.2" rx="133.4" ry="23"></ellipse>
            <path d="M474.1,697.9 C385.7,713.5 308.5,738.6 248.2,725.4 C145.7,703.1 189.4,651.6 108,610.6 C59.7,586.2 24.5,548 9.2,507.6 C16.5,553.2 42.3,597 90,621.8 C170.5,663.4 130.7,741.8 248.8,751.6 C309.4,756.5 385.3,725.3 473.4,716.1 C598.3,703.6 605.6,711.5 726.8,683.4 C748.8,678.2 773.3,664.1 790.8,645.5 C776.1,658.7 758.7,668.1 742.1,672.1 C618.8,699.5 598.9,675.9 474.1,697.9 Z" id="Shape" fill="#D6F6EE" fill-rule="nonzero" opacity="0.3"></path>
            <polygon id="Shape" fill="url(#linearGradient-1)" fill-rule="nonzero" points="43.8 503 281.3 577.3 672.7 388.8 426.3 336.2"></polygon>
            <polygon id="Shape" fill="#FFFFFF" fill-rule="nonzero" points="43.8 473.9 281.3 548.3 672.7 359.8 426.3 307.1"></polygon>
            <polygon id="Shape" fill="url(#linearGradient-2)" fill-rule="nonzero" points="134.1 452.5 318 510 621.6 364 430.3 323.3"></polygon>
            <polygon id="Shape" fill="#B1BFCF" fill-rule="nonzero" points="43.8 473.9 43.8 503 281.3 577.3 672.7 388.8 672.7 359.8 281.3 548.3"></polygon>
            <ellipse id="Oval" fill="#F2F3F9" fill-rule="nonzero" cx="187.9" cy="494.7" rx="31.8" ry="11.9"></ellipse>
            <ellipse id="Oval" fill="#716AF4" fill-rule="nonzero" cx="308.8" cy="488" rx="36.7" ry="10.4"></ellipse>
            <path d="M471.3,129.6 L461.2,117.1 C461.2,117.1 457.8,113.7 455.1,111.6 C454.2,111 454.5,109.5 455.7,109.8 C458.8,110.1 465.8,115.9 465.8,115.9 C465.8,115.9 462.4,105.8 460.6,102.7 C459.4,100.6 455.1,96.9 454.2,95 C453.3,93.5 453.3,88.9 454.8,88.3 C459.4,86.2 469.5,95 471.6,99.6 C473.7,103.9 480.8,129 481.1,133.6 C481.4,137.6 475.9,133.9 475.9,133.9 L471.3,129.6 Z" id="Shape" fill="url(#linearGradient-3)" fill-rule="nonzero"></path>
            <ellipse id="Oval" fill="#625FE6" fill-rule="nonzero" cx="216.1" cy="449.7" rx="63.7" ry="15.6"></ellipse>
            <g id="Icons_with_numbers_2_" transform="translate(246.000000, 307.000000)" fill="#B1BFCF" fill-rule="nonzero">
                <g id="Group_2_">
                    <path d="M16.9,9.9 L12.3,26.7 C12,28.2 10.5,29.8 8,30.1 C4.6,30.7 1.9,29.2 1,27 C0.4,24.9 1.9,22.4 5.3,21.8 C7.4,21.2 9.6,21.8 11.1,23 L14.8,9.5 L17.2,0.9 L40.2,2.4 L39.6,4.5 L37.8,11.2 L32.6,29.9 C32.3,31.4 30.8,33 28.3,33.3 C24.9,33.9 22.2,32.4 21.3,30.2 C20.4,28.1 22.2,25.6 25.6,25 C27.7,24.4 29.9,25 31.4,26.2 L35.4,10.9 L16.9,9.9 Z" id="Rectangle_233_2_"></path>
                </g>
            </g>
            <g id="Group" opacity="0.56" transform="translate(306.000000, 290.000000)" fill="#B1BFCF" fill-rule="nonzero">
                <path d="M7.1,0.3 L9.9,0.3 L9.9,22.9 C11.4,22.3 13.3,22.3 15.4,23.2 C18.8,24.4 21.2,27.5 20.3,30.2 C19.4,32.6 15.7,33.9 12.3,32.6 C9.2,31.4 7.4,29.2 7.4,26.8 L7.4,8.1 C2.5,8.7 2.2,15.1 2.8,16.7 C3.1,17.3 2.5,17.9 1.9,16.7 C-3.9,8.5 7.1,4.9 7.1,0.3 Z" id="Shape"></path>
            </g>
            <path d="M468.3,128.7 L483.3,121.4 L512.7,201.9 L525.6,231.3 L494.4,237.7 C494.4,237.7 503.6,223 491.6,184.4 C487.5,170.9 468.3,128.7 468.3,128.7 Z" id="Shape" fill="#EF5B5B" fill-rule="nonzero"></path>
            <polygon id="Shape" fill="url(#linearGradient-4)" fill-rule="nonzero" points="510.8 206.1 499.8 224.5 490.6 233.7 499.8 248 523.7 226.3"></polygon>
            <path d="M478.1,540.6 L505.6,595.4 L529.5,645 L540.5,650.5 C540.5,650.5 531.9,611.6 527.6,599.1 C521.2,581 494.5,529.6 494.5,529.6 L478.1,540.6 Z" id="Shape" fill="url(#linearGradient-5)" fill-rule="nonzero"></path>
            <path d="M512.6,536.9 L562.2,608.2 L584.5,639.1 L590,629 C590,629 568.3,581.3 554.8,560.8 C546.5,548.3 516.2,516.7 516.2,516.7 L512.6,536.9 Z" id="Shape" fill="url(#linearGradient-6)" fill-rule="nonzero"></path>
            <path d="M486.3,557.5 L505.3,595.4 L529.2,645 L540.2,650.5 C540.2,650.5 531.6,611.6 527.3,599.1 C523.9,589.9 515.7,572.5 508.3,557.5 C502.2,557.8 494,557.8 486.3,557.5 Z" id="Shape" fill="url(#linearGradient-7)" fill-rule="nonzero"></path>
            <path d="M541.4,544 C535.6,547.4 529.5,550.7 524,553.2 L562.3,608.3 L584.6,639.2 L590.1,629.1 C590.1,629.1 568.4,581.4 554.9,560.9 C552.1,556.5 546.9,550.4 541.4,544 Z" id="Shape" fill="url(#linearGradient-8)" fill-rule="nonzero"></path>
            <path d="M508.4,673.1 C498.6,673.7 494,673.4 489.1,670.7 C487.6,669.8 510.8,656.6 517.6,653.3 C522.5,650.9 536.6,642.9 536.6,642.9 L541.5,647.2 C541.5,647.2 544.6,649 545.2,653 C547.5,670.4 548.1,669.8 508.4,673.1 Z" id="Shape" fill="#B0B3D1" fill-rule="nonzero"></path>
            <path d="M523.4,668.9 C514.5,671 494.3,672.3 490,669.2 C483,664 510.8,655.7 517.2,652.4 C521.5,650.3 527,642.6 527,642.6 L539.9,639.2 C539.9,639.2 544.5,646.5 545.4,652.4 C547.5,669.2 534.7,666.1 523.4,668.9 Z" id="Shape" fill="#E6E6E6" fill-rule="nonzero"></path>
            <path d="M527,650.2 L520.6,647.4 C520.3,647.4 519.7,647.4 519.4,647.7 L518.5,648.9 C518.2,649.2 518.5,649.5 518.8,649.8 L525.2,652.6 C525.5,652.6 526.1,652.6 526.4,652.3 L527.3,651.1 C527.6,651.1 527.3,650.5 527,650.2 Z" id="Shape" fill="#B1BFCF" fill-rule="nonzero"></path>
            <path d="M586.1,664.9 C565.3,677.4 560.7,675.6 555.2,674.4 C553.7,674.1 568.7,655.7 574.2,650.5 C577.9,646.8 588.9,634.9 588.9,634.9 L593.8,635.2 C593.8,635.2 599.3,639.2 601.5,642.9 C608.4,655.1 596.5,658.4 586.1,664.9 Z" id="Shape" fill="#B0B3D1" fill-rule="nonzero"></path>
            <path d="M586.1,660.6 C578.1,665.5 559.2,675.9 555.5,672.5 C547.5,664.8 571.1,653.2 576.3,648 C579.7,644.6 580.9,634.2 580.9,634.2 L591,625.3 C591,625.3 597.1,634.2 599.9,637.2 C606.9,646.2 602,651.1 586.1,660.6 Z" id="Shape" fill="#E6E6E6" fill-rule="nonzero"></path>
            <path d="M478.1,540.6 L486.7,557.4 C494.4,557.7 502.3,557.7 508.7,557.4 C501.4,542.4 494.9,529.6 494.9,529.6 L478.1,540.6 Z" id="Shape" fill="#CDA082" fill-rule="nonzero"></path>
            <path d="M516.3,516.7 L512.6,536.9 L523.6,553.1 C529.1,550.7 535.2,547.3 541,543.9 C529.8,530.8 516.3,516.7 516.3,516.7 Z" id="Shape" fill="#CDA082" fill-rule="nonzero"></path>
            <path d="M402.5,151.3 C402.5,151.3 396.4,144.6 394.8,142.1 C392.7,138.1 391.7,129.2 389.3,125.6 C388.1,123.5 383.2,120.4 382.3,118.9 C381.4,117.7 380.8,113.1 382.3,112.2 C386.6,109.8 397.3,117.4 400.1,121.7 C402.5,125.7 412,149.9 413,154.1 C413.6,158.1 407.8,154.7 407.8,154.7 L402.5,151.3 Z" id="Shape" fill="url(#linearGradient-9)" fill-rule="nonzero"></path>
            <path d="M562.2,462 C545.7,448.5 516.9,417.3 505.6,399.3 C502.2,394.1 495.8,383.4 492.1,373.3 C490.3,374.8 488.1,375.7 486.9,376.4 C477.4,378.8 455.7,376.7 447.7,370.9 C447.1,370.3 446.2,369.4 445.6,368.5 C443.5,372.8 440.4,380.1 439.8,383.5 C426,468.6 472.9,555.5 472.9,555.5 C472.9,555.5 509.3,554.3 520.6,550 C533.8,544.8 555.8,526.4 566.5,516.9 C574.8,509.6 595.9,483.8 595.9,483.8 C595.9,483.8 569.9,468.1 562.2,462 Z" id="Shape" fill="url(#linearGradient-10)" fill-rule="nonzero"></path>
            <path d="M447.5,370.8 C455.5,376.6 477.2,378.8 486.7,376.3 C488.2,376 490.1,374.8 491.9,373.2 C487.9,362.8 485.2,353.9 485.2,353.9 L446.6,364.9 C446.6,364.9 446,366.1 445.1,368.3 C445.9,369.2 446.5,370.2 447.5,370.8 Z" id="Shape" fill="#716AF4" fill-rule="nonzero"></path>
            <path d="M447.5,370.8 C455.5,376.6 477.2,378.8 486.7,376.3 C488.2,376 490.1,374.8 491.9,373.2 C487.9,362.8 485.2,353.9 485.2,353.9 L446.6,364.9 C446.6,364.9 446,366.1 445.1,368.3 C445.9,369.2 446.5,370.2 447.5,370.8 Z" id="Shape" fill="#625FE6" fill-rule="nonzero"></path>
            <path d="M494.3,231.2 C494.3,231.2 482.1,228.4 477.8,225.7 C467.4,219 453.9,197.2 446.6,187.1 C437.7,174.6 409.9,137.5 409.9,137.5 L397,152.3 C397,152.3 423,182.9 430.1,194.5 C439,209.2 457.6,256.6 457.6,256.6 C457.6,256.6 458.2,271.9 457.6,276.8 C455.5,296.4 438.6,334 441.1,353.6 C441.4,356.7 444.2,362.8 446.6,364.6 C454.6,370.4 475.7,372.6 485.2,370.1 C488,369.5 491.9,364.6 492.9,361.8 C497.2,352 488.6,330.9 490.8,320.5 C493.9,304 527.5,247.4 527.5,247.4 L494.3,231.2 Z" id="Shape" fill="#EF5B5B" fill-rule="nonzero"></path>
            <path d="M533.5,185.6 C531.1,186.8 528.6,187.7 526.8,188 C524.4,188.6 522.5,188.9 521.6,188.9 C519.2,189.2 517.3,189.2 515.5,189.2 C515.5,189.2 514.6,184.9 510.3,188 C509.7,188.6 510,190.4 509.1,191.4 C507,193.8 493.5,200 493.5,203.3 C493.2,208.2 499.6,210 529.6,224.7 C534.5,227.1 536.6,228.1 538.5,227.1 C544.2,224.2 539,203.4 533.5,185.6 Z" id="Shape" fill="url(#linearGradient-11)" fill-rule="nonzero"></path>
            <path d="M510.8,339.2 C510.8,339.2 529.2,335.5 538.3,322.7 C543.2,316 549,299.7 554.8,293.3 C556.9,290.9 565.8,286 565.8,286 C565.8,286 555.4,260.3 554.8,251.1 C553.9,234 567.7,187.1 538.3,185.3 C522.4,184.4 506.5,224.2 505.2,240.1 C504,255.4 513.5,285.4 514.4,300.4 C515.1,310.5 510.8,339.2 510.8,339.2 Z" id="Shape" fill="#513852" fill-rule="nonzero"></path>
            <polygon id="Shape" fill="#FFFFFF" fill-rule="nonzero" points="333.6 259.1 373.7 168.2 355.6 247.4"></polygon>
            <polygon id="Shape" fill="#B1BFCF" fill-rule="nonzero" points="378.9 260.3 355.6 247.4 373.7 168.2"></polygon>
            <polygon id="Shape" fill="#8491A1" fill-rule="nonzero" points="378.9 260.3 371.9 237.6 373.7 168.2"></polygon>
            <polygon id="Shape" fill="#FFFFFF" fill-rule="nonzero" points="371.9 237.6 398.5 223.9 373.7 168.2"></polygon>
            <polygon id="Shape" fill="#E8E8E8" fill-rule="nonzero" points="500.4 197.2 502.5 201.8 504.1 195.7"></polygon>
            <ellipse id="Oval" fill="#B1BFCF" fill-rule="nonzero" cx="394.2" cy="101.1" rx="46.2" ry="8"></ellipse>
            <path d="M324.7,459.8 C320.4,450.9 309.4,447.6 300.8,452.1 C291.9,456.4 288.6,467.4 293.1,476 C297.4,484.6 307.8,488.2 316.4,484 L315.5,482.2 L322.2,470.3 L326.5,471.2 C327.2,467.2 326.6,463.5 324.7,459.8 Z" id="Shape"></path>
            <path d="M293.2,476 C288.6,467.4 292,456.4 300.9,452.1 C309.5,447.5 320.5,450.9 324.8,459.8 C326,461.9 326.6,464.1 326.6,466.5 C326.9,469.3 328.7,471.4 331.5,472 C332.4,472.3 333,471.7 333.3,470.8 C333.9,466.2 333,461.3 330.5,456.7 C324.1,444.8 309.7,440.2 297.4,446.3 C285.5,452.4 280.6,467.1 287,479.4 C293.1,490.7 306.3,495.6 317.9,490.7 C318.5,490.4 318.8,489.8 318.5,488.9 C317.3,486.5 314.5,484.9 311.8,485.5 C304.5,486.8 296.6,483.1 293.2,476 Z" id="Shape" fill="#E99F2F" fill-rule="nonzero"></path>
            <path d="M172.9,432.9 C171.1,426.8 165.2,405.4 176.9,391 C181.2,385.5 186.7,383 187.9,382.1 C194.6,379 201.1,378.7 206,378.4 C214.9,378.1 216.1,379.9 220.4,378.4 C224.4,376.9 224.4,375 231.4,368.6 C237.2,363.1 234.2,358.2 238.4,357.3 C245.7,355.5 254,360.4 256.5,362.2 C267.5,370.2 284.7,404.1 265.4,417.6 C261.1,420.7 249.2,423.4 248.3,423.7 C242.2,425.5 239.4,431.7 237.6,435.3 C236.7,437.1 230.9,448.2 223.8,454.6 C221,457 211.9,465 192,461.3 C182.2,459.5 185.9,455.8 182.2,451.5 C176.6,444.8 174.5,437.8 172.9,432.9 Z" id="Shape" fill="#774C26" fill-rule="nonzero"></path>
            <path d="M162.8,428.3 C161,422.2 156.1,403.5 168,389.1 C172.3,383.6 177.8,381.1 179,380.2 C185.7,377.1 192.2,376.8 197.1,376.5 C206,376.2 207.2,378 211.5,376.5 C215.5,375 216.1,373.1 222.5,366.7 C228,360.9 231.4,358.7 236,357.5 C244.6,355.1 250.4,359 252.5,360.9 C260.5,367.6 269.6,386.9 269,399.8 C268.7,404.1 265.6,411.4 257.4,416 C254,417.8 247.9,420 241.8,421.2 C240.6,421.5 240.3,421.5 239.4,421.8 C233.3,423.6 230.5,429.8 228.7,433.4 C227.8,435.2 222,446.3 214.9,452.7 C212.1,455.1 204.2,462.8 193.2,461.9 C183.4,461.3 176.7,453.9 173.3,449.7 C167.7,442.4 164.1,432.9 162.8,428.3 Z" id="Shape" fill="#AE6032" fill-rule="nonzero"></path>
            <ellipse id="Oval" fill="#FFBA49" fill-rule="nonzero" transform="translate(233.918720, 393.072220) rotate(-32.595114) translate(-233.918720, -393.072220) " cx="233.91872" cy="393.07222" rx="14.4000284" ry="13.8000272"></ellipse>
            <ellipse id="Oval" fill="#774C26" fill-rule="nonzero" transform="translate(233.512310, 392.791950) rotate(-32.595114) translate(-233.512310, -392.791950) " cx="233.51231" cy="392.79195" rx="11.0000217" ry="10.7000211"></ellipse>
            <path d="M187.3,399.5 L192.2,396.4 C192.2,396.4 209,431.3 208.7,431.6 C208.4,431.9 202.9,435 202.9,435 L187.3,399.5 Z" id="Shape" fill="#774C26" fill-rule="nonzero"></path>
            <polygon id="Shape" fill="#774C26" fill-rule="nonzero" points="236 383 325 330.7 330.5 341.1 242.4 396.2"></polygon>
            <path d="M328.4,341.7 L367.9,325.2 C367.9,325.2 370,321.2 367.9,315.7 C366.1,311.1 359.9,310.8 359.9,310.8 L322.9,333.1 L328.4,341.7 Z" id="Shape" fill="#FFBA49" fill-rule="nonzero"></path>
            <path d="M328.1,339.6 L197.7,417.9 C197.4,417.9 197.4,418.2 197.7,418.5 C197.7,418.8 198,418.8 198.3,418.5 L328.7,340.2 C329,340.2 329,339.9 328.7,339.6 C328.4,339.6 328.1,339.6 328.1,339.6 Z" id="Shape" fill="#E99F2F" fill-rule="nonzero"></path>
            <path d="M328.1,339.6 L197.7,417.9 C197.4,417.9 197.4,418.2 197.7,418.5 C197.7,418.8 198,418.8 198.3,418.5 L328.7,340.2 C329,340.2 329,339.9 328.7,339.6 C328.4,339.6 328.1,339.6 328.1,339.6 Z" id="Shape" fill="#E99F2F" fill-rule="nonzero"></path>
            <path d="M326.9,338 L196.5,416.3 C196.2,416.3 196.2,416.6 196.5,416.9 C196.5,417.2 196.8,417.2 197.1,416.9 L327.5,338.6 C327.8,338.6 327.8,338.3 327.5,338 C327.5,337.7 327.2,337.7 326.9,338 Z" id="Shape" fill="#E99F2F" fill-rule="nonzero"></path>
            <path d="M326,336.2 L195.6,414.5 C195.3,414.5 195.3,414.8 195.6,415.1 C195.6,415.4 195.9,415.4 196.2,415.1 L326.6,336.8 C326.9,336.8 326.9,336.5 326.6,336.2 C326.6,336.2 326.3,336.2 326,336.2 Z" id="Shape" fill="#E99F2F" fill-rule="nonzero"></path>
            <path d="M325,334.7 L194.7,413 C194.4,413 194.4,413.3 194.7,413.6 C194.7,413.9 195,413.9 195.3,413.6 L325.7,335.3 C326,335.3 326,335 325.7,334.7 C325.3,334.7 325.3,334.3 325,334.7 Z" id="Shape" fill="#E99F2F" fill-rule="nonzero"></path>
            <path d="M324.1,332.8 L193.7,411.1 C193.4,411.1 193.4,411.4 193.7,411.7 C193.7,412 194,412 194.3,411.7 L324.7,333.4 C325,333.4 325,333.1 324.7,332.8 C324.4,332.8 324.1,332.8 324.1,332.8 Z" id="Shape" fill="#E99F2F" fill-rule="nonzero"></path>
            <polygon id="Shape" fill="#FFBA49" fill-rule="nonzero" points="190.7 409.6 197.4 405.4 204.2 420.3 197.1 424.3"></polygon>
            <polygon id="Shape" fill="#FFFFFF" fill-rule="nonzero" points="327.8 332.2 357.5 315.4 360.2 316.6 328.4 333.1"></polygon>
            <polygon id="Shape" fill="#FFFFFF" fill-rule="nonzero" points="329.9 335.6 361.5 319.4 361.2 322.4 330.5 336.8"></polygon>
            <g id="Group" transform="translate(323.000000, 338.000000)" fill-rule="nonzero">
                <ellipse id="Oval" fill="#716AF4" cx="50.4" cy="95.8" rx="49.9" ry="14.1"></ellipse>
                <polygon id="Shape" fill="#B1BFCF" points="61.1 19.9 86.5 6.4 86.5 90 61.1 103.5"></polygon>
                <polygon id="Shape" fill="#FFFFFF" points="13.7 13.5 44.9 0.3 86.5 6.4 61.1 19.9"></polygon>
                <polygon id="Shape" fill="#E8F3F3" points="13.7 13.5 61.1 19.9 61.1 103.5 13.1 94.3"></polygon>
                <circle id="Oval" stroke="#B1BFCF" stroke-width="1.6834" fill="#FFFFFF" cx="36.3" cy="74.7" r="17.1"></circle>
                <circle id="Oval" fill="url(#linearGradient-12)" cx="36.3" cy="74.4" r="12.2"></circle>
                <circle id="Oval" fill="#625FE6" cx="36" cy="74.1" r="8.3"></circle>
                <circle id="Oval" fill="#FFFFFF" cx="36.3" cy="38.6" r="12.5"></circle>
                <circle id="Oval" fill="#B1BFCF" cx="36.3" cy="38.6" r="8.9"></circle>
            </g>
            <path d="M291.7,476.4 C287.1,467.8 290.5,456.8 299.4,452.5 C308,447.9 319,451.3 323.3,460.2 C324.5,462.3 325.1,464.5 325.1,466.9 C325.4,469.7 327.2,471.8 330,472.4 C330.9,472.7 331.5,472.1 331.8,471.2 C332.4,466.6 331.5,461.7 329,457.1 C322.6,445.2 308.2,440.6 295.9,446.7 C284,452.8 279.1,467.5 285.5,479.8 C291.6,491.1 304.8,496 316.4,491.1 C317,490.8 317.3,490.2 317,489.3 C315.8,486.9 313,485.3 310.3,485.9 C303.3,487.1 295.4,483.7 291.7,476.4 Z" id="Shape" fill="url(#linearGradient-13)" fill-rule="nonzero"></path>
            <ellipse id="Oval" fill="#E99F2F" fill-rule="nonzero" transform="translate(297.521830, 452.183700) rotate(-32.167541) translate(-297.521830, -452.183700) " cx="297.52183" cy="452.1837" rx="14.4000865" ry="10.1000607"></ellipse>
            <ellipse id="Oval" fill="#FFFFFF" fill-rule="nonzero" transform="translate(296.281270, 450.306030) rotate(-32.167541) translate(-296.281270, -450.306030) " cx="296.28127" cy="450.30603" rx="10.1000607" ry="7.00004203"></ellipse>
            <path d="M295,450 L302.4,444.8" id="Shape" stroke="url(#linearGradient-14)" stroke-width="0.2744"></path>
            <path d="M295.4,450 L300.9,451.9" id="Shape" stroke="url(#linearGradient-15)" stroke-width="0.2508"></path>
            <path d="M329.6,465.6 C329.9,466.2 329.6,466.8 329,467.1 C328.4,467.1 327.8,466.8 327.8,466.2 C327.5,465.6 327.8,465 328.4,464.7 C329,464.4 329.3,465 329.6,465.6 Z" id="Shape" fill="url(#linearGradient-16)" fill-rule="nonzero"></path>
            <path d="M328.7,461.7 C329,462.3 328.7,462.9 328.1,463.2 C327.5,463.5 326.9,462.9 326.9,462.3 C326.6,461.7 326.9,461.1 327.5,460.8 C328.1,460.4 328.7,461 328.7,461.7 Z" id="Shape" fill="url(#linearGradient-17)" fill-rule="nonzero"></path>
            <path d="M326.6,457.7 C326.9,458.3 326.6,458.9 326,459.2 C325.4,459.2 324.8,458.9 324.8,458.3 C324.8,457.7 324.8,457.1 325.4,456.8 C326,456.5 326.6,456.8 326.6,457.7 Z" id="Shape" fill="url(#linearGradient-18)" fill-rule="nonzero"></path>
            <polygon id="Shape" fill="#AE6032" fill-rule="nonzero" points="323.5 447 318 453.7 319.5 454.9 325 448.5"></polygon>
            <polygon id="Shape" fill="url(#linearGradient-19)" fill-rule="nonzero" points="309.7 485.5 306.7 493.8 311.3 493.2 314.3 484.9"></polygon>
            <circle id="Oval" fill="#E99F2F" fill-rule="nonzero" cx="295" cy="449.7" r="1"></circle>
            <g id="Group-5" transform="translate(358.000000, 0.000000)" fill-rule="nonzero">
                <g id="Group">
                    <g id="shield-(1)">
                        <path d="M79.1773127,18.7523922 C79.2496267,18.7523922 42.5284244,4.44376789 41.5887094,4.07692308 C40.8659363,4.37036166 3.92779203,18.7523922 4.00010604,18.7523922 L4.00010604,45.7552628 C4.00010604,64.4665838 9.27701001,88.9013545 41.5887094,98 C73.8280947,88.9011682 79.1049987,64.0261464 79.1049987,45.7552628 C79.1773127,36.5098049 79.1773127,18.7523922 79.1773127,18.7523922 Z" id="Shape" fill="#333333"></path>
                        <path d="M75.9998933,14.6754691 C76.0722073,14.6754691 39.3510051,0.366844808 38.41129,0 C37.688517,0.293438585 0.750372671,14.6754691 0.822686683,14.6754691 L0.822686683,41.6783398 C0.822686683,60.3896607 6.09959066,84.8244314 38.41129,93.9230769 C70.6506753,84.8242451 75.9275793,59.9492234 75.9275793,41.6783398 C75.9998933,32.4328818 75.9998933,14.6754691 75.9998933,14.6754691 Z" id="Shape" fill="#16CCBB"></path>
                    </g>
                    <g id="Asset-151" transform="translate(13.564516, 21.576923)" fill="#D7F7F3">
                        <path d="M48.6534758,8.50551292 C48.0612742,12.7741148 45.7579219,20.8692134 36.8094451,22.3205381 L35.7590666,13.8321183 C35.7345172,13.6342619 35.5818124,13.4747399 35.3815988,13.4377992 C35.1813853,13.4008585 34.9797706,13.4950064 34.8832317,13.6705212 C33.9793452,15.344423 32.2401428,18.0122991 30.0053612,18.7623535 C29.4786135,17.3201758 28.9923849,15.2560019 28.1352511,13.274151 C27.5165376,11.7361315 26.5587431,10.3504941 25.3300859,9.21593024 C22.686997,6.91088521 18.3234067,6.05716483 10.599852,9.28300827 C9.48493143,11.0117647 8.54043777,12.8402343 7.77910262,14.7437697 C5.78120166,19.6709559 4.21654288,26.9397751 9.01025844,32.4279776 C8.74805782,31.4250805 8.62229816,30.3927202 8.63623642,29.3576332 C8.65775485,27.6762079 9.11916518,26.0281965 9.97648199,24.5707011 C8.58324997,27.4367623 8.86688333,30.6534588 10.2164795,33.6506271 C12.7909977,39.4193377 20.5176693,44.4227489 28.6058955,44.4227489 C31.624451,44.4408896 34.5979554,43.7063502 37.2458041,42.2884479 C37.2458041,42.2884479 40.3626543,43.6300085 43.1335341,36.1447102 C43.1335341,36.1447102 42.4478271,32.3456545 41.9241962,31.6657272 C41.9241962,31.6657272 50.7791676,17.4939689 49.5822971,8.49331692 C49.5519387,8.26289611 49.3498052,8.09135131 49.11233,8.09446951 C48.8748547,8.09758771 48.6775009,8.27437803 48.6534758,8.50551292 Z M26.430334,29.1167621 C25.68229,29.1777421 23.7716608,29.2905552 22.6090757,28.872842 C21.8074715,28.5711932 21.0337443,28.2029515 20.2963729,27.7721525 C20.2501212,27.7463484 20.2271568,27.6935241 20.2402416,27.6430354 C20.2533264,27.5925467 20.2992438,27.5568052 20.3524762,27.5556734 C21.7238903,27.4581053 22.5342713,26.2415538 23.4693264,26.5068169 C24.4043814,26.77208 23.9867235,28.3362177 26.4396846,29.003949 C26.4662992,29.0118989 26.4836654,29.0369035 26.4814165,29.0640364 C26.4791675,29.0911693 26.4579103,29.1131104 26.430334,29.1167621 Z M35.085827,15.6218821 L35.8432216,22.3083421 C34.7161207,22.2574318 33.6140306,21.9660535 32.6141648,21.4546217 C33.7892173,19.850847 34.814661,18.0671812 35.085827,15.6310291 L35.085827,15.6218821 Z M35.3164739,38.1540021 C34.253628,38.6296463 30.2297744,38.025944 30.6256144,37.6295739 C33.2468854,35.0409717 38.4302072,36.7636575 35.3164739,38.1631491 L35.3164739,38.1540021 Z M39.1782512,28.3606097 C39.1782512,28.3606097 44.7667636,23.9761458 48.8217857,12.4265287 C48.8217857,12.4265287 48.6098399,15.1706299 46.7334961,20.0490321 C45.3215629,23.6895397 42.803148,28.869793 41.0888804,30.9644569 C41.0888804,30.9644569 38.9787728,30.3546566 39.1782512,28.3697568 L39.1782512,28.3606097 Z" id="Shape"></path>
                        <path d="M33.9711589,0.709520264 C33.500815,-1.32011637 31.6774269,1.30572603 30.8623789,4.78147876 C30.3791488,6.82062932 25.2665749,9.10079923 25.2665749,9.10079923 L23.3851992,10.1980715 L24.609382,13.7911626 L28.1530691,13.3218092 C28.4687794,13.505745 38.3202293,19.3441216 33.9711589,0.709520264 Z M33.072351,12.5606954 C32.6914766,13.0365751 32.0985579,13.2994062 31.4841349,13.2647256 C30.1407553,13.2647256 28.7522743,12.4275005 28.7393882,12.4179866 C28.7265021,12.4084727 31.2006399,8.92954864 31.9158204,5.02249811 C32.1301191,3.8887092 32.5339978,2.79777006 33.1110094,1.79410734 C34.7056685,9.11031315 33.7875314,11.679072 33.072351,12.5606954 Z" id="Shape"></path>
                        <path d="M13.1541746,9.7161814 L13.1141301,9.7161814 C13.0941079,9.7161814 13.0640745,9.7161814 13.0240301,9.7161814 C12.9839856,9.7161814 12.8872115,9.7161814 12.7904374,9.7161814 L12.5201372,9.7161814 C12.462337,9.71912406 12.4044114,9.71912406 12.3466112,9.7161814 L12.1864333,9.7161814 L12.1397148,9.7161814 L12.0529518,9.7161814 L11.9194702,9.69723327 L11.8527295,9.69723327 L11.6725294,9.67196908 L11.552396,9.65302095 C11.4456107,9.63723083 11.3288144,9.61512467 11.2186921,9.58986049 L11.1419402,9.58986049 C10.9383809,9.54564817 10.7147993,9.49827782 10.4745325,9.43511737 C10.2943324,9.38774702 10.1041212,9.34037668 9.90723589,9.28037424 L9.60356537,9.18879158 L9.2698615,9.07826078 L8.60245375,8.84772511 L8.23204245,8.7087721 L7.84494596,8.56034502 C7.67141995,8.48455247 7.49121986,8.41823399 7.30768273,8.3361254 L6.97397885,8.19401437 L6.60690459,8.03611322 L6.38666004,7.94137253 L6.23983033,7.87189603 L6.16641548,7.8403158 L6.01958578,7.7708393 L5.75929676,7.64451838 L5.66252263,7.59399002 L5.42225585,7.47714317 L5.19200017,7.36029632 C5.01513712,7.26555563 4.8582963,7.17397297 4.68143325,7.07923228 C4.62804063,7.05081008 4.57464801,7.02238787 4.52459243,6.99080764 L4.40445903,6.91817311 C4.3410553,6.88343486 4.2809886,6.84553859 4.2209219,6.80764231 C4.16085521,6.76974604 4.0307107,6.69079547 3.94061065,6.63079303 C3.85051061,6.5707906 3.7637476,6.51394618 3.68032163,6.45394375 C3.59689566,6.39394131 3.51013266,6.3370969 3.4367178,6.28025249 C3.36330295,6.22340808 3.2465066,6.13814146 3.15640655,6.06550693 C3.06630651,5.99287241 2.98621758,5.9233959 2.90612865,5.8539194 C2.82603972,5.78444289 2.74595079,5.71496639 2.67587297,5.64548989 C2.60579516,5.57601338 2.53571735,5.50653688 2.46897657,5.43706038 C2.22597923,5.17826806 2.00818637,4.89922772 1.81825402,4.60334233 C1.72815398,4.46438932 1.64806505,4.32543631 1.57131316,4.18648331 C1.49456127,4.0475303 1.42782049,3.90857729 1.36107972,3.76646626 C1.23376047,3.48428376 1.04101957,3.23280742 0.797120172,3.03064693 C0.797120172,3.03064693 0.797120172,3.03064693 0.797120172,3.03064693 C0.761171326,3.00200329 0.723269665,2.97562946 0.683660855,2.95169635 C0.536136854,2.83744117 0.323954969,2.83744117 0.176430969,2.95169635 C-0.00710616139,3.13170366 -0.0838580521,3.53908861 0.126375388,4.07911053 C0.126375388,4.12016483 0.156408736,4.16437715 0.169756891,4.20858947 C0.183105046,4.25280179 0.186442085,4.25911783 0.193116162,4.28438202 C0.19979024,4.3096462 0.209801356,4.33491038 0.216475433,4.36017457 C0.223149511,4.38543875 0.24984582,4.47070537 0.266531014,4.5307078 C0.326597711,4.76755952 0.390001447,5.04862356 0.446731105,5.36126783 L0.48677557,5.60443559 C0.48677557,5.68654418 0.516808919,5.7718108 0.530157073,5.85707742 C0.556853383,6.00866252 0.580212654,6.17287971 0.606908964,6.3370969 C0.633605274,6.50131409 0.663638622,6.74763988 0.690334932,6.96870148 C0.717031242,7.18976308 0.743727552,7.35398027 0.763749784,7.55609374 C0.787109055,7.70452082 0.803794249,7.87189603 0.817142404,8.01084904 C0.817142404,8.05821938 0.817142404,8.1024317 0.817142404,8.14980205 C0.818769548,8.17398907 0.818769548,8.19824955 0.817142404,8.22243657 C0.817142404,8.2950711 0.837164636,8.3645476 0.843838714,8.43718213 L0.843838714,8.45297224 C0.843838714,8.45297224 0.843838714,8.46876236 0.843838714,8.47823643 C0.867197985,8.66455978 0.883883178,8.85404115 0.900568372,9.0403645 C0.90241063,9.0476301 0.90241063,9.05520507 0.900568372,9.06247066 C0.90241063,9.06973626 0.90241063,9.07731123 0.900568372,9.08457682 C0.937275798,9.46038155 0.967309147,9.82355418 0.990668418,10.1677787 C0.990668418,10.344628 1.01736473,10.5183192 1.0240388,10.6825364 C1.0240388,10.767803 1.0240388,10.8499116 1.040724,10.9288622 C1.05740919,11.0078128 1.040724,11.0078128 1.040724,11.045709 C1.040724,11.0836053 1.040724,11.1941361 1.040724,11.2667706 C1.040724,11.3394052 1.040724,11.3362472 1.040724,11.3709854 C1.040724,11.4057237 1.040724,11.5067804 1.040724,11.5699408 C1.04560342,11.6288002 1.04560342,11.6879308 1.040724,11.7467901 C1.040724,11.8067926 1.040724,11.860479 1.040724,11.9110073 C1.04879225,12.3536355 1.12870178,12.7924606 1.27765375,13.2121128 C1.30435006,13.2836946 1.33438341,13.3594872 1.36775379,13.4394904 C1.37976485,13.462918 1.38980703,13.4872046 1.39778714,13.5121249 L1.42782049,13.5879175 C1.4545168,13.6447619 1.47787607,13.7016063 1.51124646,13.7584507 C1.54461685,13.8152951 1.54461685,13.8247692 1.56463908,13.8595074 C1.61135762,13.9447741 1.6614132,14.0300407 1.71146878,14.1121493 L1.74483917,14.1689937 L1.89500591,14.3900553 C1.94839853,14.4626898 2.00179115,14.5321663 2.05852081,14.6016428 L2.08855416,14.6363811 C2.13860974,14.6963835 2.19200236,14.7563859 2.24873202,14.8132304 C2.2633831,14.8337031 2.28015094,14.8527451 2.2987876,14.8700748 L2.49567288,14.9837636 L2.59578404,15.0721882 C2.6722656,15.1405951 2.75366162,15.2039071 2.83938787,15.2616696 C2.88276938,15.2900918 2.92281384,15.321672 2.96619534,15.3469362 L3.04294723,15.3943066 L3.07965466,15.4132547 L3.21647325,15.4890473 C3.25985475,15.5143114 3.30657329,15.5364176 3.35329184,15.5585238 C3.40001038,15.5806299 3.51680673,15.6280003 3.59355862,15.6532645 L3.62025493,15.6532645 L3.7203661,15.6816867 L3.85384764,15.7164249 L3.90724026,15.7164249 C3.95313367,15.7292336 3.99998618,15.7387349 4.04739589,15.7448471 L4.16085521,15.7606372 L4.20089967,15.7606372 L4.3844368,15.7606372 C4.51791835,15.7606372 4.65473694,15.7606372 4.79489256,15.7606372 C4.85602527,15.763824 4.91729699,15.763824 4.97842969,15.7606372 C5.04517047,15.7606372 5.10857421,15.7606372 5.17197794,15.7606372 L5.31547061,15.7606372 L5.45896327,15.7606372 L5.5390522,15.7606372 C5.59949861,15.7563716 5.65965449,15.7489919 5.71925229,15.7385311 L5.7626338,15.7385311 L5.80935234,15.7385311 L6.27320072,15.6690546 C6.45673785,15.6374743 6.64027498,15.6058941 6.81046396,15.5679978 C6.90723808,15.5522077 6.99400109,15.5301016 7.08410113,15.5143114 L7.33437904,15.457467 L7.49121986,15.4195708 L7.65473475,15.3785165 C7.71120872,15.3681647 7.76693664,15.3544527 7.82158669,15.3374622 L7.96841639,15.2995659 L8.07186459,15.2711437 L8.1586276,15.2458795 L8.2020091,15.2458795 L8.42892774,15.182719 L8.5290389,15.1542968 L8.5724204,15.1385067 L8.61913894,15.1385067 L8.69922787,15.1132425 L8.76930569,15.0942944 C8.80118124,15.0799221 8.83480419,15.0693157 8.86941685,15.0627142 L8.90278724,15.0627142 L8.93282058,15.0627142 C8.99405875,15.0447844 9.05421523,15.0236994 9.11302068,14.9995537 L9.27987261,14.9237612 C9.33660227,14.8921809 9.39333193,14.8606007 9.45006159,14.8227044 C9.50679125,14.7848082 9.56685794,14.7437539 9.62692464,14.6995415 C9.68699134,14.6553292 9.80712473,14.5574305 9.89722478,14.4784799 C10.0340434,14.355317 10.1675249,14.2226801 10.3043435,14.077411 L10.4378251,13.932142 L10.5279251,13.8310852 L10.7047881,13.6194977 C10.7615178,13.5500212 10.8249215,13.4742287 10.8783142,13.4015941 C10.9317068,13.3289596 10.9984476,13.253167 11.0518402,13.1742165 L11.2220292,12.9405228 C11.2654107,12.8805203 11.3121292,12.8205179 11.3521737,12.7605155 C11.3845922,12.7206549 11.4136049,12.6784144 11.4389367,12.6341946 C11.4802282,12.5805801 11.5181149,12.5246898 11.552396,12.4668193 C11.6024516,12.3878688 11.6591812,12.3120762 11.7092368,12.2331257 L11.7392702,12.1889133 C11.7829698,12.1278938 11.8230753,12.0646371 11.8594035,11.999432 C11.9595147,11.8415308 12.0562888,11.6836297 12.1463889,11.5383606 L12.2765334,11.317299 L12.3933297,11.1183436 L12.5201372,10.897282 C12.6002261,10.764645 12.6669669,10.6446401 12.7270336,10.5277933 L12.8004485,10.3919983 L12.8004485,10.3635761 C12.8571781,10.2562033 12.9072337,10.1677787 12.9472782,10.0888281 C12.9873226,10.0098775 13.0607375,9.88039859 13.0840968,9.8267122 L13.104119,9.78565791 L13.1541746,9.7161814 Z M4.44116646,14.7532279 C3.16308063,14.6363811 2.23204682,13.0194734 2.23204682,11.9110073 C2.17095721,10.0216494 2.00275097,8.13675645 1.72815398,6.26446237 C2.62581739,7.70767884 3.06296947,8.91404359 5.31547061,11.2762447 C6.30752055,12.2861276 7.39924142,13.2040179 8.57575744,14.0174086 C8.55239817,14.0363567 5.47231143,14.8479686 4.44116646,14.7532279 Z" id="Shape"></path>
                    </g>
                </g>
            </g>
        </g>
    </g>
</svg>