<?xml version="1.0" encoding="UTF-8"?>
<svg width="1600px" height="476px" viewBox="0 0 1600 476" version="1.1" xmlns="http://www.w3.org/2000/svg" xmlns:xlink="http://www.w3.org/1999/xlink">
    <!-- Generator: Sketch 48.2 (47327) - http://www.bohemiancoding.com/sketch -->
    <title>Group</title>
    <desc>Created with Sketch.</desc>
    <defs>
        <linearGradient x1="-0.216043272%" y1="50%" x2="100.046553%" y2="50%" id="linearGradient-1">
            <stop stop-color="#EAA572" offset="0%"></stop>
            <stop stop-color="#E99B84" offset="100%"></stop>
        </linearGradient>
        <linearGradient x1="2.05954416e-13%" y1="50%" x2="100%" y2="50%" id="linearGradient-2">
            <stop stop-color="#EAA572" offset="0%"></stop>
            <stop stop-color="#E99B84" offset="100%"></stop>
        </linearGradient>
        <linearGradient x1="0.126318256%" y1="50%" x2="100.126414%" y2="50%" id="linearGradient-3">
            <stop stop-color="#36338E" offset="18.58%"></stop>
            <stop stop-color="#36338E" offset="37.8%"></stop>
        </linearGradient>
        <linearGradient x1="0.000372964752%" y1="49.999732%" x2="100.00041%" y2="49.999732%" id="linearGradient-4">
            <stop stop-color="#EAA572" offset="0%"></stop>
            <stop stop-color="#E99B84" offset="100%"></stop>
        </linearGradient>
        <linearGradient x1="-0.573006368%" y1="50.0001076%" x2="99.5559822%" y2="50.0001076%" id="linearGradient-5">
            <stop stop-color="#EAA572" offset="0%"></stop>
            <stop stop-color="#E99B84" offset="100%"></stop>
        </linearGradient>
        <linearGradient x1="-0.721271884%" y1="50%" x2="99.2784922%" y2="50%" id="linearGradient-6">
            <stop stop-color="#EAA572" offset="0%"></stop>
            <stop stop-color="#E99B84" offset="100%"></stop>
        </linearGradient>
        <linearGradient x1="93.7085924%" y1="39.74659%" x2="6.56874697%" y2="60.1881556%" id="linearGradient-7">
            <stop stop-color="#BAC2D0" offset="0%"></stop>
            <stop stop-color="#C3CAD6" offset="100%"></stop>
        </linearGradient>
        <linearGradient x1="93.5460542%" y1="39.8306605%" x2="6.45415281%" y2="60.1689508%" id="linearGradient-8">
            <stop stop-color="#BAC2D0" offset="0%"></stop>
            <stop stop-color="#C3CAD6" offset="100%"></stop>
        </linearGradient>
        <linearGradient x1="71.4111939%" y1="-119.378937%" x2="28.5380459%" y2="219.77892%" id="linearGradient-9">
            <stop stop-color="#BAC2D0" offset="0%"></stop>
            <stop stop-color="#C3CAD6" offset="100%"></stop>
        </linearGradient>
        <linearGradient x1="71.4843132%" y1="-117.021133%" x2="28.561012%" y2="216.661909%" id="linearGradient-10">
            <stop stop-color="#BAC2D0" offset="0%"></stop>
            <stop stop-color="#C3CAD6" offset="100%"></stop>
        </linearGradient>
        <linearGradient x1="39.799853%" y1="6.51831726%" x2="60.2414186%" y2="93.6581627%" id="linearGradient-11">
            <stop stop-color="#BAC2D0" offset="0%"></stop>
            <stop stop-color="#C3CAD6" offset="100%"></stop>
        </linearGradient>
        <linearGradient x1="39.815082%" y1="6.44564797%" x2="60.2225418%" y2="93.7154036%" id="linearGradient-12">
            <stop stop-color="#BAC2D0" offset="0%"></stop>
            <stop stop-color="#C3CAD6" offset="100%"></stop>
        </linearGradient>
        <linearGradient x1="-117.366362%" y1="28.526966%" x2="216.80388%" y2="71.400114%" id="linearGradient-13">
            <stop stop-color="#BAC2D0" offset="0%"></stop>
            <stop stop-color="#C3CAD6" offset="100%"></stop>
        </linearGradient>
        <linearGradient x1="-119.86386%" y1="28.5273651%" x2="218.891632%" y2="71.34965%" id="linearGradient-14">
            <stop stop-color="#BAC2D0" offset="0%"></stop>
            <stop stop-color="#C3CAD6" offset="100%"></stop>
        </linearGradient>
        <linearGradient x1="97.404108%" y1="24.8539608%" x2="3.716031%" y2="74.3843388%" id="linearGradient-15">
            <stop stop-color="#BAC2D0" offset="0%"></stop>
            <stop stop-color="#C3CAD6" offset="100%"></stop>
        </linearGradient>
        <linearGradient x1="93.5702558%" y1="39.7789511%" x2="6.57579912%" y2="60.186411%" id="linearGradient-16">
            <stop stop-color="#BAC2D0" offset="0%"></stop>
            <stop stop-color="#C3CAD6" offset="100%"></stop>
        </linearGradient>
        <linearGradient x1="93.5302658%" y1="39.8666441%" x2="6.25988557%" y2="60.1823238%" id="linearGradient-17">
            <stop stop-color="#BAC2D0" offset="0%"></stop>
            <stop stop-color="#C3CAD6" offset="100%"></stop>
        </linearGradient>
        <linearGradient x1="71.4111703%" y1="-119.378059%" x2="28.5380223%" y2="219.779797%" id="linearGradient-18">
            <stop stop-color="#BAC2D0" offset="0%"></stop>
            <stop stop-color="#C3CAD6" offset="100%"></stop>
        </linearGradient>
        <linearGradient x1="71.4841951%" y1="-117.019432%" x2="28.5610476%" y2="216.662415%" id="linearGradient-19">
            <stop stop-color="#BAC2D0" offset="0%"></stop>
            <stop stop-color="#C3CAD6" offset="100%"></stop>
        </linearGradient>
        <linearGradient x1="39.8304697%" y1="6.45438498%" x2="60.1686873%" y2="93.545975%" id="linearGradient-20">
            <stop stop-color="#BAC2D0" offset="0%"></stop>
            <stop stop-color="#C3CAD6" offset="100%"></stop>
        </linearGradient>
        <linearGradient x1="39.866205%" y1="6.46989715%" x2="60.1819574%" y2="93.7405897%" id="linearGradient-21">
            <stop stop-color="#BAC2D0" offset="0%"></stop>
            <stop stop-color="#C3CAD6" offset="100%"></stop>
        </linearGradient>
        <linearGradient x1="-117.366163%" y1="28.5270563%" x2="216.804078%" y2="71.4002043%" id="linearGradient-22">
            <stop stop-color="#BAC2D0" offset="0%"></stop>
            <stop stop-color="#C3CAD6" offset="100%"></stop>
        </linearGradient>
        <linearGradient x1="-119.377135%" y1="28.5887403%" x2="219.37957%" y2="71.4111784%" id="linearGradient-23">
            <stop stop-color="#BAC2D0" offset="0%"></stop>
            <stop stop-color="#C3CAD6" offset="100%"></stop>
        </linearGradient>
        <linearGradient x1="0.451617355%" y1="50.0003113%" x2="100.451566%" y2="50.0003113%" id="linearGradient-24">
            <stop stop-color="#36338E" offset="18.58%"></stop>
            <stop stop-color="#36338E" offset="37.8%"></stop>
        </linearGradient>
        <linearGradient x1="-5.13478261%" y1="50%" x2="104.7%" y2="50%" id="linearGradient-25">
            <stop stop-color="#36338E" offset="18.58%"></stop>
            <stop stop-color="#36338E" offset="37.8%"></stop>
        </linearGradient>
        <linearGradient x1="-2.76470588%" y1="30%" x2="105.405882%" y2="30%" id="linearGradient-26">
            <stop stop-color="#36338E" offset="18.58%"></stop>
            <stop stop-color="#36338E" offset="37.8%"></stop>
        </linearGradient>
        <linearGradient x1="-1.14%" y1="41.3298632%" x2="64.77%" y2="41.3298632%" id="linearGradient-27">
            <stop stop-color="#8E8DFF" offset="0%"></stop>
            <stop stop-color="#9391FF" offset="12.51%"></stop>
        </linearGradient>
        <linearGradient x1="-4.17695155%" y1="41.3298632%" x2="61.7330485%" y2="41.3298632%" id="linearGradient-28">
            <stop stop-color="#8E8DFF" offset="0%"></stop>
            <stop stop-color="#9391FF" offset="12.51%"></stop>
        </linearGradient>
        <linearGradient x1="-4.27695155%" y1="40%" x2="61.6330485%" y2="40%" id="linearGradient-29">
            <stop stop-color="#8E8DFF" offset="0%"></stop>
            <stop stop-color="#9391FF" offset="12.51%"></stop>
        </linearGradient>
        <linearGradient x1="0.136265462%" y1="49.9997644%" x2="99.2378602%" y2="49.9997644%" id="linearGradient-30">
            <stop stop-color="#36338E" offset="18.58%"></stop>
            <stop stop-color="#36338E" offset="37.8%"></stop>
        </linearGradient>
    </defs>
    <g id="What-we-cover" stroke="none" stroke-width="1" fill="none" fill-rule="evenodd" transform="translate(0.000000, -526.000000)">
        <g id="Group" transform="translate(0.000000, 526.000000)">
            <path d="M-5.06261699e-14,254.777557 C9.62549873,256.415539 20.2803178,258.244033 32.7191011,260.288764 C133.689888,276.669663 127.782022,283.383146 157.858427,283.651685 C264.468539,284.725843 276.552809,200.135955 414.044944,176.235955 C436.333708,172.207865 495.14382,162.540449 564.426966,180.801124 C614.375281,193.959551 641.766292,206.04382 683.121348,215.442697 C759.117978,232.629213 763.146067,197.182022 849.61573,194.765169 C913.52809,192.885393 922.389888,211.951685 1014.23034,230.21236 C1043.50112,236.120225 1136.68427,252.769663 1250.81348,241.491011 C1439.59663,222.693258 1497.06404,179.189888 1519.88989,169.522472 C1527.22311,166.419953 1560.0325,163.687728 1599.99995,162.414769 L1600,321.454713 C1564.19387,322.894802 1531.41198,329.786266 1511.02809,347.295506 C1443.08764,405.837079 1452.21798,421.14382 1066.32697,370.658427 C1011.81348,363.676404 900.369663,347.295506 865.191011,351.323596 C836.188764,354.546067 750.524719,354.277528 708.364045,401.003371 C626.996629,491.501124 578.659551,485.593258 551.537079,457.12809 C509.376404,412.819101 598.262921,417.38427 600.679775,361.259551 C603.633708,288.753933 519.04382,291.976404 432.842697,325.81236 C349.864045,358.305618 275.747191,424.903371 232.780899,428.662921 C179.855847,433.204345 81.9399025,386.619754 -3.09162188e-05,352.09303 L0,254.777557 Z" id="Combined-Shape" fill="#FFF7EE" fill-rule="nonzero"></path>
            <path d="M1410.32584,364.213483 C1410.32584,364.213483 1405.2236,388.919101 1400.92697,395.901124 C1399.58427,398.049438 1393.94494,402.614607 1393.94494,402.614607 C1393.94494,402.614607 1374.87865,391.067416 1367.89663,388.382022 C1363.33146,386.770787 1353.39551,385.696629 1348.83034,384.085393 C1342.38539,381.668539 1324.93034,370.926966 1324.93034,370.926966 C1324.93034,370.926966 1326.27303,363.139326 1328.15281,361.796629 C1334.86629,357.231461 1352.58989,363.944944 1360.37753,362.333708 C1366.01685,360.991011 1377.29551,356.157303 1381.59213,352.129213 C1382.66629,351.055056 1384.27753,346.489888 1386.42584,347.832584 C1388.57416,349.175281 1410.32584,364.213483 1410.32584,364.213483 Z" id="Shape" fill="#E5E6E9" fill-rule="nonzero"></path>
            <polygon id="Shape" fill="#C14D4D" fill-rule="nonzero" points="1315.26292 106.41573 1339.7 104.267416 1364.13708 91.9146067 1346.41348 74.4595506"></polygon>
            <path d="M0,244.663591 L0,148.439882 C98.416874,164.529765 92.8497094,171.135907 122.679775,171.402247 C229.289888,172.476404 241.374157,87.8865169 378.866292,63.9865169 C401.155056,59.958427 459.965169,50.2910112 529.248315,68.5516854 C579.196629,81.7101124 606.58764,93.794382 647.942697,103.193258 C723.939326,120.379775 727.967416,84.9325843 814.437079,82.5157303 C878.349438,80.6359551 887.211236,99.7022472 979.051685,117.962921 C1008.32247,123.870787 1101.50562,140.520225 1215.63483,129.241573 C1336.87427,117.35873 1495.66403,89.1304563 1600,67.8587911 L1600,144.447099 C1541.37726,151.292811 1491.73073,168.758116 1476.9236,181.069663 C1404.41798,241.759551 1327.34719,279.892135 941.45618,229.406742 C859.283146,218.665169 813.362921,229.406742 779.258427,234.777528 C753.478652,238.805618 739.783146,239.611236 692.251685,228.064045 C683.121348,225.91573 673.453933,223.230337 662.71236,220.007865 C631.830337,210.608989 607.124719,202.821348 586.447191,196.913483 C514.210112,176.235955 488.161798,177.847191 397.395506,213.562921 C314.416854,246.05618 240.3,312.653933 197.333708,316.413483 C151.412672,320.36695 72.6015551,281.873271 7.10542736e-15,244.663591 Z" id="Combined-Shape" fill="#FFFCF8" fill-rule="nonzero"></path>
            <path d="M1320.09663,112.860674 C1324.12472,146.42809 1352.58989,188.051685 1355.81236,190.2 C1381.3236,207.386517 1433.9573,211.146067 1433.9573,211.146067 L1434.49438,197.719101 C1434.49438,197.719101 1429.1236,195.033708 1414.08539,188.588764 C1400.65843,182.680899 1388.03708,182.949438 1378.10112,178.11573 C1363.86854,171.133708 1353.93258,92.7202247 1337.28315,84.6640449 C1327.61573,79.8303371 1318.21685,95.1370787 1320.09663,112.860674 Z" id="Shape" fill="#16CCBB" fill-rule="nonzero"></path>
            <polygon id="Shape" fill="#15B7A4" fill-rule="nonzero" points="1336.47753 98.0910112 1356.34944 144.279775 1367.89663 160.392135 1357.4236 127.361798 1339.43146 79.0247191"></polygon>
            <path d="M1332.44944,95.6741573 C1347.48764,123.602247 1376.22135,157.706742 1381.3236,159.317978 C1401.73258,164.957303 1456.51461,160.929213 1456.51461,160.929213 L1467.52472,152.067416 C1467.52472,152.067416 1421.87303,144.011236 1403.07528,142.131461 C1386.69438,140.520225 1386.1573,119.842697 1370.31348,92.4516854 C1366.28539,85.2011236 1353.93258,62.9123596 1347.48764,65.0606742 C1340.23708,68.0146067 1324.6618,81.1730337 1332.44944,95.6741573 Z" id="Shape" fill="#16CCBB" fill-rule="nonzero"></path>
            <path d="M1381.3236,159.317978 L1386.96292,157.169663 L1390.18539,154.48427 L1444.96742,158.24382 L1434.22584,162.003371 C1434.22584,162.003371 1409.25169,162.540449 1400.65843,162.003371 C1395.55618,161.466292 1381.3236,159.317978 1381.3236,159.317978 Z" id="Shape" fill="#15B7A4" fill-rule="nonzero"></path>
            <path d="M1319.55955,101.582022 L1320.09663,104.535955 C1320.09663,104.535955 1338.08876,99.7022472 1343.45955,97.2853933 C1354.7382,92.1831461 1361.98876,77.6820225 1361.98876,77.6820225 L1357.96067,72.311236 L1327.07865,84.9325843 L1319.55955,101.582022 Z" id="Shape" fill="#FFBA49" fill-rule="nonzero"></path>
            <path d="M-2.84217094e-14,322.997095 L-2.84217094e-14,234.040488 C8.67891643,236.500006 16.2728051,238.36079 22.2460674,239.342697 C123.216854,255.723596 117.308989,262.437079 147.385393,262.705618 C253.995506,263.779775 266.079775,179.189888 403.57191,155.289888 C425.860674,151.261798 484.670787,141.594382 553.953933,159.855056 C603.902247,173.013483 631.293258,185.097753 672.648315,194.496629 C748.644944,211.683146 752.673034,176.235955 839.142697,173.819101 C903.055056,171.939326 911.916854,191.005618 1003.7573,209.266292 C1033.02809,215.174157 1126.21124,231.823596 1240.34045,220.544944 C1361.23482,208.695922 1505.62945,180.594383 1600,159.343962 L1600,238.958062 C1552.43816,247.191356 1514.21739,261.536643 1501.62921,272.104494 C1429.1236,332.794382 1352.05281,370.926966 966.161798,320.441573 C883.988764,309.7 838.068539,320.441573 803.964045,325.81236 C778.18427,329.840449 764.488764,330.646067 716.957303,319.098876 C707.826966,316.950562 698.159551,314.265169 687.417978,311.042697 C656.535955,301.64382 631.830337,293.85618 611.152809,287.948315 C538.91573,267.270787 512.867416,268.882022 422.101124,304.597753 C339.122472,337.091011 265.005618,403.688764 222.039326,407.448315 C170.845189,411.855757 78.7737669,363.50796 -9.52127266e-13,322.997095 Z" id="Combined-Shape" fill="#FFFCF8" fill-rule="nonzero"></path>
            <path d="M229.826966,320.710112 C229.558427,321.247191 229.558427,321.51573 229.289888,321.78427 C229.558427,320.710112 229.826966,319.904494 230.364045,318.830337 C230.364045,318.561798 230.632584,318.024719 230.632584,317.75618 C230.901124,316.950562 231.169663,316.413483 231.706742,315.876404 C231.975281,315.607865 231.975281,315.339326 232.24382,315.070787 C232.51236,314.802247 246.744944,285.262921 247.013483,284.994382 C247.013483,284.994382 258.023596,281.503371 259.903371,284.457303 C260.17191,284.725843 240.837079,322.321348 241.105618,322.589888 C241.374157,322.858427 242.985393,318.830337 242.985393,319.098876 L240.837079,320.173034 C241.105618,320.173034 231.706742,316.413483 229.826966,320.710112 Z" id="Shape" fill="#D39C74" fill-rule="nonzero"></path>
            <path d="M229.021348,322.589888 C229.289888,321.247191 231.438202,314.802247 232.24382,312.922472 C231.706742,313.996629 243.253933,316.144944 246.207865,315.876404 C246.744944,315.876404 245.402247,319.098876 245.402247,319.098876 C253.458427,331.720225 270.376404,331.183146 268.765169,337.359551 C268.22809,338.970787 263.394382,339.507865 263.125843,339.507865 C256.949438,339.776404 255.875281,340.044944 249.430337,337.359551 C239.494382,333.6 230.901124,331.988764 228.752809,327.960674 C228.21573,326.617978 228.48427,326.080899 229.021348,322.589888 Z" id="Shape" fill="#15B7A4" fill-rule="nonzero"></path>
            <path d="M229.021348,326.886517 C231.975281,330.377528 240.031461,331.183146 249.967416,334.942697 C256.680899,337.62809 257.755056,337.359551 263.662921,337.091011 C263.931461,337.091011 267.691011,336.822472 269.033708,335.748315 C269.302247,336.285393 269.302247,336.822472 269.033708,337.359551 C268.496629,338.970787 263.662921,339.507865 263.394382,339.507865 C257.217978,339.776404 256.14382,340.044944 249.698876,337.359551 C239.762921,333.6 231.169663,331.988764 228.752809,327.960674 C228.21573,327.155056 228.21573,326.617978 228.48427,325.54382 C228.752809,326.080899 228.752809,326.349438 229.021348,326.886517 Z" id="Shape" fill="#3D5450" fill-rule="nonzero"></path>
            <path d="M260.977528,330.377528 C260.977528,330.377528 258.292135,331.183146 257.755056,331.720225 C256.680899,332.794382 255.606742,337.359551 255.606742,337.359551 L268.22809,337.896629 C268.22809,337.896629 269.302247,336.016854 269.302247,335.479775 C268.22809,333.062921 260.977528,330.377528 260.977528,330.377528 Z" id="Shape" fill="#FFFFFF" fill-rule="nonzero"></path>
            <path d="M177.730337,328.766292 C177.461798,329.034831 177.193258,329.303371 176.924719,329.840449 C177.461798,329.034831 178.267416,328.229213 178.804494,327.423596 C179.073034,327.155056 179.341573,326.886517 179.610112,326.617978 C180.147191,326.080899 180.68427,325.54382 181.221348,325.275281 C181.489888,325.006742 181.758427,325.006742 182.026966,324.469663 C182.295506,324.201124 202.435955,300.838202 202.704494,300.838202 C202.704494,300.838202 216.937079,301.106742 217.474157,304.597753 C217.474157,304.866292 187.666292,334.405618 187.934831,334.674157 C187.934831,334.942697 190.888764,331.720225 190.888764,331.988764 L188.47191,332.525843 C188.740449,331.988764 180.68427,325.275281 177.730337,328.766292 Z" id="Shape" fill="#D39C74" fill-rule="nonzero"></path>
            <path d="M176.38764,330.646067 C177.193258,329.57191 181.221348,323.932584 182.564045,322.589888 C181.758427,323.395506 191.962921,329.303371 194.916854,329.840449 C195.453933,329.840449 193.305618,332.794382 193.305618,332.794382 C196.796629,347.564045 212.908989,352.397753 209.686517,357.5 C208.880899,358.842697 204.047191,357.768539 203.510112,357.768539 C197.602247,356.157303 196.52809,355.888764 191.157303,351.323596 C183.101124,344.610112 175.313483,340.313483 174.507865,335.748315 C174.239326,333.868539 174.776404,333.331461 176.38764,330.646067 Z" id="Shape" fill="#15B7A4" fill-rule="nonzero"></path>
            <path d="M175.044944,334.405618 C176.65618,338.702247 184.175281,342.193258 192.231461,348.906742 C197.602247,353.47191 198.676404,353.740449 204.58427,355.351685 C204.852809,355.351685 208.61236,356.425843 210.223596,355.888764 C210.223596,356.425843 210.223596,356.962921 209.686517,357.5 C208.880899,358.842697 204.047191,357.768539 203.510112,357.768539 C197.602247,356.157303 196.52809,355.888764 191.157303,351.323596 C183.101124,344.610112 175.313483,340.313483 174.507865,335.748315 C174.239326,334.942697 174.507865,334.405618 175.044944,333.6 C174.776404,333.6 174.776404,334.137079 175.044944,334.405618 Z" id="Shape" fill="#3D5450" fill-rule="nonzero"></path>
            <path d="M204.047191,347.832584 C204.047191,347.832584 201.361798,347.564045 200.55618,348.101124 C199.213483,348.906742 196.52809,352.666292 196.52809,352.666292 L208.34382,357.231461 C208.34382,357.231461 209.955056,355.888764 209.955056,355.351685 C209.955056,352.934831 204.047191,347.832584 204.047191,347.832584 Z" id="Shape" fill="#FFFFFF" fill-rule="nonzero"></path>
            <path d="M1243.83146,36.5955056 C1243.83146,36.5955056 1241.14607,43.8460674 1240.87753,46.2629213 C1240.34045,51.0966292 1241.68315,66.1348315 1241.68315,66.1348315 L1261.01798,71.2370787 L1262.62921,59.958427 C1262.62921,59.958427 1249.20225,35.5213483 1248.66517,35.5213483 C1248.12809,35.5213483 1243.83146,36.5955056 1243.83146,36.5955056 Z" id="Shape" fill="#EF5B5B" fill-rule="nonzero"></path>
            <path d="M1269.61124,145.353933 L1267.73146,134.34382 L1267.19438,133.001124 C1267.19438,124.944944 1264.24045,108.832584 1261.8236,90.8404494 C1260.21236,78.2191011 1257.52697,57.541573 1258.60112,48.1426966 C1260.4809,32.5674157 1263.16629,25.3168539 1260.21236,23.705618 C1256.45281,21.288764 1251.08202,28.2707865 1244.36854,38.2067416 C1238.99775,45.994382 1243.56292,69.6258427 1248.66517,84.9325843 C1257.25843,111.249438 1259.67528,126.55618 1260.4809,133.269663 C1259.40674,142.131461 1255.37865,150.45618 1255.37865,153.141573 C1255.37865,156.632584 1258.86966,162.27191 1262.36067,162.540449 C1263.70337,162.540449 1268.80562,159.586517 1268.80562,158.51236 C1268.80562,157.169663 1264.24045,154.21573 1263.97191,152.604494 C1263.43483,147.233708 1266.38876,144.816854 1266.38876,144.816854 C1266.38876,144.816854 1268.80562,150.724719 1270.68539,152.067416 C1271.49101,152.335955 1269.61124,145.353933 1269.61124,145.353933 Z" id="Shape" fill="#D39C74" fill-rule="nonzero"></path>
            <path d="M1248.66517,36.058427 C1248.39663,35.7898876 1248.39663,35.7898876 1248.66517,36.058427 C1247.85955,35.7898876 1243.83146,36.5955056 1243.83146,36.5955056 C1243.83146,36.5955056 1241.14607,43.8460674 1240.87753,46.2629213 C1240.34045,51.0966292 1241.68315,66.1348315 1241.68315,66.1348315 L1253.76742,69.3573034 C1252.42472,64.7921348 1248.66517,52.1707865 1248.12809,47.3370787 C1247.85955,44.9202247 1248.39663,38.4752809 1248.66517,36.058427 Z" id="Shape" fill="#EF5B5B" fill-rule="nonzero"></path>
            <path d="M1262.36067,60.2269663 C1262.36067,60.2269663 1250.54494,38.7438202 1248.66517,36.058427 C1248.39663,38.4752809 1248.12809,44.9202247 1248.39663,47.3370787 C1248.93371,52.1707865 1252.69326,64.7921348 1254.03596,69.3573034 L1261.01798,71.2370787 L1262.36067,60.2269663 Z" id="Shape" fill="#C14D4D" fill-rule="nonzero"></path>
            <path d="M254.801124,125.750562 C245.670787,123.333708 230.901124,134.61236 223.382022,148.576404 C216.668539,161.197753 215.325843,173.819101 213.446067,194.765169 C207.001124,270.761798 217.205618,261.362921 207.806742,273.178652 C202.167416,280.429213 184.980899,316.950562 184.980899,316.950562 C184.980899,316.950562 195.722472,327.692135 198.139326,325.81236 C208.61236,317.48764 232.51236,286.605618 250.773034,250.889888 C263.394382,226.452809 247.550562,206.580899 249.161798,206.580899 C250.504494,206.580899 277.895506,215.711236 273.330337,237.731461 C267.691011,266.465169 255.875281,253.306742 235.734831,300.838202 C235.197753,301.91236 245.670787,312.116854 249.161798,309.162921 C256.949438,301.91236 277.358427,279.892135 293.202247,239.611236 C307.166292,203.895506 300.721348,187.783146 292.933708,173.013483 C287.831461,163.614607 279.238202,165.225843 268.765169,150.45618 C258.560674,135.686517 261.783146,127.630337 254.801124,125.750562 Z" id="Shape" fill="#3D5450" fill-rule="nonzero"></path>
            <path d="M-7.99360578e-15,182.432977 C7.09250813,183.677514 14.786536,185.072391 23.3202247,186.708989 C124.022472,205.775281 117.846067,212.488764 147.922472,213.562921 C254.264045,216.785393 268.496629,129.241573 406.257303,107.489888 C428.546067,103.998876 487.893258,95.1370787 556.639326,115.546067 C606.319101,130.31573 633.173034,143.205618 674.52809,153.947191 C749.98764,173.550562 802.08427,137.029213 888.553933,136.223596 C952.466292,135.686517 932.862921,155.289888 1024.43483,175.967416 C1053.70562,182.680899 1127.28539,202.552809 1241.41461,193.153933 C1430.73483,177.847191 1487.66517,138.37191 1511.56517,130.58427 C1542.44458,120.537887 1572.15792,112.740342 1600,106.748836 L1600,210.490966 C1583.18194,213.501709 1565.66782,217.985897 1547.54944,224.304494 C1529.02022,230.749438 1497.60112,248.204494 1472.89551,258.677528 C1399.04719,290.096629 1351.24719,312.385393 966.430337,251.964045 C811.214607,227.526966 829.206742,283.920225 688.223596,236.388764 C550.194382,189.931461 540.526966,195.302247 422.638202,240.416854 C339.122472,272.104494 258.560674,290.902247 215.594382,293.85618 C151.450377,298.301804 115.676933,293.401832 -7.10542736e-15,262.316557 L0,182.432977 Z" id="Combined-Shape" fill="#FFF7EE" fill-rule="nonzero"></path>
            <polygon id="Shape" fill="#C14D4D" fill-rule="nonzero" points="613.032584 378.446067 634.51573 333.6 645.794382 319.904494 598.262921 339.507865"></polygon>
            <polygon id="Shape" fill="#29C3D3" fill-rule="nonzero" points="147.922472 258.408989 153.024719 242.565169 132.078652 253.306742"></polygon>
            <polygon id="Shape" fill="#31FFE6" fill-rule="nonzero" points="132.078652 253.306742 153.024719 242.565169 147.116854 240.685393 133.958427 247.398876"></polygon>
            <path d="M144.968539,254.11236 C135.838202,258.677528 132.347191,269.68764 137.180899,278.817978 C142.014607,287.948315 152.75618,291.439326 161.886517,286.605618 C171.016854,282.040449 174.507865,271.030337 169.674157,261.9 C164.840449,253.038202 153.830337,249.547191 144.968539,254.11236 Z M159.469663,282.308989 C153.024719,285.8 144.7,283.114607 141.477528,276.401124 C137.986517,269.95618 140.67191,261.631461 147.385393,258.408989 C153.830337,254.917978 162.155056,257.603371 165.377528,264.316854 C168.6,270.761798 165.914607,278.817978 159.469663,282.308989 Z" id="Shape" fill="#FFBA49" fill-rule="nonzero"></path>
            <polygon id="Shape" fill="#FFFFFF" fill-rule="nonzero" points="372.958427 196.644944 411.62809 160.392135 439.824719 173.550562 406.794382 218.933708"></polygon>
            <polygon id="Shape" fill="#FFFFFF" fill-rule="nonzero" points="472.855056 160.392135 458.353933 166.3 439.824719 173.550562 406.794382 218.933708 443.58427 207.117978"></polygon>
            <path d="M618.403371,329.57191 C618.403371,329.57191 639.617978,353.740449 639.617978,363.944944 C639.886517,385.159551 596.114607,436.719101 596.114607,436.719101 L597.188764,426.246067 C597.188764,426.246067 607.661798,395.095506 614.64382,386.502247 C617.329213,383.011236 624.579775,378.177528 624.848315,372.269663 C625.385393,360.722472 598.8,335.479775 599.874157,333.6 C600.948315,331.988764 618.403371,329.57191 618.403371,329.57191 Z" id="Shape" fill="url(#linearGradient-1)" fill-rule="nonzero"></path>
            <path d="M613.301124,330.377528 C613.301124,330.377528 642.57191,334.674157 649.285393,340.044944 C653.044944,343.267416 656.267416,353.740449 658.41573,358.305618 C662.44382,366.630337 678.824719,388.919101 678.824719,388.919101 L685.538202,387.576404 C685.538202,387.576404 667.546067,337.62809 655.730337,326.886517 C646.331461,318.293258 611.421348,312.653933 611.421348,312.653933 L613.301124,330.377528 Z" id="Shape" fill="url(#linearGradient-2)" fill-rule="nonzero"></path>
            <path d="M592.355056,451.757303 C595.308989,456.591011 596.920225,458.739326 599.874157,460.350562 C600.679775,460.88764 599.605618,445.31236 598.8,440.747191 C598.262921,437.793258 597.725843,428.125843 597.725843,428.125843 L593.966292,427.051685 C593.966292,427.051685 592.086517,426.246067 589.938202,427.320225 C580.807865,432.153933 580.807865,431.616854 592.355056,451.757303 Z" id="Shape" fill="#B2B6D3" fill-rule="nonzero"></path>
            <path d="M589.401124,443.164045 C591.280899,448.266292 597.457303,458.202247 600.142697,459.276404 C604.976404,460.88764 599.874157,444.775281 599.337079,440.478652 C599.068539,437.524719 600.679775,432.691011 600.679775,432.691011 L597.188764,424.634831 C597.188764,424.634831 592.892135,425.440449 589.938202,427.051685 C581.076404,431.616854 586.98427,436.719101 589.401124,443.164045 Z" id="Shape" fill="#FFBA49" fill-rule="nonzero"></path>
            <path d="M597.188764,435.376404 L600.679775,437.524719 C600.948315,437.524719 600.948315,438.061798 600.948315,438.330337 L600.679775,439.135955 C600.679775,439.404494 600.411236,439.404494 600.142697,439.404494 L596.651685,437.25618 C596.383146,437.25618 596.383146,436.719101 596.383146,436.450562 L596.651685,435.644944 C596.651685,435.376404 596.920225,435.376404 597.188764,435.376404 Z" id="Shape" fill="#FFFFFF" fill-rule="nonzero"></path>
            <path d="M692.520225,398.586517 C706.21573,395.901124 707.558427,393.21573 709.438202,390.530337 C709.975281,389.724719 696.548315,387.844944 691.983146,387.576404 C689.029213,387.307865 679.630337,386.502247 679.630337,386.502247 L677.750562,388.650562 C677.750562,388.650562 676.944944,392.410112 677.482022,394.826966 C679.093258,402.883146 685.269663,399.660674 692.520225,398.586517 Z" id="Shape" fill="#B2B6D3" fill-rule="nonzero"></path>
            <path d="M690.640449,396.706742 C696.011236,395.632584 708.095506,392.947191 708.364045,389.993258 C708.632584,383.548315 694.131461,387.844944 690.103371,387.576404 C687.149438,387.307865 684.732584,382.474157 684.732584,382.474157 L675.065169,383.548315 C675.065169,383.548315 675.870787,389.724719 675.870787,392.141573 C676.139326,398.586517 680.435955,398.855056 690.640449,396.706742 Z" id="Shape" fill="#FFBA49" fill-rule="nonzero"></path>
            <path d="M685.538202,390.261798 L688.223596,387.039326 C688.492135,386.770787 688.760674,386.770787 689.029213,387.039326 L689.834831,387.844944 C690.103371,388.113483 690.103371,388.382022 689.834831,388.650562 L687.149438,391.873034 C686.880899,392.141573 686.61236,392.141573 686.34382,391.873034 L685.538202,391.067416 C685.538202,390.798876 685.269663,390.530337 685.538202,390.261798 Z" id="Shape" fill="#FFFFFF" fill-rule="nonzero"></path>
            <path d="M568.455056,278.01236 C568.455056,278.01236 563.621348,293.319101 563.352809,298.689888 C562.81573,310.237079 568.186517,322.052809 575.705618,331.720225 C583.761798,341.924719 612.764045,377.640449 612.764045,377.640449 C612.764045,377.640449 621.625843,340.313483 630.219101,332.257303 C634.247191,328.229213 645.525843,320.710112 645.525843,320.710112 C645.525843,320.710112 622.7,311.579775 616.792135,307.820225 C610.88427,304.060674 598.262921,298.152809 593.160674,293.58764 C587.789888,288.753933 575.705618,271.030337 575.705618,271.030337 L568.455056,278.01236 Z" id="Shape" fill="url(#linearGradient-3)" fill-rule="nonzero"></path>
            <path d="M658.952809,121.722472 L631.293258,130.852809 C629.950562,131.389888 628.607865,130.58427 628.070787,129.241573 L622.7,113.129213 C622.162921,111.786517 622.968539,110.44382 624.311236,109.906742 L651.970787,100.776404 C653.313483,100.239326 654.65618,101.044944 655.193258,102.38764 L660.564045,118.5 C661.101124,119.842697 660.295506,121.453933 658.952809,121.722472 Z" id="Shape" fill="#BAC0C6" fill-rule="nonzero"></path>
            <path d="M631.830337,107.489888 L644.720225,103.193258 L642.303371,98.6280899 C642.034831,98.0910112 641.497753,97.8224719 640.692135,98.0910112 L632.098876,100.776404 C631.561798,101.044944 631.024719,101.582022 631.293258,102.119101 L631.830337,107.489888 Z" id="Shape" fill="#BAC0C6" fill-rule="nonzero"></path>
            <path d="M658.41573,120.111236 L630.75618,129.241573 C629.413483,129.778652 628.070787,128.973034 627.533708,127.630337 L621.894382,110.44382 C621.357303,109.101124 622.162921,107.758427 623.505618,107.221348 L651.165169,98.0910112 C652.507865,97.5539326 653.850562,98.3595506 654.38764,99.7022472 L660.026966,116.888764 C660.564045,118.231461 659.758427,119.842697 658.41573,120.111236 Z" id="Shape" fill="#BAC0C6" fill-rule="nonzero"></path>
            <polygon id="Shape" fill="#E8F3F3" fill-rule="nonzero" points="625.385393 112.055056 622.7 112.323596 626.996629 125.750562 629.413483 124.139326"></polygon>
            <polygon id="Shape" fill="#E8F3F3" fill-rule="nonzero" points="652.239326 103.461798 656.267416 115.546067 659.489888 115.277528 655.193258 101.582022"></polygon>
            <circle id="Oval" fill="#513852" fill-rule="nonzero" transform="translate(640.994644, 113.949010) rotate(-17.998304) translate(-640.994644, -113.949010) " cx="640.994644" cy="113.94901" r="7.78792162"></circle>
            <path d="M610.88427,155.826966 L617.060674,148.039326 C617.060674,148.039326 619.208989,145.891011 620.820225,144.548315 C621.357303,144.011236 621.357303,143.474157 620.551685,143.474157 C618.67191,143.474157 614.375281,147.233708 614.375281,147.233708 C614.375281,147.233708 614.91236,143.205618 617.597753,139.177528 C618.403371,137.834831 621.088764,135.686517 621.625843,134.61236 C622.162921,133.806742 622.162921,130.852809 621.088764,130.58427 C618.403371,129.241573 611.958427,134.61236 610.61573,137.566292 C609.273034,140.251685 608.467416,153.678652 603.096629,161.466292 C601.753933,163.346067 607.930337,158.780899 607.930337,158.780899 L610.88427,155.826966 Z" id="Shape" fill="url(#linearGradient-4)" fill-rule="nonzero"></path>
            <path d="M635.858427,168.716854 L640.692135,160.660674 C640.692135,160.660674 643.377528,150.993258 646.6,147.233708 C647.137079,146.42809 647.137079,143.474157 646.062921,143.205618 C643.377528,141.862921 637.201124,149.113483 635.858427,151.798876 C634.51573,154.48427 632.367416,163.883146 626.996629,171.670787 C625.653933,173.550562 632.904494,171.402247 632.904494,171.402247 L635.858427,168.716854 Z" id="Shape" fill="url(#linearGradient-5)" fill-rule="nonzero"></path>
            <path d="M559.324719,224.304494 C559.324719,224.304494 556.907865,221.619101 560.667416,218.12809 C588.058427,193.153933 604.707865,151.798876 604.707865,151.798876 L612.495506,153.678652 L606.050562,168.716854 L581.882022,217.591011 L562.278652,221.88764 L559.324719,224.304494 Z" id="Shape" fill="#EF5B5B" fill-rule="nonzero"></path>
            <path d="M553.685393,178.652809 C553.685393,178.652809 560.398876,188.051685 564.426966,188.588764 C566.306742,188.857303 569.529213,189.394382 569.529213,189.394382 L568.723596,193.691011 C568.723596,193.691011 571.140449,199.598876 571.677528,200.941573 C572.751685,204.969663 564.964045,203.626966 564.426966,206.580899 C563.621348,210.877528 571.677528,225.91573 571.677528,225.91573 L561.741573,238.268539 C561.741573,238.268539 559.861798,220.276404 556.639326,215.174157 C554.759551,211.951685 544.823596,205.238202 544.823596,205.238202 L553.685393,178.652809 Z" id="Shape" fill="url(#linearGradient-6)" fill-rule="nonzero"></path>
            <path d="M556.907865,175.967416 C560.130337,178.652809 551.805618,183.217978 551.805618,188.320225 C551.805618,193.691011 557.176404,211.683146 555.833708,216.785393 C549.388764,240.953933 523.608989,239.611236 518.238202,236.925843 C514.210112,235.046067 501.320225,229.675281 501.588764,225.378652 C502.394382,217.053933 523.340449,211.951685 527.905618,204.969663 C531.665169,199.061798 525.757303,185.366292 543.21236,179.189888 C549.120225,177.310112 554.759551,174.08764 556.907865,175.967416 Z" id="Shape" fill="#513852" fill-rule="nonzero"></path>
            <path d="M556.907865,220.007865 C556.907865,220.007865 557.713483,225.110112 556.907865,228.601124 C555.565169,234.240449 554.222472,243.907865 557.982022,254.917978 C560.667416,262.974157 565.769663,288.216854 565.769663,288.216854 L582.95618,281.77191 C582.95618,281.77191 583.493258,254.649438 583.493258,245.519101 C583.493258,232.897753 593.966292,218.933708 593.966292,218.933708 C593.966292,218.933708 638.275281,166.3 640.155056,165.225843 C642.034831,163.883146 632.635955,161.466292 632.635955,161.466292 L598.262921,193.959551 L570.334831,216.516854 L567.649438,212.757303 C567.649438,212.757303 564.695506,216.248315 563.621348,217.053933 C562.010112,217.859551 556.907865,220.007865 556.907865,220.007865 Z" id="Shape" fill="#EF5B5B" fill-rule="nonzero"></path>
            <path d="M1143.12921,364.482022 C1143.12921,364.482022 1134.53596,313.996629 1153.33371,312.116854 C1167.56629,310.774157 1176.15955,341.65618 1176.15955,341.65618 C1176.15955,341.65618 1172.13146,349.175281 1172.93708,347.295506 C1174.81685,342.998876 1161.12135,314.533708 1155.21348,316.144944 C1145.81461,318.561798 1148.23146,366.093258 1148.23146,366.093258 L1143.12921,364.482022 Z" id="Shape" fill="#FFFFFF" fill-rule="nonzero"></path>
            <path d="M1142.3236,361.259551 C1142.3236,361.259551 1128.09101,307.551685 1155.21348,308.894382 C1169.44607,309.431461 1178.03933,338.433708 1178.03933,338.433708 C1178.03933,338.433708 1174.01124,345.952809 1174.81685,344.073034 C1176.69663,339.776404 1163.00112,311.311236 1157.09326,312.922472 C1147.69438,315.339326 1153.60225,365.28764 1153.60225,365.28764 L1142.3236,361.259551 Z" id="Shape" fill="#BAC0C6" fill-rule="nonzero"></path>
            <ellipse id="Oval" fill="#E5E6E9" fill-rule="nonzero" transform="translate(1177.550665, 354.031815) rotate(-10.497528) translate(-1177.550665, -354.031815) " cx="1177.55066" cy="354.031815" rx="9.93633127" ry="15.5758706"></ellipse>
            <ellipse id="Oval" fill="#BAC0C6" fill-rule="nonzero" transform="translate(1177.558667, 353.761046) rotate(-10.497528) translate(-1177.558667, -353.761046) " cx="1177.55867" cy="353.761046" rx="4.83389089" ry="7.51938583"></ellipse>
            <ellipse id="Oval" fill="#E5E6E9" fill-rule="nonzero" transform="translate(1152.306679, 367.996504) rotate(-10.497528) translate(-1152.306679, -367.996504) " cx="1152.30668" cy="367.996504" rx="12.0847272" ry="19.0670141"></ellipse>
            <ellipse id="Oval" fill="#BAC0C6" fill-rule="nonzero" transform="translate(1148.824181, 368.799839) rotate(-10.497528) translate(-1148.824181, -368.799839) " cx="1148.82418" cy="368.799839" rx="12.0847272" ry="19.0670141"></ellipse>
            <polygon id="Shape" fill="#FFBA49" fill-rule="nonzero" points="416.730337 210.877528 441.167416 175.698876 466.410112 165.762921 441.704494 202.552809"></polygon>
            <polygon id="Shape" fill="#734B31" fill-rule="nonzero" points="559.861798 185.366292 557.982022 190.2 561.741573 187.246067"></polygon>
            <polygon id="Shape" fill="#EF5B5B" fill-rule="nonzero" points="569.529213 196.376404 565.501124 198.25618 570.603371 197.719101"></polygon>
            <polygon id="Shape" fill="#BAC0C6" fill-rule="nonzero" points="372.958427 196.644944 406.794382 218.933708 443.58427 207.117978 406.257303 221.082022"></polygon>
            <path d="M427.203371,177.041573 C426.397753,178.652809 425.592135,179.995506 424.786517,181.338202 L421.564045,185.097753 L415.38764,192.616854 L409.211236,200.135955 L405.988764,203.895506 C404.646067,204.969663 403.57191,206.04382 402.229213,207.117978 C403.034831,205.506742 403.840449,204.164045 404.646067,202.821348 L407.868539,199.061798 L414.044944,191.542697 L420.221348,184.023596 L423.44382,180.264045 C424.786517,179.189888 425.860674,178.11573 427.203371,177.041573 Z" id="Shape" fill="#E8E8E8" fill-rule="nonzero"></path>
            <path d="M414.582022,166.837079 C413.776404,168.179775 412.702247,169.522472 411.62809,170.865169 L408.137079,174.35618 L401.155056,181.338202 L394.173034,188.320225 L390.682022,191.811236 C389.339326,192.885393 387.996629,193.691011 386.653933,194.765169 C387.459551,193.422472 388.533708,192.079775 389.607865,190.737079 L393.098876,187.246067 L400.080899,180.264045 L407.062921,173.282022 L410.553933,169.791011 C411.62809,168.716854 412.970787,167.642697 414.582022,166.837079 Z" id="Shape" fill="#E8E8E8" fill-rule="nonzero"></path>
            <path d="M420.221348,170.059551 C419.41573,171.670787 418.610112,173.013483 417.804494,174.35618 L414.582022,178.11573 L408.137079,185.634831 L401.692135,193.153933 L398.469663,196.913483 C397.126966,197.98764 396.052809,199.061798 394.710112,200.135955 C395.51573,198.524719 396.321348,197.182022 397.126966,195.839326 L400.349438,192.079775 L406.794382,184.560674 L413.239326,177.041573 L416.461798,173.282022 C417.535955,171.939326 418.878652,170.865169 420.221348,170.059551 Z" id="Shape" fill="#E8E8E8" fill-rule="nonzero"></path>
            <polygon id="Shape" fill="#FFBA49" fill-rule="nonzero" points="564.426966 291.707865 575.974157 287.411236 585.641573 283.651685 583.493258 281.234831 564.964045 288.216854"></polygon>
            <circle id="Oval" fill="#BAC0C6" fill-rule="nonzero" transform="translate(1319.076636, 383.315357) rotate(-44.643476) translate(-1319.076636, -383.315357) " cx="1319.07664" cy="383.315357" r="8.86188433"></circle>
            <circle id="Oval" fill="#BAC0C6" fill-rule="nonzero" transform="translate(1340.279857, 393.735784) rotate(-64.234409) translate(-1340.279857, -393.735784) " cx="1340.27986" cy="393.735784" r="8.8619947"></circle>
            <circle id="Oval" fill="#BAC0C6" fill-rule="nonzero" transform="translate(1364.061565, 405.052836) rotate(-64.234409) translate(-1364.061565, -405.052836) " cx="1364.06157" cy="405.052836" r="8.8619947"></circle>
            <circle id="Oval" fill="#BAC0C6" fill-rule="nonzero" transform="translate(1388.770137, 414.644793) rotate(-64.234409) translate(-1388.770137, -414.644793) " cx="1388.77014" cy="414.644793" r="8.8619947"></circle>
            <polygon id="Shape" fill="#24E2C2" fill-rule="nonzero" points="1316.87416 381.937079 1333.25506 372.001124 1392.33371 398.049438 1389.11124 416.310112 1367.89663 403.420225 1362.52584 403.957303 1347.48764 392.678652 1339.7 392.947191 1323.05056 381.4"></polygon>
            <path d="M1405.49213,367.704494 C1405.49213,367.704494 1400.38989,390.798876 1396.3618,397.51236 C1395.28764,399.392135 1389.91685,403.957303 1389.91685,403.957303 C1389.91685,403.957303 1372.99888,393.48427 1366.55393,391.335955 C1362.52584,389.724719 1353.66404,389.18764 1349.63596,387.844944 C1343.99663,385.696629 1328.42135,376.029213 1328.42135,376.029213 C1328.42135,376.029213 1329.76404,368.778652 1331.64382,367.435955 C1337.82022,363.139326 1353.66404,369.047191 1360.64607,367.167416 C1365.74831,365.824719 1376.22135,360.991011 1379.9809,356.962921 C1381.05506,355.888764 1382.66629,351.592135 1384.27753,352.934831 C1386.1573,354.277528 1405.49213,367.704494 1405.49213,367.704494 Z" id="Shape" fill="#26A9C6" fill-rule="nonzero"></path>
            <path d="M1408.17753,365.28764 C1408.17753,365.28764 1403.34382,388.650562 1399.31573,395.364045 C1397.97303,397.24382 1392.60225,401.808989 1392.60225,401.808989 C1392.60225,401.808989 1374.34157,390.798876 1367.89663,388.382022 C1363.6,386.770787 1354.20112,385.965169 1349.90449,384.353933 C1343.99663,381.937079 1327.34719,372.001124 1327.34719,372.001124 C1327.34719,372.001124 1328.68989,364.482022 1330.56966,363.407865 C1336.74607,359.111236 1353.66404,365.55618 1361.18315,363.676404 C1366.55393,362.333708 1377.29551,357.768539 1381.3236,354.008989 C1382.39775,352.934831 1384.00899,348.638202 1385.88876,349.980899 C1387.5,351.055056 1408.17753,365.28764 1408.17753,365.28764 Z" id="Shape" fill="#FFFFFF" fill-rule="nonzero"></path>
            <circle id="Oval" fill="#3D5450" fill-rule="nonzero" transform="translate(1318.995349, 382.872938) rotate(-64.234409) translate(-1318.995349, -382.872938) " cx="1318.99535" cy="382.872938" r="4.02817941"></circle>
            <circle id="Oval" fill="#3D5450" fill-rule="nonzero" transform="translate(1340.089113, 393.399277) rotate(-64.234409) translate(-1340.089113, -393.399277) " cx="1340.08911" cy="393.399277" r="4.02817941"></circle>
            <circle id="Oval" fill="#3D5450" fill-rule="nonzero" transform="translate(1363.847190, 404.608914) rotate(-64.234409) translate(-1363.847190, -404.608914) " cx="1363.84719" cy="404.608914" r="4.02817941"></circle>
            <circle id="Oval" fill="#3D5450" fill-rule="nonzero" transform="translate(1389.029788, 415.132406) rotate(-64.234409) translate(-1389.029788, -415.132406) " cx="1389.02979" cy="415.132406" r="4.02817941"></circle>
            <path d="M1385.62022,349.71236 C1385.62022,349.71236 1396.3618,351.592135 1399.58427,353.47191 C1402.80674,355.351685 1408.44607,365.28764 1408.44607,365.28764 L1385.62022,349.71236 Z" id="Shape" fill="#26A9C6" fill-rule="nonzero"></path>
            <polygon id="Shape" fill="#FFBA49" fill-rule="nonzero" points="1357.4236 363.407865 1365.47978 369.047191 1382.93483 362.602247 1375.41573 358.037079"></polygon>
            <polygon id="Shape" fill="#FFFFFF" fill-rule="nonzero" points="627.802247 165.225843 637.738202 170.059551 642.840449 164.151685 629.682022 159.317978"></polygon>
            <polygon id="Shape" fill="#FFFFFF" fill-rule="nonzero" points="601.485393 156.364045 611.421348 161.197753 614.106742 152.873034 603.365169 150.45618"></polygon>
            <path d="M1260.4809,21.8258427 C1260.4809,21.8258427 1248.12809,22.094382 1244.63708,21.5573034 C1237.65506,20.7516854 1214.82921,5.44494382 1214.82921,5.44494382 L1212.41236,16.1865169 L1245.17416,37.6696629 L1256.18427,52.9764045 L1253.23034,30.6876404 L1260.4809,21.8258427 Z" id="Shape" fill="#D39C74" fill-rule="nonzero"></path>
            <path d="M1198.71685,14.3067416 L1197.91124,28.8078652 C1197.91124,28.8078652 1203.55056,35.252809 1214.0236,40.0865169 C1216.17191,41.9662921 1218.05169,47.0685393 1218.05169,47.0685393 L1220.2,43.0404494 C1226.3764,45.4573034 1230.40449,44.6516854 1234.43258,41.1606742 C1238.46067,37.4011236 1228.79326,18.6033708 1228.79326,18.6033708 L1198.71685,14.3067416 Z" id="Shape" fill="#D39C74" fill-rule="nonzero"></path>
            <path d="M1215.63483,3.83370787 C1218.58876,3.83370787 1222.88539,6.78764045 1227.7191,12.158427 C1231.74719,16.1865169 1233.62697,22.6314607 1232.28427,23.705618 C1231.74719,24.2426966 1230.94157,23.4370787 1226.64494,21.288764 C1218.58876,16.9921348 1217.24607,16.4550562 1216.44045,16.9921348 C1215.36629,17.7977528 1216.97753,19.9460674 1215.90337,22.3629213 C1214.56067,26.6595506 1205.69888,29.3449438 1200.86517,33.641573 C1195.22584,38.7438202 1192.27191,19.9460674 1203.28202,6.2505618 C1205.69888,3.02808989 1213.21798,3.29662921 1215.63483,3.83370787 Z" id="Shape" fill="#513852" fill-rule="nonzero"></path>
            <path d="M1224.49663,44.6516854 L1226.3764,36.3269663 C1226.3764,36.3269663 1227.18202,40.0865169 1227.45056,41.4292135 C1227.45056,42.2348315 1227.45056,44.9202247 1227.45056,44.9202247 L1224.49663,44.6516854 Z" id="Shape" fill="#FFFFFF" fill-rule="nonzero"></path>
            <path d="M1213.48652,32.5674157 C1213.48652,32.5674157 1212.41236,36.8640449 1211.3382,37.6696629 C1210.53258,38.2067416 1207.84719,38.7438202 1207.84719,38.7438202 L1213.48652,32.5674157 Z" id="Shape" fill="#744B31" fill-rule="nonzero"></path>
            <path d="M1239.26629,33.3730337 C1239.26629,33.3730337 1235.2382,31.7617978 1234.43258,30.6876404 C1233.89551,29.8820225 1233.62697,27.1966292 1233.62697,27.1966292 L1239.26629,33.3730337 Z" id="Shape" fill="#C68A61" fill-rule="nonzero"></path>
            <path d="M1224.49663,5.17640449 C1224.49663,5.17640449 1207.31011,-4.22247191 1198.44831,4.90786517 C1189.85506,13.7696629 1194.42022,27.7337079 1194.42022,27.7337079 C1194.42022,27.7337079 1187.4382,38.7438202 1189.04944,41.6977528 C1189.58652,42.5033708 1193.34607,38.7438202 1193.34607,38.7438202 L1224.49663,5.17640449 Z" id="Shape" fill="#EF5B5B" fill-rule="nonzero"></path>
            <path d="M1243.83146,36.5955056 C1243.02584,35.5213483 1245.97978,51.0966292 1256.98989,60.4955056 C1276.32472,76.8764045 1280.62135,68.5516854 1295.92809,81.7101124 C1310.96629,94.3314607 1314.99438,106.41573 1314.99438,106.41573 C1314.99438,106.41573 1319.02247,102.65618 1323.3191,101.313483 C1331.37528,98.6280899 1342.38539,96.7483146 1346.95056,92.7202247 C1357.69213,83.3213483 1360.91461,71.7741573 1360.91461,71.7741573 C1360.91461,71.7741573 1330.30112,47.605618 1316.60562,36.3269663 C1295.65955,19.1404494 1265.04607,10.2786517 1250.81348,22.6314607 C1250.00787,23.4370787 1255.91573,31.2247191 1256.72135,36.3269663 C1258.86966,45.7258427 1255.11011,52.1707865 1243.83146,36.5955056 Z" id="Shape" fill="#EF5B5B" fill-rule="nonzero"></path>
            <polygon id="Shape" fill="#314341" fill-rule="nonzero" points="1092.10674 153.410112 1095.59775 149.382022 1102.84831 150.724719 1102.0427 155.826966 1097.47753 155.558427"></polygon>
            <polygon id="Shape" fill="#FFBA49" fill-rule="nonzero" points="1187.4382 204.164045 1103.65393 131.926966 1100.7 137.834831 1183.94719 210.07191"></polygon>
            <polygon id="Shape" fill="#FFBA49" fill-rule="nonzero" points="1191.46629 207.923596 1199.52247 152.604494 1193.07753 149.382022 1185.02135 208.192135"></polygon>
            <polygon id="Shape" fill="#E5A342" fill-rule="nonzero" points="1194.42022 213.562921 1254.84157 201.210112 1257.79551 195.570787 1191.46629 207.923596"></polygon>
            <path d="M1175.35393,146.42809 C1176.42809,149.382022 1184.75281,148.307865 1187.97528,148.844944 C1194.42022,150.18764 1201.13371,155.289888 1209.72697,155.021348 C1213.75506,154.752809 1221.27416,148.844944 1215.36629,145.622472 C1208.38427,141.862921 1190.1236,141.325843 1180.18764,140.251685 C1178.03933,139.983146 1174.54831,144.548315 1175.35393,146.42809 Z" id="Shape" fill="#3D5450" fill-rule="nonzero"></path>
            <path d="M1040.01011,191.542697 L1125.13708,250.889888" id="Shape" stroke="url(#linearGradient-7)" stroke-width="0.3916"></path>
            <path d="M1033.29663,201.210112 L1118.4236,260.825843" id="Shape" stroke="url(#linearGradient-8)" stroke-width="0.3916"></path>
            <path d="M1027.12022,229.138202 L1129.43371,211.146067" id="Shape" stroke="url(#linearGradient-9)" stroke-width="0.3916"></path>
            <path d="M1029.26854,241.222472 L1131.31348,222.961798" id="Shape" stroke="url(#linearGradient-10)" stroke-width="0.3916"></path>
            <path d="M1044.57528,265.122472 L1103.92247,179.995506" id="Shape" stroke="url(#linearGradient-11)" stroke-width="0.3916"></path>
            <path d="M1054.51124,271.835955 L1113.85843,186.977528" id="Shape" stroke="url(#linearGradient-12)" stroke-width="0.3916"></path>
            <path d="M1082.43933,278.280899 L1064.17865,175.967416" id="Shape" stroke="url(#linearGradient-13)" stroke-width="0.3916"></path>
            <path d="M1094.25506,276.132584 L1076.26292,173.819101" id="Shape" stroke="url(#linearGradient-14)" stroke-width="0.3916"></path>
            <circle id="Oval" stroke="url(#linearGradient-15)" stroke-width="0.5" transform="translate(1253.245456, 196.918397) rotate(-9.288066) translate(-1253.245456, -196.918397) " cx="1253.24546" cy="196.918397" r="6.71355555"></circle>
            <path d="M1214.29213,163.077528 L1299.4191,222.424719" id="Shape" stroke="url(#linearGradient-16)" stroke-width="0.3916"></path>
            <path d="M1207.57865,172.744944 L1292.43708,232.360674" id="Shape" stroke="url(#linearGradient-17)" stroke-width="0.3916"></path>
            <path d="M1201.13371,200.673034 L1303.44719,182.680899" id="Shape" stroke="url(#linearGradient-18)" stroke-width="0.3916"></path>
            <path d="M1203.55056,212.757303 L1305.59551,194.496629" id="Shape" stroke="url(#linearGradient-19)" stroke-width="0.3916"></path>
            <path d="M1218.58876,236.657303 L1278.20449,151.530337" id="Shape" stroke="url(#linearGradient-20)" stroke-width="0.3916"></path>
            <path d="M1228.52472,243.370787 L1288.14045,158.51236" id="Shape" stroke="url(#linearGradient-21)" stroke-width="0.3916"></path>
            <path d="M1256.72135,249.81573 L1238.46067,147.502247" id="Shape" stroke="url(#linearGradient-22)" stroke-width="0.3916"></path>
            <path d="M1268.26854,247.667416 L1250.2764,145.353933" id="Shape" stroke="url(#linearGradient-23)" stroke-width="0.3916"></path>
            <ellipse id="Oval" fill="#3D5450" fill-rule="nonzero" transform="translate(1252.170708, 197.186534) rotate(-9.288066) translate(-1252.170708, -197.186534) " cx="1252.17071" cy="197.186534" rx="13.6956533" ry="13.9641955"></ellipse>
            <polygon id="Shape" fill="#FFBA49" fill-rule="nonzero" points="1103.65393 131.926966 1189.58652 163.077528 1257.79551 195.570787 1254.84157 201.210112 1186.09551 168.716854 1100.7 137.834831"></polygon>
            <path d="M1157.63034,213.562921 C1160.04719,212.220225 1191.46629,207.923596 1191.46629,207.923596 L1194.42022,213.294382 L1158.16742,218.665169 L1157.63034,213.562921 Z" id="Shape" fill="#3D5450" fill-rule="nonzero"></path>
            <circle id="Oval" fill="#FFBA49" fill-rule="nonzero" transform="translate(1252.439220, 197.186964) rotate(-9.288066) translate(-1252.439220, -197.186964) " cx="1252.43922" cy="197.186964" r="6.71355555"></circle>
            <path d="M1069.81798,169.522472 C1038.93596,174.624719 1017.98989,203.895506 1023.09213,234.777528 C1028.19438,265.659551 1057.46517,286.605618 1088.34719,281.503371 C1119.22921,276.401124 1140.17528,247.130337 1135.07303,216.248315 C1129.97079,185.366292 1100.7,164.420225 1069.81798,169.522472 Z M1086.19888,270.493258 C1061.22472,274.521348 1037.8618,257.87191 1033.83371,232.897753 C1029.80562,207.923596 1046.45506,184.560674 1071.42921,180.532584 C1096.40337,176.504494 1119.76629,193.153933 1123.79438,218.12809 C1127.82247,242.833708 1111.17303,266.465169 1086.19888,270.493258 Z" id="Shape" fill="#3D5450" fill-rule="nonzero"></path>
            <path d="M1244.1,141.057303 C1213.21798,146.159551 1192.27191,175.430337 1197.37416,206.31236 C1202.4764,237.194382 1231.74719,258.140449 1262.62921,253.038202 C1293.51124,247.935955 1314.4573,218.665169 1309.35506,187.783146 C1303.98427,156.901124 1274.71348,135.955056 1244.1,141.057303 Z M1260.4809,242.02809 C1235.50674,246.05618 1212.14382,229.406742 1208.11573,204.432584 C1204.08764,179.458427 1220.73708,156.095506 1245.71124,152.067416 C1270.68539,148.039326 1294.04831,164.688764 1298.0764,189.662921 C1302.10449,214.637079 1285.18652,237.731461 1260.4809,242.02809 Z" id="Shape" fill="#3D5450" fill-rule="nonzero"></path>
            <polygon id="Shape" fill="#314341" fill-rule="nonzero" points="1083.24494 228.601124 1097.47753 155.558427 1092.10674 153.410112 1077.87416 228.601124"></polygon>
            <circle id="Oval" fill="#D39C74" fill-rule="nonzero" transform="translate(1081.109036, 225.651756) rotate(-9.288066) translate(-1081.109036, -225.651756) " cx="1081.10904" cy="225.651756" r="6.71355555"></circle>
            <polygon id="Shape" fill="#FFBA49" fill-rule="nonzero" points="1098.82022 129.778652 1095.59775 149.382022 1102.84831 150.724719 1106.60787 130.852809"></polygon>
            <polygon id="Shape" fill="#3D5450" fill-rule="nonzero" points="1100.7 131.926966 1100.96854 124.676404 1094.79213 122.796629 1096.40337 117.157303 1108.2191 119.574157 1106.07079 133.538202"></polygon>
            <circle id="Oval" fill="#3D5450" fill-rule="nonzero" transform="translate(1189.332183, 210.882442) rotate(-9.288066) translate(-1189.332183, -210.882442) " cx="1189.33218" cy="210.882442" r="9.13043555"></circle>
            <path d="M353.086517,326.080899 L339.659551,306.208989 C338.853933,304.866292 339.122472,303.255056 340.465169,302.449438 L377.523596,276.938202 C378.866292,276.132584 380.477528,276.401124 381.283146,277.74382 L394.710112,297.61573 C395.51573,298.958427 395.247191,300.569663 393.904494,301.375281 L356.846067,326.886517 C355.503371,327.692135 353.892135,327.423596 353.086517,326.080899 Z" id="Shape" fill="#BAC0C6" fill-rule="nonzero"></path>
            <rect id="Rectangle-path" fill="#FFBA49" fill-rule="nonzero" transform="translate(367.455828, 302.404458) rotate(-34.401997) translate(-367.455828, -302.404458) " x="349.597829" y="291.662804" width="35.7159984" height="21.4833073"></rect>
            <path d="M349.326966,317.75618 L346.104494,313.191011 C345.567416,312.653933 345.835955,311.579775 346.373034,311.311236 C346.910112,310.774157 347.98427,311.042697 348.252809,311.579775 L351.475281,316.144944 C352.01236,316.682022 351.74382,317.75618 351.206742,318.024719 C350.669663,318.561798 349.595506,318.293258 349.326966,317.75618 Z" id="Shape" fill="#513852" fill-rule="nonzero"></path>
            <path d="M1175.62247,144.011236 C1176.69663,146.965169 1185.02135,145.891011 1188.24382,146.42809 C1194.68876,147.770787 1201.40225,152.873034 1209.99551,152.604494 C1214.0236,152.335955 1221.5427,146.42809 1215.63483,143.205618 C1208.65281,139.446067 1190.39213,138.908989 1180.45618,137.834831 C1178.03933,137.566292 1174.81685,142.131461 1175.62247,144.011236 Z" id="Shape" fill="#22ADBC" fill-rule="nonzero"></path>
            <path d="M826.789888,88.4235955 L822.761798,103.193258 C822.493258,104.535955 821.150562,105.878652 819.002247,106.147191 C816.048315,106.68427 813.631461,105.341573 812.825843,103.461798 C812.020225,101.582022 813.631461,99.4337079 816.585393,98.8966292 C818.465169,98.3595506 820.344944,98.8966292 821.419101,99.9707865 L824.641573,88.1550562 L826.789888,80.6359551 L846.930337,81.9786517 L846.393258,83.858427 L844.782022,89.4977528 L840.216854,105.878652 C839.948315,107.221348 838.605618,108.564045 836.457303,108.832584 C833.503371,109.369663 831.086517,108.026966 830.280899,106.147191 C829.74382,104.267416 831.086517,102.119101 834.040449,101.582022 C835.920225,101.044944 837.8,101.582022 838.874157,102.65618 L842.365169,89.4977528 L826.789888,88.4235955 Z" id="Rectangle_233_6_" fill="#B1BFCF" fill-rule="nonzero"></path>
            <path d="M870.561798,65.0606742 L872.978652,65.0606742 L872.978652,84.9325843 C874.321348,84.3955056 875.932584,84.3955056 877.81236,85.2011236 C880.766292,86.2752809 882.646067,88.9606742 882.108989,91.3775281 C881.303371,93.5258427 878.080899,94.6 875.126966,93.5258427 C872.441573,92.4516854 870.830337,90.5719101 870.830337,88.4235955 L870.830337,72.0426966 C866.533708,72.5797753 866.265169,78.2191011 866.802247,79.5617978 C867.070787,80.0988764 866.533708,80.6359551 865.996629,79.5617978 C861.162921,72.311236 870.561798,69.088764 870.561798,65.0606742 Z" id="Shape" fill="#B1BFCF" fill-rule="nonzero"></path>
            <path d="M748.376404,189.931461 C746.765169,184.560674 741.662921,166.031461 751.867416,153.410112 C755.626966,148.844944 760.460674,146.42809 761.534831,145.891011 C767.442697,143.205618 773.082022,142.937079 777.378652,142.668539 C785.166292,142.4 786.240449,144.011236 790,142.668539 C793.491011,141.325843 793.491011,139.714607 799.667416,134.075281 C804.769663,129.510112 802.08427,124.944944 805.84382,124.139326 C812.288764,122.52809 819.539326,126.824719 821.68764,128.435955 C831.355056,135.417978 846.393258,164.957303 829.475281,177.041573 C825.71573,179.726966 815.242697,182.14382 814.437079,182.41236 C809.066292,184.023596 806.649438,189.394382 805.038202,192.616854 C804.232584,194.22809 799.130337,203.626966 792.953933,209.534831 C790.537079,211.683146 782.480899,218.665169 765.294382,215.442697 C756.701124,213.831461 759.923596,210.608989 756.701124,206.849438 C751.330337,200.404494 749.450562,194.22809 748.376404,189.931461 Z" id="Shape" fill="#774C26" fill-rule="nonzero"></path>
            <path d="M739.246067,185.903371 C737.634831,180.532584 733.338202,164.151685 743.811236,151.530337 C747.570787,146.965169 752.404494,144.548315 753.478652,144.011236 C759.386517,141.325843 765.025843,141.057303 769.322472,140.788764 C777.110112,140.520225 778.18427,142.131461 781.94382,140.788764 C785.434831,139.446067 785.97191,137.834831 791.611236,132.195506 C796.444944,127.361798 799.398876,125.213483 803.158427,124.139326 C810.677528,121.991011 815.779775,125.482022 817.659551,127.093258 C824.641573,133.001124 832.697753,149.919101 832.160674,160.929213 C831.892135,164.688764 829.206742,171.133708 821.95618,175.161798 C819.002247,176.773034 813.631461,178.652809 808.260674,179.726966 C807.186517,179.995506 806.917978,179.995506 806.11236,180.264045 C800.741573,181.875281 798.324719,187.246067 796.713483,190.468539 C795.907865,192.079775 790.805618,201.478652 784.629213,207.386517 C782.21236,209.534831 775.230337,216.248315 765.831461,215.442697 C757.238202,214.905618 751.330337,208.460674 748.376404,204.701124 C743.542697,198.25618 740.320225,190.2 739.246067,185.903371 Z" id="Shape" fill="#AE6032" fill-rule="nonzero"></path>
            <ellipse id="Oval" fill="#FFBA49" fill-rule="nonzero" transform="translate(801.265332, 155.279844) rotate(-32.595114) translate(-801.265332, -155.279844) " cx="801.265332" cy="155.279844" rx="12.6213732" ry="12.0842935"></ellipse>
            <ellipse id="Oval" fill="#774C26" fill-rule="nonzero" transform="translate(801.279645, 155.016004) rotate(-32.595114) translate(-801.279645, -155.016004) " cx="801.279645" cy="155.016004" rx="9.66743478" ry="9.13035507"></ellipse>
            <path d="M760.729213,160.660674 L765.025843,158.24382 C765.025843,158.24382 779.795506,188.857303 779.526966,188.857303 C779.258427,189.125843 774.693258,191.811236 774.693258,191.811236 L760.729213,160.660674 Z" id="Shape" fill="#774C26" fill-rule="nonzero"></path>
            <polygon id="Shape" fill="#774C26" fill-rule="nonzero" points="803.426966 146.42809 881.034831 100.507865 886.137079 109.638202 809.066292 157.706742"></polygon>
            <path d="M884.257303,110.175281 L918.898876,95.6741573 C918.898876,95.6741573 920.778652,92.1831461 918.898876,87.3494382 C917.28764,83.5898876 912.185393,83.052809 912.185393,83.052809 L879.692135,102.65618 L884.257303,110.175281 Z" id="Shape" fill="#FFBA49" fill-rule="nonzero"></path>
            <path d="M883.720225,108.295506 L769.591011,176.773034 C769.322472,176.773034 769.322472,177.041573 769.591011,177.310112 C769.591011,177.578652 769.859551,177.578652 770.12809,177.310112 L884.257303,108.832584 C884.525843,108.832584 884.525843,108.564045 884.257303,108.295506 C883.988764,108.295506 883.988764,108.295506 883.720225,108.295506 Z" id="Shape" fill="#E99F2F" fill-rule="nonzero"></path>
            <path d="M883.720225,108.295506 L769.591011,176.773034 C769.322472,176.773034 769.322472,177.041573 769.591011,177.310112 C769.591011,177.578652 769.859551,177.578652 770.12809,177.310112 L884.257303,108.832584 C884.525843,108.832584 884.525843,108.564045 884.257303,108.295506 C883.988764,108.295506 883.988764,108.295506 883.720225,108.295506 Z" id="Shape" fill="#E99F2F" fill-rule="nonzero"></path>
            <path d="M882.914607,106.952809 L768.785393,175.430337 C768.516854,175.430337 768.516854,175.698876 768.785393,175.967416 C768.785393,176.235955 769.053933,176.235955 769.322472,175.967416 L883.451685,107.489888 C883.720225,107.489888 883.720225,107.221348 883.451685,106.952809 C883.183146,106.952809 882.914607,106.68427 882.914607,106.952809 Z" id="Shape" fill="#E99F2F" fill-rule="nonzero"></path>
            <path d="M882.108989,105.341573 L767.979775,173.819101 C767.711236,173.819101 767.711236,174.08764 767.979775,174.35618 C767.979775,174.624719 768.248315,174.624719 768.516854,174.35618 L882.646067,105.878652 C882.914607,105.878652 882.914607,105.610112 882.646067,105.341573 C882.377528,105.341573 882.108989,105.341573 882.108989,105.341573 Z" id="Shape" fill="#E99F2F" fill-rule="nonzero"></path>
            <path d="M881.034831,103.998876 L766.905618,172.476404 C766.637079,172.476404 766.637079,172.744944 766.905618,173.013483 C766.905618,173.282022 767.174157,173.282022 767.442697,173.013483 L881.57191,104.535955 C881.840449,104.535955 881.840449,104.267416 881.57191,103.998876 C881.57191,103.998876 881.303371,103.998876 881.034831,103.998876 Z" id="Shape" fill="#E99F2F" fill-rule="nonzero"></path>
            <path d="M880.229213,102.65618 L766.1,171.133708 C765.831461,171.133708 765.831461,171.402247 766.1,171.670787 C766.1,171.939326 766.368539,171.939326 766.637079,171.670787 L880.766292,103.193258 C881.034831,103.193258 881.034831,102.924719 880.766292,102.65618 C880.766292,102.65618 880.497753,102.38764 880.229213,102.65618 Z" id="Shape" fill="#E99F2F" fill-rule="nonzero"></path>
            <polygon id="Shape" fill="#FFBA49" fill-rule="nonzero" points="763.683146 169.522472 769.591011 165.762921 775.498876 178.921348 769.322472 182.41236"></polygon>
            <polygon id="Shape" fill="#FFFFFF" fill-rule="nonzero" points="883.720225 101.850562 909.5 87.0808989 911.916854 88.1550562 883.988764 102.65618"></polygon>
            <polygon id="Shape" fill="#FFFFFF" fill-rule="nonzero" points="885.6 104.804494 912.991011 90.8404494 912.722472 93.2573034 885.868539 105.878652"></polygon>
            <path d="M907.620225,240.416854 C903.860674,232.629213 894.193258,229.675281 886.674157,233.703371 C878.886517,237.462921 875.932584,247.130337 879.960674,254.649438 C883.720225,262.168539 892.850562,265.122472 900.369663,261.631461 L899.564045,260.020225 L905.47191,249.547191 L909.231461,250.352809 C909.768539,246.861798 909.231461,243.370787 907.620225,240.416854 Z" id="Shape"></path>
            <path d="M879.960674,254.380899 C875.932584,246.861798 878.886517,237.194382 886.674157,233.434831 C894.193258,229.406742 903.860674,232.360674 907.620225,240.148315 C908.694382,242.02809 909.231461,243.907865 909.231461,246.05618 C909.5,248.473034 911.111236,250.352809 913.52809,250.889888 C914.333708,251.158427 914.870787,250.621348 914.870787,249.81573 C915.407865,245.78764 914.602247,241.491011 912.453933,237.462921 C906.814607,226.989888 894.193258,222.961798 883.720225,228.332584 C873.247191,233.703371 868.950562,246.593258 874.589888,257.066292 C879.960674,267.002247 891.507865,271.298876 901.44382,267.002247 C901.980899,266.733708 902.249438,266.196629 901.980899,265.391011 C900.906742,263.242697 898.489888,261.9 896.341573,262.437079 C890.165169,264.048315 883.183146,260.825843 879.960674,254.380899 Z" id="Shape" fill="#E99F2F" fill-rule="nonzero"></path>
            <path d="M878.886517,254.917978 C874.858427,247.398876 877.81236,237.731461 885.6,233.97191 C893.119101,229.94382 902.786517,232.897753 906.546067,240.685393 C907.620225,242.565169 908.157303,244.444944 908.157303,246.593258 C908.425843,249.010112 910.037079,250.889888 912.453933,251.426966 C913.259551,251.695506 913.796629,251.158427 913.796629,250.352809 C914.333708,246.324719 913.52809,242.02809 911.379775,238 C905.740449,227.526966 893.119101,223.498876 882.646067,228.869663 C872.173034,234.240449 867.876404,247.130337 873.51573,257.603371 C878.886517,267.539326 890.433708,271.835955 900.369663,267.539326 C900.906742,267.270787 901.175281,266.733708 900.906742,265.92809 C899.832584,263.779775 897.41573,262.437079 895.267416,262.974157 C888.822472,264.316854 881.840449,261.094382 878.886517,254.917978 Z" id="Shape" fill="url(#linearGradient-24)" fill-rule="nonzero"></path>
            <ellipse id="Oval" fill="#E99F2F" fill-rule="nonzero" transform="translate(884.000741, 233.689407) rotate(-32.167541) translate(-884.000741, -233.689407) " cx="884.000741" cy="233.689407" rx="12.3528832" ry="8.86185097"></ellipse>
            <ellipse id="Oval" fill="#FFFFFF" fill-rule="nonzero" transform="translate(882.924328, 232.099009) rotate(-32.167541) translate(-882.924328, -232.099009) " cx="882.924328" cy="232.099009" rx="8.86185097" ry="6.17644158"></ellipse>
            <path d="M881.840449,231.823596 L888.016854,227.258427" id="Shape" stroke="url(#linearGradient-25)" stroke-width="0.2735"></path>
            <path d="M882.108989,231.823596 L886.674157,233.434831" id="Shape" stroke="url(#linearGradient-26)" stroke-width="0.25"></path>
            <path d="M911.916854,245.519101 C912.185393,246.05618 911.916854,246.593258 911.379775,246.861798 C910.842697,246.861798 910.305618,246.593258 910.305618,246.05618 C910.305618,245.519101 910.305618,244.982022 910.842697,244.713483 C911.379775,244.444944 911.916854,244.982022 911.916854,245.519101 Z" id="Shape" fill="url(#linearGradient-27)" fill-rule="nonzero"></path>
            <path d="M911.379775,242.02809 C911.648315,242.565169 911.379775,243.102247 910.842697,243.370787 C910.305618,243.370787 909.768539,243.102247 909.768539,242.565169 C909.5,242.02809 909.768539,241.491011 910.305618,241.222472 C910.574157,240.953933 911.111236,241.491011 911.379775,242.02809 Z" id="Shape" fill="url(#linearGradient-28)" fill-rule="nonzero"></path>
            <path d="M909.5,238.268539 C909.768539,238.805618 909.5,239.342697 908.962921,239.611236 C908.425843,239.611236 907.888764,239.342697 907.888764,238.805618 C907.620225,238.268539 907.888764,237.731461 908.425843,237.462921 C908.694382,237.462921 909.231461,237.731461 909.5,238.268539 Z" id="Shape" fill="url(#linearGradient-29)" fill-rule="nonzero"></path>
            <polygon id="Shape" fill="#AE6032" fill-rule="nonzero" points="906.814607 229.138202 901.980899 235.046067 903.323596 235.851685 908.157303 230.480899"></polygon>
            <polygon id="Shape" fill="#26C1DB" fill-rule="nonzero" points="894.730337 262.705618 891.776404 269.95618 896.073034 269.68764 898.758427 262.437079"></polygon>
            <circle id="Oval" fill="#E99F2F" fill-rule="nonzero" cx="881.840449" cy="231.555056" r="1"></circle>
            <path d="M1385.35169,15.9179775 L1379.9809,18.3348315" id="Shape"></path>
            <polygon id="Shape" fill="#513852" fill-rule="nonzero" points="1287.33483 52.9764045 1299.95618 41.9662921 1273.37079 48.411236"></polygon>
            <path d="M1289.21461,135.149438 C1296.46517,102.38764 1298.0764,96.4797753 1299.15056,79.0247191 C1301.29888,42.2348315 1291.9,34.1786517 1285.45506,28.5393258 C1277.66742,21.5573034 1265.04607,17.7977528 1260.4809,22.094382 C1253.76742,28.5393258 1284.11236,47.605618 1285.99213,79.8303371 C1287.06629,97.8224719 1284.64944,120.111236 1283.0382,132.195506 L1280.88989,136.223596 L1277.39888,148.307865 C1277.39888,148.307865 1275.78764,151.798876 1274.44494,154.21573 C1273.90787,155.021348 1274.44494,155.826966 1275.5191,155.558427 C1277.66742,154.48427 1281.15843,148.039326 1281.15843,148.039326 C1281.15843,148.039326 1282.50112,153.141573 1281.42697,159.317978 C1281.15843,161.197753 1279.27865,165.225843 1279.01011,166.837079 C1278.74157,168.179775 1280.08427,171.402247 1281.42697,171.402247 C1285.45506,171.670787 1290.02022,162.003371 1290.28876,157.975281 C1290.82584,155.021348 1288.67753,145.085393 1289.21461,135.149438 Z" id="Shape" fill="#D39C74" fill-rule="nonzero"></path>
            <path d="M1258.06404,21.5573034 C1255.37865,28.0022472 1273.37079,48.411236 1273.37079,48.411236 L1299.95618,41.9662921 C1299.95618,41.9662921 1285.18652,22.6314607 1277.93596,20.4831461 C1272.83371,19.1404494 1259.94382,16.9921348 1258.06404,21.5573034 Z" id="Shape" fill="#EF5B5B" fill-rule="nonzero"></path>
            <path d="M1295.39101,43.0404494 L1299.95618,41.9662921 C1299.95618,41.9662921 1285.18652,22.6314607 1277.93596,20.4831461 C1276.05618,19.9460674 1273.37079,19.4089888 1270.41685,19.1404494 C1271.22247,19.4089888 1271.75955,19.4089888 1272.29663,19.6775281 C1279.27865,21.5573034 1293.2427,40.0865169 1295.39101,43.0404494 Z" id="Shape" fill="#C14D4D" fill-rule="nonzero"></path>
            <path d="M1243.83146,36.5955056 C1243.83146,36.5955056 1251.88764,46.5314607 1255.37865,45.188764 C1257.25843,44.3831461 1257.25843,39.8179775 1256.45281,37.1325843 C1255.64719,33.3730337 1249.20225,18.3348315 1249.20225,18.3348315 L1252.9618,20.2146067 C1252.9618,20.2146067 1255.64719,27.4651685 1256.45281,29.8820225 C1258.60112,35.7898876 1260.74944,44.3831461 1257.52697,47.0685393 C1254.30449,49.7539326 1248.93371,45.188764 1246.78539,42.2348315 C1245.97978,40.6235955 1243.83146,36.5955056 1243.83146,36.5955056 Z" id="Shape" fill="#FFFFFF" fill-rule="nonzero"></path>
            <path d="M1258.06404,21.5573034 C1255.37865,28.0022472 1273.37079,48.411236 1273.37079,48.411236 L1295.39101,43.0404494 C1293.2427,40.0865169 1279.27865,21.5573034 1272.02809,19.4089888 C1271.49101,19.1404494 1270.95393,19.1404494 1270.14831,18.8719101 C1265.04607,18.3348315 1259.40674,18.6033708 1258.06404,21.5573034 Z" id="Shape" fill="#EF5B5B" fill-rule="nonzero"></path>
            <polygon id="Shape" fill="#FF7D7D" fill-rule="nonzero" points="1260.21236 23.1685393 1266.38876 38.2067416 1274.44494 47.605618"></polygon>
            <path d="M179.610112,326.349438 C179.341573,326.617978 179.073034,326.886517 178.804494,327.155056 C179.073034,326.886517 179.610112,326.617978 179.610112,326.349438 Z" id="Shape" fill="#70818E" fill-rule="nonzero"></path>
            <path d="M174.507865,334.137079 C174.776404,333.062921 175.582022,331.451685 176.924719,329.57191 C176.38764,330.377528 176.119101,330.914607 175.850562,331.451685 C175.313483,332.794382 174.776404,333.6 174.507865,334.137079 Z" id="Shape" fill="#70818E" fill-rule="nonzero"></path>
            <path d="M391.219101,103.730337 C378.060674,88.4235955 368.930337,84.9325843 344.761798,82.247191 C301.526966,77.1449438 257.755056,112.055056 245.939326,126.019101 C242.179775,130.58427 263.662921,154.21573 272.524719,163.614607 C276.821348,168.179775 292.12809,154.21573 298.573034,151.530337 C329.723596,138.640449 339.122472,122.796629 365.707865,119.037079 C372.689888,117.962921 379.403371,123.333708 386.385393,129.778652 L405.183146,118.231461 C401.423596,111.517978 393.904494,106.68427 391.219101,103.730337 Z" id="Shape" fill="#FFBA49" fill-rule="nonzero"></path>
            <path d="M394.978652,136.223596 C401.155056,144.548315 413.776404,162.540449 413.776404,162.540449 L427.47191,169.253933 C427.47191,169.253933 414.582022,138.908989 403.840449,119.037079 L387.996629,128.435955 C390.413483,130.852809 392.830337,133.538202 394.978652,136.223596 Z" id="Shape" fill="#D39C74" fill-rule="nonzero"></path>
            <path d="M404.108989,68.5516854 C401.692135,67.4775281 388.802247,78.4876404 385.848315,80.0988764 C384.237079,80.9044944 386.922472,78.7561798 385.848315,80.0988764 C382.357303,86.0067416 373.495506,87.8865169 365.170787,85.7382022 C360.337079,88.6921348 355.234831,118.231461 358.725843,118.5 C360.605618,118.768539 367.050562,113.397753 374.301124,104.535955 C376.449438,102.119101 377.792135,99.4337079 382.088764,98.0910112 C386.116854,96.7483146 383.162921,96.211236 384.505618,96.7483146 C386.116854,97.2853933 390.682022,108.564045 392.830337,108.295506 C394.710112,108.026966 397.395506,106.41573 402.229213,103.998876 C404.108989,102.924719 406.794382,105.341573 408.137079,105.341573 C408.942697,105.341573 409.479775,103.998876 409.748315,103.193258 C410.016854,100.776404 412.970787,95.6741573 412.970787,95.6741573 C413.776404,94.8685393 416.193258,94.3314607 417.535955,92.7202247 C423.44382,86.8123596 418.878652,87.6179775 418.341573,86.2752809 C417.535955,84.1269663 411.091011,72.0426966 404.108989,68.5516854 Z" id="Shape" fill="#D39C74" fill-rule="nonzero"></path>
            <path d="M414.582022,62.6438202 C441.167416,82.5157303 424.786517,96.7483146 418.341573,91.6460674 C412.702247,87.0808989 401.692135,86.5438202 399.81236,81.9786517 C398.738202,79.2932584 398.201124,78.4876404 397.126966,77.6820225 C396.321348,77.1449438 393.904494,78.2191011 393.098876,81.7101124 C391.75618,86.8123596 385.042697,83.5898876 384.505618,83.052809 C382.894382,81.9786517 384.774157,73.9224719 388.533708,69.3573034 C393.635955,63.7179775 399.54382,54.5876404 414.582022,62.6438202 Z" id="Shape" fill="#754B2E" fill-rule="nonzero"></path>
            <path d="M397.395506,106.68427 C397.395506,106.68427 396.858427,105.878652 396.589888,105.341573 C396.321348,104.535955 396.858427,101.044944 396.858427,101.044944 L400.349438,104.535955 L397.395506,106.68427 Z" id="Shape" fill="#FFFFFF" fill-rule="nonzero"></path>
            <path d="M416.730337,94.3314607 C416.730337,94.3314607 413.776404,95.6741573 412.970787,95.1370787 C411.896629,94.6 410.016854,90.8404494 410.016854,90.8404494 L416.730337,94.3314607 Z" id="Shape" fill="#734B31" fill-rule="nonzero"></path>
            <polygon id="Shape" fill="#C98463" fill-rule="nonzero" points="386.385393 93.5258427 387.459551 96.7483146 381.820225 98.6280899"></polygon>
            <path d="M384.505618,188.320225 C382.625843,186.708989 374.838202,186.708989 371.61573,185.903371 C370.004494,185.366292 362.485393,182.680899 362.485393,182.680899 L318.982022,157.438202 L329.186517,125.750562 L309.851685,124.944944 L300.989888,170.059551 L349.864045,181.875281 C353.355056,185.097753 362.216854,193.422472 365.170787,194.496629 C368.930337,195.570787 377.792135,195.033708 381.283146,196.107865 C383.968539,196.913483 388.802247,203.089888 389.070787,200.135955 C389.607865,196.644944 387.459551,190.737079 384.505618,188.320225 Z" id="Shape" fill="#D39C74" fill-rule="nonzero"></path>
            <path d="M329.455056,92.4516854 C329.455056,92.4516854 315.759551,97.0168539 312.805618,100.507865 C307.434831,106.41573 301.795506,130.58427 301.795506,130.58427 L310.657303,133.806742 L329.455056,92.4516854 Z" id="Shape" fill="#E99F2F" fill-rule="nonzero"></path>
            <path d="M328.11236,91.9146067 C316.296629,96.4797753 302.869663,131.926966 302.869663,131.926966 L331.066292,132.732584 C331.066292,132.732584 336.168539,123.602247 339.122472,111.786517 C341.807865,102.38764 345.567416,84.9325843 328.11236,91.9146067 Z" id="Shape" fill="#FFBA49" fill-rule="nonzero"></path>
            <path d="M335.094382,95.1370787 C335.094382,95.1370787 327.575281,102.38764 324.08427,110.44382 C321.935955,115.814607 317.370787,132.464045 317.370787,132.464045 L329.992135,132.464045 C329.992135,132.464045 338.853933,111.249438 338.585393,103.998876 C338.316854,101.582022 335.094382,95.1370787 335.094382,95.1370787 Z" id="Shape" fill="#FFD092" fill-rule="nonzero"></path>
            <polygon id="Shape" fill="#BAC0C6" fill-rule="nonzero" points="792.148315 308.357303 806.380899 287.679775 836.457303 345.41573 825.447191 373.075281"></polygon>
            <polygon id="Shape" fill="#E8F3F3" fill-rule="nonzero" points="752.673034 322.052809 769.322472 301.64382 806.380899 287.679775 792.148315 308.357303"></polygon>
            <polygon id="Shape" fill="#E5E6E9" fill-rule="nonzero" points="752.673034 322.052809 792.148315 308.357303 825.447191 373.075281 784.360674 385.159551"></polygon>
            <circle id="Oval" stroke="#B1BFCF" stroke-width="1.67782299" fill="#FFFFFF" fill-rule="nonzero" transform="translate(794.573386, 360.741592) rotate(-27.103144) translate(-794.573386, -360.741592) " cx="794.573386" cy="360.741592" r="15.0384083"></circle>
            <path d="M800.741573,356.962921 C802.621348,360.453933 801.278652,365.019101 797.519101,366.898876 C793.759551,368.778652 789.462921,367.435955 787.583146,363.676404 C785.703371,360.185393 787.046067,355.620225 790.805618,353.740449 C794.296629,352.129213 798.861798,353.47191 800.741573,356.962921 Z" id="Shape" fill="url(#linearGradient-30)" fill-rule="nonzero"></path>
            <circle id="Oval" fill="#FFFFFF" fill-rule="nonzero" transform="translate(780.334088, 332.822632) rotate(-27.103144) translate(-780.334088, -332.822632) " cx="780.334088" cy="332.822632" r="11.0102632"></circle>
            <circle id="Oval" fill="#B1BFCF" fill-rule="nonzero" transform="translate(780.353530, 332.548669) rotate(-27.103144) translate(-780.353530, -332.548669) " cx="780.35353" cy="332.548669" r="7.78774714"></circle>
            <polygon id="Shape" fill="#C14D4D" fill-rule="nonzero" points="568.723596 210.877528 592.623596 199.867416 574.631461 203.089888"></polygon>
        </g>
    </g>
</svg>