<?xml version="1.0" encoding="utf-8"?>
<!-- Generator: Adobe Illustrator 21.0.2, SVG Export Plug-In . SVG Version: 6.00 Build 0)  -->
<svg version="1.1" id="Layer_1" xmlns="http://www.w3.org/2000/svg" xmlns:xlink="http://www.w3.org/1999/xlink" x="0px" y="0px"
	 viewBox="0 0 220 220" style="enable-background:new 0 0 220 220;" xml:space="preserve">
<style type="text/css">
	.st0{fill:#FFF7EE;}
	.st1{fill:#FFFCF8;}
	.st2{fill:#D39C74;}
	.st3{fill:#3D5450;}
	.st4{fill:#243331;}
	.st5{fill:#EF5B5B;}
	.st6{fill:#B97445;}
	.st7{fill:#70818E;}
	.st8{fill:#FFBA49;}
	.st9{fill:#D5DAE0;}
	.st10{fill:#663B61;}
	.st11{fill:#FFFFFF;}
	.st12{fill:#E5E6E9;}
	.st13{fill:url(#SVGID_1_);}
	.st14{fill:#754B2E;}
	.st15{fill:#543723;}
	.st16{fill:url(#SVGID_2_);}
	.st17{fill:#C14D4D;}
	.st18{fill:#314341;}
	.st19{fill:#C77E50;}
	.st20{fill:#A75330;}
	.st21{fill:#513852;}
	.st22{fill:none;stroke:#35306C;stroke-width:0.3938;stroke-miterlimit:10;}
	.st23{fill:none;stroke:#35306C;stroke-width:0.4181;stroke-miterlimit:10;}
	.st24{fill:#35306C;}
	.st25{fill:#FFD092;}
	.st26{fill:none;stroke:#26C1DB;stroke-width:1.2923;stroke-miterlimit:10;}
	.st27{fill:#16CCBB;}
	.st28{fill:#BAC0C6;}
	.st29{fill:url(#SVGID_3_);}
	.st30{fill:#26C1DB;}
	.st31{fill:#E5A342;}
</style>
<g>
	<path class="st0" d="M18.9,144.8c0.1,10.7,3.6,19.4,4.6,22.1c3.6,9,5.8,7.7,9.1,15.9c4.9,12.2,1.4,18.4,5.8,26.1
		c4.2,7.4,13.1,11.5,20.9,6c7.7-5.5,7.4-15.4,17-25.2c9.2-9.6,12.8-3.7,21.8-12.3c9.2-8.8,17.4-26.4,18.7-41.3
		c1.3-15.9-7.9-17.3,11.1-29c19.7-12,21.1,26.5,25.2,56.3c3.3,25,48.6,31.9,48.2,4.1c-1.2-70.2-3.8-77.5-19.6-103
		c-4.1-6.5-30.6-27.6-59.4-14.1c-8.4,4-14.7,14.8-23.8,16.3c-24.3,3.6-62.2,6.9-67.2,33.3C27.1,121.8,18.6,127.6,18.9,144.8z"/>
	<path class="st1" d="M18.9,132c0.1,10.7,3.6,19.4,4.6,22.1c3.6,9,5.8,7.7,9.1,15.9c4.9,12.2,1.4,18.4,5.8,26.1
		c4.2,7.4,13.1,11.5,20.9,6c7.7-5.5,7.4-15.4,17-25.2c9.2-9.6,12.8-3.7,21.8-12.3c9.2-8.8,17.4-26.4,18.7-41.3
		c1.3-15.9-7.9-17.3,11.1-29c19.7-12,21.1,26.5,25.2,56.3c3.3,25,48.6,31.9,48.2,4.1c-1.2-70.2-3.8-77.5-19.6-103
		c-4.1-6.5-30.6-27.6-59.4-14.1c-8.4,4-14.7,14.8-23.8,16.3c-24.3,3.6-62.2,6.9-67.2,33.3C27.1,109,18.6,114.8,18.9,132z"/>
	<path class="st2" d="M126,80.2l4.9-4c0,0,1.3-1.3,2-2.3c0.3-0.4,0.8-0.3,0.8,0.1c0,1.2-2.3,3.8-2.3,3.8s4-1.3,5.1-2
		c0.8-0.5,2.2-2.2,2.8-2.4c0.5-0.4,2.4-0.4,2.7,0.1c0.9,1.7-2.4,5.5-4.2,6.4c-1.7,0.8-11.4,3.8-13.3,4c-1.5,0.1-0.3-1.9-0.3-1.9
		L126,80.2z"/>
	<path class="st3" d="M127,77.7l-27.9,6c0,0-14.7-14.5-18.4-25.7c-1.3-3.6-8.1,13.8-1.7,20.9c2.8,2.9,9.1,10.6,14.8,13.1
		c2.3,1,4.7,0.5,7,0l28.2-7.2L127,77.7z"/>
	<polygon class="st4" points="85.4,70 88.1,70.7 91.4,86.7 93.9,92 88.1,88.1 	"/>
	<polygon class="st5" points="141.5,0.5 138.6,7.7 143.9,7.9 	"/>
	<path class="st6" d="M160.7,202.4c0,0.3,0,0.4,0,0.5c0-0.4,0-0.9-0.1-1.4l0,0c0-0.1,0-0.4,0-0.5l0,0c0-0.4-0.1-0.6-0.3-0.9l0,0
		c0-0.1-0.1-0.3-0.1-0.4l0,0c0-0.1-0.8-14.5-0.8-14.7c0,0-5.4-2.4-6.5-1.3c-0.1,0.1,2.4,18.2,2.4,18.3c-0.1,0.1-0.4-1.9-0.5-1.8
		l0.9,0.8C155.4,201,160.4,200.4,160.7,202.4z"/>
	<path class="st6" d="M170.6,207.1c0,0.3,0,0.4,0,0.5c0-0.4,0-0.9-0.1-1.4l0,0c0-0.1,0-0.4,0-0.5l0,0c0-0.4-0.1-0.6-0.3-0.9l0,0
		c0-0.1-0.1-0.3-0.1-0.4l0,0c0-0.1-2-13.9-2-14.1c0,0-2.7-4.2-4-3.1c-0.1,0.1,1.2,19.4,1,19.6c-0.1,0.1-0.4-1.9-0.5-1.8l0.9,0.8
		C165.5,205.7,170.4,205.1,170.6,207.1z"/>
	<path class="st7" d="M164.9,204.7c0.1-0.1,0.3-0.3,0.4-0.4C165.3,204.5,165.1,204.6,164.9,204.7z"/>
	<path class="st8" d="M170.9,208.4c0-0.6-0.3-4-0.5-4.9c0.1,0.5-5.5,0.3-6.8-0.3c-0.3-0.1,0,1.5,0,1.5c-5.2,4.7-13.1,2.6-13.1,5.4
		c0,0.8,2.2,1.5,2.4,1.5c2.8,0.8,3.3,1,6.7,0.6c5-0.6,9.2-0.3,10.7-1.8C170.8,210,170.9,210,170.9,208.4z"/>
	<path class="st9" d="M170.4,210.2c-1.8,1.2-5.6,0.8-10.6,1.3c-3.5,0.4-3.8,0.3-6.7-0.6c-0.1,0-1.9-0.5-2.3-1.2
		c-0.1,0.1-0.3,0.4-0.3,0.8c0,0.8,2.2,1.5,2.4,1.5c2.8,0.8,3.3,1,6.7,0.6c5-0.6,9.3-0.3,10.9-1.8c0.3-0.3,0.4-0.5,0.4-1
		C170.6,210,170.6,210.1,170.4,210.2z"/>
	<path class="st10" d="M170.6,206.3L170.6,206.3L170.6,206.3z"/>
	<path class="st10" d="M170.5,205.7L170.5,205.7L170.5,205.7z"/>
	<path class="st11" d="M154.8,208c0,0,1.2,0.6,1.4,0.9c0.4,0.6,0.4,2.7,0.4,2.7l-5.9-1.2c0,0-0.6-0.9-0.5-1.2
		C150.8,208.4,154.8,208,154.8,208z"/>
	<path class="st12" d="M145.3,110.3c0,0-0.6,9.7-0.5,13.1c0.6,17.1,5.2,71.7,5.2,71.7l10.9,0.9l-2.6-44l0.9-21.9l2.2,23.7l0.4,46.8
		l9.9-1.2l1.8-50.9c0,0,1.3-19.8,0.8-25.8c-0.4-4.6-4-16.1-4-16.1L145.3,110.3z"/>
	<polygon class="st2" points="82.1,189.1 82,199.2 77.5,200.6 77,187.7 	"/>
	<polygon class="st2" points="65.1,192.8 63.7,202.8 59.1,203.4 60.2,190.8 	"/>
	
		<linearGradient id="SVGID_1_" gradientUnits="userSpaceOnUse" x1="75.5666" y1="19.6576" x2="94.6175" y2="19.6576" gradientTransform="matrix(1 0 0 -1 0 222)">
		<stop  offset="0" style="stop-color:#8A99BA"/>
		<stop  offset="0.821" style="stop-color:#7C86B3"/>
	</linearGradient>
	<path class="st13" d="M77.4,199.5c0.1,0.8-2.3,2.3-1.7,2.9c1.3,1.5,5.4,1.3,8.6,2.7c6.9,3.2,10.4,0,10.4-0.8
		c0.3-3.6-8.7-2.7-11.1-4.4c-1.8-1.2-5.9-1.8-5.9-1.8S77.2,198.8,77.4,199.5z"/>
	<path class="st14" d="M75.7,202.4c1.5,1.3,5,0.1,8.2,1.7c6.9,3.2,10-0.3,10.4-0.8c0.9-1.3-9-4.6-11.4-6.3c-0.8-0.5-1.7,0.4-2.8,0.3
		c-1.4-0.3-3.1-1.7-3.1-1.7S74.3,201.3,75.7,202.4z"/>
	<path class="st15" d="M85,197.8c0,0-2-0.1-2.6,0c-0.8,0.4-2.7,1.9-2.7,1.9"/>
	<path class="st15" d="M87.2,199c0,0-2-0.3-2.6,0c-0.8,0.3-2.7,1.8-2.7,1.8"/>
	
		<linearGradient id="SVGID_2_" gradientUnits="userSpaceOnUse" x1="56.695" y1="16.4175" x2="76.0504" y2="16.4175" gradientTransform="matrix(1 0 0 -1 0 222)">
		<stop  offset="0" style="stop-color:#8A99BA"/>
		<stop  offset="0.821" style="stop-color:#7C86B3"/>
	</linearGradient>
	<path class="st16" d="M58.9,201.5c0,0.9-2.6,2-2.2,2.8c1,1.8,5.4,2.2,8.4,4.1c6.7,4.4,10.6,1.5,10.7,0.8c0.8-3.7-8.6-4.1-10.9-6.1
		c-1.7-1.5-5.9-2.7-5.9-2.7S58.9,200.9,58.9,201.5z"/>
	<path class="st14" d="M56.8,204.5c1.4,1.7,5.2,0.9,8.2,2.9c6.7,4.4,10.4,1.3,10.7,0.8c1.2-1.2-8.6-6.1-10.9-8.2
		c-1.7-1.5-5.9-2.3-5.9-2.3S55.6,203.1,56.8,204.5z"/>
	<path class="st15" d="M67,201c0,0-2.2-0.5-2.7-0.4c-0.8,0.3-3.1,1.5-3.1,1.5"/>
	<path class="st15" d="M69.3,202.5c0,0-2.2-0.6-2.7-0.4c-0.8,0.3-3.1,1.5-3.1,1.5"/>
	<path class="st5" d="M90.3,104.1c0,0-0.1,12.8-0.3,16.1c-0.8,18-5.6,71.4-5.6,71.4l-3.8,1.5l-4.5,0.3l0.6-44.1l1.5-20.5l-2.7,22.9
		L66.5,196c0,0-3.2,1.2-4.5,0.9c-1-0.1-4.5-1.5-4.5-1.5l4.7-49.1c0,0-0.6-23.5,0-29.8c0.5-4.7,3.6-14.3,3.6-14.3L90.3,104.1z"/>
	<polygon class="st17" points="84.3,191.7 80.7,192.4 85.2,146.8 87.2,113.7 89.4,112.2 88.5,146.4 	"/>
	<polygon class="st17" points="81.6,113.1 75.4,152 66.5,196.1 62.1,197 72.5,150.7 76.8,113.1 	"/>
	<path class="st18" d="M82.5,54.1c1.8,3.7,4.1,9.5,5.6,16.6c1.8,8.1,0.6,9.6,1.3,15.7c1.3,12.4,1.4,21.2-0.1,24.4
		c-3.8,4.5-21,7.7-26.9,1c-2-1.5,5.1-12.5,2.8-20.1c-4.5-14.1-6.4-32.6,0-34.8c3.6-1.2,7.8-5.8,11.4-6.4
		C79.1,50.1,81.6,57.3,82.5,54.1z"/>
	<path class="st2" d="M90.9,29c0.5,0.1,0.1,1.7,0.5,5.5c0.1,1,0.3,1.8,0.4,2.3c0,0,0.4,0.5,2.8,1.5c-0.5,0.3-1.2,0.9-1.7,1.7
		c-0.3,0.4-0.5,0.9-0.6,1.8c-0.5,2.4-1.4,5.4-1.9,6c-0.6,0.8-6.1-1.7-6.8-1.2c-0.5,0.3-0.9,0.8-1.7,2.6c-0.8,1.9-0.6,2.7-0.6,3.5
		c0.1,1.7,2,3.1,1.5,3.6c-1.3,1.2-10.2-1.2-9.9-3.6c0.1-0.9,1-1.2,2.2-2.2c0.8-0.6,3.6-3.7,2.9-6.7c-0.1-0.8-0.5-1.2-0.4-1.9
		c0.3-1.4-1.3-13.7,5.1-11.8C86.4,31.6,89.9,28.6,90.9,29z"/>
	<path class="st14" d="M92.5,34.5c0,0-2.3-1-3.1-0.8c-0.6,0.1-1.5,1.7-1.5,1.7L92.5,34.5z"/>
	<polygon class="st11" points="91.7,44.9 88.2,42.7 92.2,43.1 	"/>
	<polyline class="st19" points="82,48.7 82.3,45.9 83.9,46.4 	"/>
	<path class="st14" d="M164.5,49.5c1.7-2.3,3.1-9.1,1.8-11.1c-1.4-2.4-6.9-6.1-13.9-5.4c-3.8,0.5-5.5,4-5.9,6.5
		c-0.4,3.1,5.9,9,4.1,11.6C149.5,52.6,163.5,50.9,164.5,49.5z"/>
	<path class="st6" d="M154.3,48.2c0.3,17.8-4.4,17.8-4.4,17.8l0.4,15.6l12.9-15c0,0-2.8-5.9-2.9-7.9c-0.3-2.4,0.5-7.8,0.5-7.8
		S154.3,47.3,154.3,48.2z"/>
	<path class="st6" d="M150.2,40.3c-3.6,1.7-0.5,15.2,3.6,17c3.7,1.5,13.6-6.4,8.7-14.3C161,40.4,154.1,38.5,150.2,40.3z"/>
	<polygon class="st20" points="154.1,46.4 152.6,50.9 155.3,51.4 	"/>
	<path class="st21" d="M160.7,46.8c0,0-1.8-1-2.6-1c-0.5,0-1.7,0.9-1.7,0.9L160.7,46.8z"/>
	<path class="st21" d="M152.9,47.2c0,0-1.7-1.2-2.3-1.2c-0.5,0-1.5,0.8-1.5,0.8L152.9,47.2z"/>
	<path class="st11" d="M152.7,53.5l5.1,0.3c0,0-2.4,1.7-3.3,1.5C153.9,55.1,152.7,53.5,152.7,53.5z"/>
	<path class="st8" d="M163,61.3c-2.3-0.8-7.5,11.5-10,11.5c-3.5,0-3.3-8.6-3.3-8.6s-9.1,10.6-6.5,30.1c2.6,20.2-2.7,20.7,2.4,22.4
		c22.9,7.5,32.5,17.5,32.1-31.2C177.5,74.2,174.6,65.2,163,61.3z"/>
	<ellipse class="st22" cx="151.1" cy="46.7" rx="2.6" ry="2.4"/>
	<ellipse class="st23" cx="158.4" cy="46.6" rx="2.8" ry="2.6"/>
	<polygon class="st24" points="161.2,46.9 164.5,48.2 164.9,47.6 161.3,46.2 	"/>
	<polygon class="st24" points="153.5,46.3 155.4,46.2 155.4,47.1 153.5,46.9 	"/>
	<path class="st25" d="M183.4,32c-1.2-2.7-2.6-5.1-4.4-7.4c-8.1-11.1-21.6-18.4-37-18.4c-0.3,0-0.5,0-0.8,0c2.9,0.9,5.8,2,8.4,3.6
		c10.6,5.8,17.8,15.1,20.9,25.5c0.6,2.3,1.2,4.6,1.3,6.9c0,0,4.9-2.8,6.8-2.8c2,0,7.7,2.8,7.7,2.8C185.9,38.5,184.8,35.2,183.4,32z"
		/>
	<path class="st26" d="M141.8,8l0.5,60.7c0,0,0.3,8.6-3.3,10c-1.7,0.8-4.4,0-4.4-1.8"/>
	<path class="st27" d="M103.8,26.2c-3.1,4.7-5.2,10.1-6.1,15.9c0,0,5.8-2.3,7.8-2.4c2.3,0,8.7,2.4,8.7,2.4c0.1-2.8,2.7-5.8,3.3-8.4
		c3.1-11.6,11.5-21.9,23.3-27.4V6C125.2,6.4,111.5,14.4,103.8,26.2z"/>
	<path class="st25" d="M114.6,33.6c-0.8,2.7-1.3,5.5-1.4,8.3c0,0,10-3.6,13.4-3.6c3.7,0,14.2,3.6,14.2,3.6V6.1
		C127.5,11.9,118.2,22,114.6,33.6z"/>
	<path class="st27" d="M170.6,35.2c-2.9-10.4-10.1-19.7-20.9-25.5c-2.7-1.5-5.6-2.7-8.4-3.6l0,0c-0.1,0.1-0.3,0.1-0.5,0.3v35.8h2.2
		c0,0,11.1-3.2,15-3.2c3.6,0,13.9,3.2,13.9,3.2C171.8,39.6,171.3,37.3,170.6,35.2z"/>
	<path class="st6" d="M72.8,29.3c-0.9,1.3-0.8,4.4,0.3,8.2c0.8,3.1,3.3,5.9,4.2,5.6c0.4-0.1,0.4-0.8,0.6-3.5
		c0.4-5.1,0.6-5.9,1.3-6.1c0.8-0.3,1.3,1.2,2.9,1.4c2.7,0.6,6.7-2.6,10.6-3.6c4.4-1.2-4-8.1-14.3-7.2C75.6,24.4,73.3,28.1,72.8,29.3
		z"/>
	<path class="st8" d="M160.8,203.4c0-0.6-0.1-3.7-0.4-4.6c0.1,0.5-5.5,0.3-6.8-0.3c-0.3-0.1,0,1.5,0,1.5c-5.2,4.7-13.1,2.6-13.1,5.4
		c0,0.8,2.2,1.5,2.4,1.5c2.8,0.8,3.3,1,6.7,0.6c5-0.6,9.2-0.3,10.7-1.8C160.8,205.2,160.8,205,160.8,203.4z"/>
	<path class="st9" d="M160.3,205.6c-1.8,1.2-5.6,0.8-10.6,1.3c-3.5,0.4-3.8,0.3-6.7-0.6c-0.1,0-1.9-0.5-2.3-1.2
		c-0.1,0.1-0.3,0.4-0.3,0.8c0,0.8,2.2,1.5,2.4,1.5c2.8,0.8,3.3,1,6.7,0.6c5-0.6,9.3-0.3,10.9-1.8c0.3-0.3,0.4-0.5,0.4-1
		C160.7,205.2,160.5,205.5,160.3,205.6z"/>
	<path class="st10" d="M159.9,200.7L159.9,200.7L159.9,200.7z"/>
	<path class="st10" d="M159.3,199.6C159.3,199.6,159.4,199.6,159.3,199.6C159.4,199.6,159.3,199.6,159.3,199.6z"/>
	<path class="st11" d="M145,203.3c0,0,1.2,0.6,1.4,0.9c0.4,0.6,0.4,3.1,0.4,3.1l-5.9-1.5c0,0-0.9-0.9-0.8-1.2
		C140.8,203.7,145,203.3,145,203.3z"/>
	<path class="st11" d="M148.1,62.7c0,0,1.7,6.1,2.6,8.1c0.5,1.2,1.5,4.1,2.8,4.2c5,0.3,13.4-13.8,13.4-13.8l-3.8,0.1l-5.8,5.5
		c0,0-2.3,3.3-3.5,2.9c-1.5-0.4-1.9-5.8-1.9-5.8L148.1,62.7z"/>
	<path class="st2" d="M87,103.6c0,0,8.6,0.1,10.1-0.6c1.7-0.8,4.5-3.6,6-4.5c1.2-0.6,4.7,0,4-1c-1-1.2-3.6-2.4-5.4-2.3
		c-1.2,0-3.8,2.4-5.1,3.1c-0.6,0.4-2.9,0.9-2.9,0.9L87,103.6z"/>
	<path class="st18" d="M69.2,56.4c-1.7-0.4-6.3,1.4-7.4,4.4c-1.7,4.1-1,5.9-2.4,14.5c-1.8,11.5-1.8,16.1-1.9,18.9
		c-0.1,1,4.1,3.3,5.1,3.7c4,1.5,7.4,2.7,11.9,4.2c8.6,2.9,15.1,4.2,15.1,4.2s3.8-7.4,2.2-7.4c-6.8,0-24.8-9.2-24.8-9.2
		s0.9-8.2,2.6-16.3C71.2,63.3,71.5,56.9,69.2,56.4z"/>
	<polygon class="st28" points="168.5,199.5 169.6,199.1 169.7,162 171.9,123.2 168.5,124.5 167.6,162.5 	"/>
	
		<linearGradient id="SVGID_3_" gradientUnits="userSpaceOnUse" x1="78.3803" y1="164.3097" x2="78.3803" y2="164.3097" gradientTransform="matrix(1 0 0 -1 0 222)">
		<stop  offset="0.1919" style="stop-color:#26C1DB"/>
		<stop  offset="1" style="stop-color:#64BFB1"/>
	</linearGradient>
	<path class="st29" d="M78.4,57.7"/>
	<polygon class="st30" points="79.8,63.1 81.2,86.2 82.1,89.4 83.8,84.6 80.9,61.1 82.9,56.4 76.7,56.9 	"/>
	<path class="st11" d="M74,51c0,0,1.9,2.3,2.6,3.1c1.2,1.3,3.3,2.3,3.3,2.3l-2.2,4.9c0,0-4.4-4.5-5.6-6c-1.3-1.4-1.3-3.1-1.3-3.1
		L74,51z"/>
	<polygon class="st11" points="82.7,53.7 80,56.4 82.1,60.2 85,57.4 	"/>
	<path class="st4" d="M63.8,95.4c-1-0.4-5.1-2.6-5.1-3.6c0.1-2.7,0-7.4,1.7-18.9c1-7.2,0.8-9.6,1.5-12.7c-0.1,0.1-0.1,0.3-0.3,0.4
		c-1.7,4.1-1,5.9-2.4,14.5c-1.8,11.5-1.8,16.1-1.9,18.9c-0.1,1,4.1,3.3,5.1,3.7c4,1.5,7.4,2.7,11.9,4.2c8.6,2.9,15.1,4.2,15.1,4.2
		s0.6-1.3,1.3-2.7c-0.9-0.1-7.2-1.3-15.1-4C71.2,98.1,67.6,97,63.8,95.4z"/>
	<polygon class="st4" points="69.9,61.7 69.4,88.1 73.3,98.4 64.9,90.7 	"/>
	<path class="st3" d="M91.6,98.8c-6.8,0-24.8-9.2-24.8-9.2s0.9-8.2,2.6-16.3c1.9-9.9,2.2-16.3-0.3-16.8c-1.5-0.4-5.8,1.3-7.2,4
		c-0.8,2.9-0.5,5.5-1.5,12.7c-1.7,11.5-1.5,16.1-1.7,18.9c0,1,4.1,3.3,5.1,3.6c4,1.4,7.4,2.6,11.9,4.1c7.9,2.7,14.2,3.8,15.1,4
		C91.6,101.3,92.6,98.8,91.6,98.8z"/>
	<polygon class="st31" points="167.3,72.4 165.3,90.7 160.7,102 162.8,114.9 173.6,107 176,100.8 166.7,79.3 	"/>
	<path class="st8" d="M168.2,67.7c-0.8,0-4,1.8-2.6,9.2c4.1,22.8-4,27.1-4,27.1v7.4c0,0,12.4-2.7,15-10.2
		C186.1,74.1,170.9,67.8,168.2,67.7z"/>
	<path class="st11" d="M161.8,98.4l-0.1,5.5c0,0-0.5,5.6,0,7.4c0.4,1.4,3.3,5,3.3,5s-4.6-2.9-5.4-4.5c-0.9-1.8-0.6-5.9-0.3-7.8
		C159.5,102.5,161.8,98.4,161.8,98.4z"/>
</g>
</svg>
