<svg xmlns="http://www.w3.org/2000/svg" viewBox="0 0 291.72 251.71"><defs><style>.cls-1{fill:#16cab9;}</style></defs><title>Asset 153</title><g id="Layer_2" data-name="Layer 2"><g id="Layer_1-2" data-name="Layer 1"><path class="cls-1" d="M55.32,209.84a1.43,1.43,0,0,0-2,.13,22.54,22.54,0,1,1,0-31.14,1.47,1.47,0,0,0,2,.14l8.86-7.48a1.45,1.45,0,0,0,.16-2.08,37,37,0,1,0,0,50,1.45,1.45,0,0,0-.16-2.08Z"/><rect class="cls-1" x="76.98" y="157.18" width="14.28" height="74.47" rx="1.46" ry="1.46"/><path class="cls-1" d="M136.66,232.08l-13.36,5-1.15-3-19.87-52.58a1.46,1.46,0,0,1,1.36-2h12.14a1.46,1.46,0,0,1,1.36.94l3.68,9.72,9,23.83.39,1Z"/><path class="cls-1" d="M155.44,179.54a1.46,1.46,0,0,1,1.37,2l-5.64,15.57-.16.44-14.52,40.06a30.21,30.21,0,0,1-3.8,6.29l-.06.07a20.56,20.56,0,0,1-7.4,5.94s0,0-.06,0a19,19,0,0,1-2.93,1.11,19.57,19.57,0,0,1-5.3.71,27.05,27.05,0,0,1-11.19-2.85,1.45,1.45,0,0,1-.69-1.91l4.66-10.38a1.45,1.45,0,0,1,1.94-.72c1.82.86,4.83,1.95,6.8,1.38a6.93,6.93,0,0,0,3.69-3.13s0,0,0,0a18,18,0,0,0,1.22-2.2l5.91-16.34.55-1.51,6.39-17.67,0-.07L142,180.5a1.46,1.46,0,0,1,1.37-1Z"/><rect class="cls-1" x="205.21" y="157.18" width="14.28" height="74.47" rx="1.46" ry="1.46"/><path class="cls-1" d="M205.21,181.28a27.72,27.72,0,1,0,12.28,23A27.53,27.53,0,0,0,205.21,181.28Zm-15.47,36.5a13.47,13.47,0,1,1,13.47-13.48A13.49,13.49,0,0,1,189.74,217.78Z"/><path class="cls-1" d="M260,172.68a30.09,30.09,0,1,0,23.47,50.74,1.46,1.46,0,0,0-.14-2.09l-8.65-7.4a1.42,1.42,0,0,0-1.94,0,15.81,15.81,0,0,1-26.62-14.25,15.37,15.37,0,0,1,2.27-5.65,15.84,15.84,0,0,1,29.09,8.65,15.6,15.6,0,0,1-1,5.63h13.55a1.46,1.46,0,0,0,1.44-1.22,30.77,30.77,0,0,0,.33-4.42A30.12,30.12,0,0,0,260,172.68Z"/><rect class="cls-1" x="238.13" y="194.08" width="45.31" height="14.28"/><path class="cls-1" d="M184.06,71.72"/><path class="cls-1" d="M222,26.4c-1.9,14-9.29,40.55-38,45.31l-3.37-27.84a1.5,1.5,0,0,0-2.81-.53c-2.9,5.49-8.48,14.24-15.65,16.7-1.69-4.73-3.25-11.5-6-18l0,0a36.87,36.87,0,0,0-9-13.31c-8.48-7.56-22.48-10.36-47.26.22h0a105.84,105.84,0,0,0-9.05,17.91h0c-6.41,16.16-11.43,40,3.95,58a38.59,38.59,0,0,1-1.2-10.07,32.29,32.29,0,0,1,4.34-15.68c-4.47,9.4-3.56,19.95.77,29.78l0,0c8.26,18.92,33.05,35.33,59,35.33a57,57,0,0,0,27.72-7s10,4.4,18.89-20.15c0,0-2.2-12.46-3.88-14.69,0,0,28.41-46.48,24.57-76A1.5,1.5,0,0,0,222,26.4ZM150.72,94c-2.4.2-8.53.57-12.26-.8A48.27,48.27,0,0,1,131,89.62a.38.38,0,0,1,.18-.71c4.4-.32,7-4.31,10-3.44s1.66,6,9.53,8.19A.19.19,0,0,1,150.72,94Zm27.77-44.26,2.43,21.93a24.83,24.83,0,0,1-10.36-2.8C174.31,63.61,177.62,57.76,178.49,49.77Zm.74,73.9c-3.41,1.56-16.32-.42-15.05-1.72C172.59,113.43,189.22,119.08,179.23,123.67Zm12.39-32.12s17.93-14.38,30.94-52.26c0,0-.68,9-6.7,25-4.48,11.89-12.61,28.88-18.11,35.75C197.75,100.06,191,98.06,191.62,91.55Z"/><path class="cls-1" d="M105.75,29.33l-.12,0c-.06,0-.15,0-.27,0s-.41,0-.7,0a13.53,13.53,0,0,1-1.81-.06h-.12l-.26,0-.4-.06c-.23,0-.48-.06-.73-.1l-.39-.06c-.32-.05-.67-.12-1-.2h0l-.23,0c-.61-.14-1.28-.29-2-.49-.54-.15-1.11-.3-1.7-.49l-.91-.29c-.94-.31-2-.66-3-1.08l-1.11-.44-1.16-.47c-.53-.22-1.07-.45-1.62-.7q-1.09-.48-2.1-1l-.66-.3-.44-.22-.66-.32-.78-.4-1-.53-.69-.37c-.53-.3-1-.59-1.53-.89l-.83-.51c-.19-.11-.37-.23-.55-.35L78,19.5c-.27-.19-.53-.37-.78-.56s-.51-.37-.73-.55-.57-.45-.84-.68-.51-.44-.75-.67-.48-.44-.69-.66-.42-.44-.62-.66a18.2,18.2,0,0,1-1.95-2.64c-.27-.44-.51-.88-.74-1.32s-.44-.88-.64-1.33a6.67,6.67,0,0,0-1.56-2.28s0,0,0,0l-.34-.25a1.2,1.2,0,0,0-1.52,0c-.59.53-.78,1.82-.14,3.54,0,.13.09.27.13.41a2.15,2.15,0,0,1,.07.24c0,.08.05.16.07.24a39.06,39.06,0,0,1,.81,3.94c0,.26.09.53.13.8.17,1.1.33,2.27.48,3.49.09.6.16,1.22.22,1.86.06.48.11,1,.16,1.44,0,.22,0,.44.07.67s.05.45.08.68v.05s0,.05,0,.08c.07.59.12,1.19.17,1.78a.15.15,0,0,1,0,.07c.1,1.21.2,2.39.28,3.5,0,.57.07,1.11.1,1.63,0,.27,0,.53.05.78s0,.25,0,.37,0,.47,0,.7,0,.22,0,.33,0,.43,0,.63h0c0,.4,0,.76,0,1.08a13.06,13.06,0,0,0,.72,4.12q.12.34.27.72a1.57,1.57,0,0,1,.09.23l.09.24c.08.18.15.36.25.54s.1.21.16.32c.14.27.29.54.44.8l.1.18.45.7c.16.23.32.45.49.67l.09.11c.15.19.31.38.48.56a1.18,1.18,0,0,0,.15.18l.38.38.3.28a6.83,6.83,0,0,0,.73.6c.13.09.25.19.38.27l0,0,.23.15.11.06.41.24c.13.08.27.15.41.22s.49.22.72.3l.08,0,.3.09a3.55,3.55,0,0,0,.56.16,6.46,6.46,0,0,0,.88.15l.55,0q.6,0,1.23,0a5,5,0,0,0,.55,0c.2,0,.39,0,.58,0,.55-.05,1.09-.1,1.64-.17h0l.13,0c1.07-.15,2.13-.34,3.14-.55h0c.69-.15,1.36-.31,2-.46l.49-.13a4.1,4.1,0,0,0,.5-.13l.44-.12.31-.09.26-.07h0l.13,0,.68-.2.3-.09.27-.09.24-.08.21-.06a1.29,1.29,0,0,1,.3-.1l.1,0,.09,0a5.39,5.39,0,0,0,1-.44h0c.17-.1.34-.2.51-.32s.35-.25.53-.39.54-.45.81-.7h0A16.45,16.45,0,0,0,97.31,43l.4-.46L98,42.2l.53-.67c.17-.22.36-.46.52-.69l.24-.33c.26-.36.52-.73.77-1.1l0,0c.13-.19.27-.38.39-.57l.26-.4a5.3,5.3,0,0,0,.34-.53c.16-.25.32-.49.47-.74h0l.09-.14.36-.6c.3-.5.59-1,.86-1.46l.39-.7.35-.63.38-.7.62-1.17a0,0,0,0,0,0,0,4.31,4.31,0,0,1,.22-.43l0-.09c.17-.34.32-.62.44-.87s.32-.66.41-.83l.06-.13s0,0,0,0S105.76,29.32,105.75,29.33ZM79.66,45.27c-3.83-.37-6.62-5.49-6.62-9a167.27,167.27,0,0,0-1.51-17.86c2.69,4.57,4,8.39,10.75,15.87a68.56,68.56,0,0,0,9.77,8.68C92,43,82.75,45.57,79.66,45.27Z"/><path class="cls-1" d="M174.19,2.24c-1.46-6.4-7.12,1.88-9.65,12.84C163,21.51,147.17,28.7,147.17,28.7l-5.82,3.46,3.78,11.33,11-1.48,0,0C157.11,42.59,187.69,61,174.19,2.24ZM171.4,39.61a5.85,5.85,0,0,1-4.93,2.22c-4.17,0-8.48-2.64-8.52-2.67s7.64-11,9.86-23.32a32.88,32.88,0,0,1,3.71-10.18C176.47,28.73,173.62,36.83,171.4,39.61Z"/><path class="cls-1" d="M105.77,29.32h0l-.12,0c-.06,0-.15,0-.27,0s-.41,0-.7,0h-.81a4.84,4.84,0,0,1-.52,0l-.48,0h-.12l-.26,0-.4-.06-.2,0-.53-.07-.36-.06h0c-.32-.05-.67-.12-1-.2h0l-.23,0c-.61-.14-1.28-.29-2-.49-.54-.15-1.11-.3-1.7-.49l-.91-.29-1-.35-2-.73-1.11-.44-1.16-.47c-.52-.24-1.06-.45-1.61-.71l-1-.45-1.1-.5-.66-.3-.44-.22-.22-.1-.44-.22-.78-.4-.29-.16-.72-.37-.69-.37c-.53-.3-1-.59-1.53-.89-.16-.09-.32-.18-.47-.28l-.36-.23c-.19-.11-.37-.23-.55-.35s-.57-.37-.84-.56-.53-.37-.78-.56-.51-.37-.73-.55-.57-.45-.84-.68-.51-.45-.75-.67-.48-.44-.69-.66-.42-.44-.62-.66a18.2,18.2,0,0,1-1.95-2.64c-.27-.44-.51-.88-.74-1.32s-.43-.88-.63-1.33a6.48,6.48,0,0,0-1.57-2.28s0,0,0,0a3.21,3.21,0,0,0-.34-.25,1.2,1.2,0,0,0-1.52,0c-.58.54-.77,1.83-.14,3.54,0,.13.09.27.13.41s.05.16.07.24.05.16.07.24.1.35.15.54c.18.75.37,1.64.54,2.63l.12.77c0,.26.09.53.13.8.08.48.15,1,.23,1.52s.17,1.3.25,2,.16,1.22.22,1.86c.07.47.12,1,.16,1.44,0,.15,0,.29,0,.44a1.81,1.81,0,0,1,0,.23c0,.23.06.45.08.68v.05s0,.05,0,.08c.07.59.12,1.19.17,1.78a.15.15,0,0,1,0,.07.15.15,0,0,1,0,.07c.11,1.19.2,2.34.27,3.43,0,.56.08,1.11.1,1.63,0,.27,0,.53.05.78s0,.25,0,.37,0,.47,0,.7,0,.22,0,.33,0,.43,0,.63h0a3.58,3.58,0,0,1,0,.56c0,.19,0,.36,0,.52a13.68,13.68,0,0,0,.71,4.12q.12.34.27.72a1.57,1.57,0,0,1,.09.23l.09.24c.08.18.15.36.25.54s.1.21.16.32c.14.27.29.54.44.8l.1.18.45.7c.16.23.32.45.49.67l.09.11c.15.19.31.38.48.56a1.18,1.18,0,0,0,.15.18l.38.38.3.28a6.83,6.83,0,0,0,.73.6c.13.09.25.19.38.27l0,0,.23.15.11.06.41.24c.13.08.27.15.41.22s.49.22.72.3l.08,0,.3.09.4.11.16,0a2.84,2.84,0,0,0,.42.09l.34.05H79l.55,0q.6,0,1.23,0a5,5,0,0,0,.55,0c.2,0,.39,0,.58,0l.43,0,.43,0,.24,0a5,5,0,0,0,.54-.07h0l.13,0h.14l1.39-.22c.55-.1,1.1-.2,1.61-.32h0c.29-.05.55-.12.82-.17l.69-.17.47-.12.49-.13a4.1,4.1,0,0,0,.5-.13l.44-.12.31-.09.26-.08.13,0,.68-.2.3-.09.13-.05.14,0,.24-.08.21-.06a1.29,1.29,0,0,1,.3-.1l.1,0,.09,0a5.27,5.27,0,0,0,.54-.2l.5-.24h0c.17-.1.34-.2.51-.32s.35-.25.53-.39.54-.45.81-.7h0c.41-.39.81-.81,1.22-1.27l.4-.46L98,42.2l.53-.67c.17-.22.36-.46.52-.69s.36-.47.52-.72l.51-.74c.13-.19.27-.38.39-.57a3,3,0,0,0,.26-.4,5.3,5.3,0,0,0,.34-.53c.15-.25.32-.49.47-.74h0l.09-.14a6.34,6.34,0,0,0,.36-.6c.3-.5.59-1,.86-1.46l.39-.7.35-.63.38-.7c.24-.42.44-.8.62-1.17a0,0,0,0,0,0,0l.22-.43,0-.09c.17-.34.32-.62.44-.87s.34-.66.41-.83l.06-.13,0,0a0,0,0,0,0,0,0ZM79.66,45.27c-3.83-.37-6.62-5.49-6.62-9a167.27,167.27,0,0,0-1.51-17.86c2.69,4.57,4,8.39,10.75,15.87a68.56,68.56,0,0,0,9.77,8.68C92,43,82.75,45.57,79.66,45.27Z"/></g></g></svg>