<svg xmlns="http://www.w3.org/2000/svg" viewBox="0 0 523.96 136.72"><defs><style>.cls-1{fill:#16cab9;}</style></defs><title>Asset 155</title><g id="Layer_2" data-name="Layer 2"><g id="Layer_1-2" data-name="Layer 1"><path class="cls-1" d="M223,83.4a1.83,1.83,0,0,0-2.51.17,28.7,28.7,0,1,1,0-39.65,1.87,1.87,0,0,0,2.57.17l11.29-9.52a1.85,1.85,0,0,0,.19-2.65,47.17,47.17,0,1,0,0,63.69,1.85,1.85,0,0,0-.19-2.65Z"/><rect class="cls-1" x="250.53" y="16.35" width="18.18" height="94.83" rx="1.85" ry="1.85"/><path class="cls-1" d="M326.52,111.72l-17,6.42L308,114.28,282.75,47.33a1.85,1.85,0,0,1,1.73-2.51h15.45a1.85,1.85,0,0,1,1.73,1.2l4.68,12.38,11.48,30.34.5,1.34Z"/><path class="cls-1" d="M350.43,44.82a1.85,1.85,0,0,1,1.74,2.49L345,67.13l-.2.56-18.49,51a38.47,38.47,0,0,1-4.84,8l-.07.09a26.17,26.17,0,0,1-9.42,7.57s-.06.06-.07,0a24.21,24.21,0,0,1-3.73,1.41,24.91,24.91,0,0,1-6.75.91,34.45,34.45,0,0,1-14.25-3.63,1.85,1.85,0,0,1-.88-2.43l5.94-13.22a1.84,1.84,0,0,1,2.47-.92c2.32,1.09,6.15,2.48,8.65,1.76a8.82,8.82,0,0,0,4.69-4s0,0,0,0a23,23,0,0,0,1.56-2.8l7.53-20.81.7-1.93L326,66.24l0-.09L333.29,46A1.85,1.85,0,0,1,335,44.82Z"/><rect class="cls-1" x="413.81" y="16.35" width="18.18" height="94.83" rx="1.85" ry="1.85"/><path class="cls-1" d="M413.8,47a35.31,35.31,0,1,0,15.64,29.33A35.08,35.08,0,0,0,413.8,47ZM394.11,93.5a17.16,17.16,0,1,1,17.15-17.15A17.17,17.17,0,0,1,394.11,93.5Z"/><path class="cls-1" d="M483.53,36.08a38.31,38.31,0,0,0,2.11,76.56,38.18,38.18,0,0,0,27.77-11.95,1.85,1.85,0,0,0-.17-2.66l-11-9.43a1.83,1.83,0,0,0-2.47.07,20.14,20.14,0,0,1-33.9-18.14,19.45,19.45,0,0,1,2.9-7.19,20.16,20.16,0,0,1,37,11,19.69,19.69,0,0,1-1.33,7.17H521.7A1.83,1.83,0,0,0,523.53,80a37.4,37.4,0,0,0,.43-5.63A38.35,38.35,0,0,0,483.53,36.08Z"/><rect class="cls-1" x="455.72" y="63.34" width="57.69" height="18.18"/><path class="cls-1" d="M90.63,55.22"/><path class="cls-1" d="M119.43,23.1c-2,11.18-8.49,28.75-28.79,32.12L88.17,34.87a1.5,1.5,0,0,0-2.8-.55C83,38.54,79,44.48,73.83,46.24c-1.31-3.64-2.51-8.85-4.66-13.88v0a28.35,28.35,0,0,0-6.93-10.25c-6.53-5.81-17.31-8-36.39.17h0a82.26,82.26,0,0,0-7,13.79h0c-4.94,12.44-8.8,30.83,3,44.66A29.46,29.46,0,0,1,21,73a24.7,24.7,0,0,1,3.34-12.07c-3.44,7.24-2.74,15.36.59,22.93l0,0c6.36,14.57,25.44,27.2,45.4,27.2a43.81,43.81,0,0,0,21.34-5.42s7.68,3.39,14.54-15.51c0,0-1.69-9.59-3-11.31,0,0,20-32.78,19.16-55.51A1.5,1.5,0,0,0,119.43,23.1ZM65,72.39c-1.85.16-6.57.44-9.44-.62A36.38,36.38,0,0,1,49.81,69a.29.29,0,0,1,.14-.54c3.39-.24,5.42-3.32,7.68-2.65s1.28,4.59,7.34,6.31A.14.14,0,0,1,65,72.39ZM86.34,38.32,88.22,55.2a19,19,0,0,1-8-2.16C83.12,49,85.67,44.47,86.34,38.32Zm.57,56.89c-2.62,1.2-12.56-.32-11.58-1.32C81.8,87.33,94.6,91.68,86.91,95.21Zm9.54-24.73s13.81-11.07,23.83-40.23c0,0-.53,6.94-5.16,19.26-3.45,9.15-9.71,22.24-13.95,27.53C101.17,77,96,75.5,96.45,70.48Z"/><path class="cls-1" d="M30.35,22.57h0l-.1,0-.17,0a7.49,7.49,0,0,1-1.16,0c-.25,0-.54,0-.86-.05l-.36,0-.31,0-.68-.1-.35-.06-.48-.1h0l-.18,0c-.47-.1-1-.22-1.54-.37l-1.31-.38c-.66-.2-1.38-.44-2.15-.73l-.34-.12c-.45-.16-.92-.34-1.4-.54s-1-.4-1.5-.63l-.64-.27c-.75-.33-1.46-.66-2.12-1q-.25-.14-.51-.24l-.59-.3c-.39-.19-.77-.39-1.13-.59l-.53-.28c-.54-.31-1.06-.6-1.54-.9C9.63,15.45,9,15,8.4,14.58l-.29-.21c-.33-.24-.63-.49-.91-.73s-.4-.34-.58-.52-.36-.34-.53-.51-.33-.34-.48-.51A15.23,15.23,0,0,1,3.05,8C2.21,6.18,1.19,5.64.57,6a.66.66,0,0,0-.17.12C0,6.53-.18,7.52.3,8.83l0,.08a7.48,7.48,0,0,1,.23.81l.06.21c.14.58.28,1.27.41,2,.07.39.13.79.2,1.2,0,.21.06.43.1.65.09.65.18,1.34.27,2,.07.46.12.94.17,1.43s.11,1,.16,1.45h0c0,.24.05.48.07.73.08.72.14,1.45.21,2.15,0,.47.08.93.11,1.38s.05.63.07.94,0,.66.06,1l0,.56v.07c0,.37,0,.71,0,1a4.18,4.18,0,0,1,0,.49h0a3.16,3.16,0,0,1,0,.43v.4A9.91,9.91,0,0,0,3.1,31l0,.1c0,.08.05.16.08.24l.12.31c.05.12.09.24.14.37s.16.35.25.53l.06.12c.12.23.24.45.37.66s.26.43.41.64a6.68,6.68,0,0,0,.44.6,6.57,6.57,0,0,0,.48.57c.17.18.35.35.53.51a2.84,2.84,0,0,0,.27.24l.28.22.3.21a3.09,3.09,0,0,0,.3.19l.31.19.32.16.28.13.28.11c.19.06.38.13.58.18h0l.45.1.26,0h.1l.42,0c.31,0,.62,0,.94,0h.22a.74.74,0,0,0,.21,0l.39,0c.13,0,.26,0,.39,0h.13l.29,0h.09l.41-.05h0l.21,0,.73-.11L15,37l.41-.08.44-.09.37-.08.4-.09.39-.09.74-.19.39-.11.33-.09.44-.12.06,0h0c.2-.07.36-.1.51-.15l.13,0,.22-.07.1,0,.3-.1h.05a1.05,1.05,0,0,1,.23-.08l.08,0,.06,0,.25-.09.17-.07a1.52,1.52,0,0,0,.26-.12l.13-.06.41-.26c.23-.16.47-.34.72-.55a4.2,4.2,0,0,0,.31-.29,14.91,14.91,0,0,0,1.16-1.21l.43-.51c.31-.37.59-.76.88-1.15l.21-.31q.2-.27.39-.57c.27-.37.53-.76.76-1.15.12-.19.25-.38.36-.58a.34.34,0,0,0,.05-.08c.11-.16.2-.33.3-.49.23-.38.45-.76.66-1.12l.6-1.07.27-.5c.18-.32.33-.62.48-.9l.2-.4c.13-.26.25-.48.34-.67.21-.39.32-.65.36-.74l0,0h0ZM10.25,34.85c-3-.28-5.09-4.22-5.09-6.94A129.1,129.1,0,0,0,4,14.16c2.07,3.51,3.08,6.46,8.28,12.21a52.58,52.58,0,0,0,7.52,6.69C19.74,33.08,12.63,35.09,10.25,34.85Z"/><path class="cls-1" d="M83,1.72c-1.12-4.93-5.48,1.45-7.43,9.89-1.15,4.95-13.37,10.48-13.37,10.48l-4.48,2.67,2.91,8.72,8.5-1.14v0C69.89,32.78,93.43,47,83,1.72ZM80.89,30.5a4.52,4.52,0,0,1-3.8,1.7,14.72,14.72,0,0,1-6.56-2.05s5.88-8.48,7.59-18A25.08,25.08,0,0,1,81,4.36C84.79,22.12,82.59,28.35,80.89,30.5Z"/><path class="cls-1" d="M30.36,22.57h-.05l-.06,0h0l-.17,0a7.49,7.49,0,0,1-1.16,0h-.4l-.46,0-.36,0-.31,0-.68-.1h0l-.32-.06-.48-.1h0l-.18,0c-.47-.1-1-.22-1.54-.37l-1.31-.38c-.45-.14-.94-.3-1.44-.48l-.71-.25-.34-.12-1.4-.54q-.72-.28-1.5-.63l-.63-.28c-.75-.33-1.46-.66-2.13-1q-.25-.14-.51-.24l-.59-.3-.57-.3-.56-.29-.53-.28c-.54-.31-1.06-.6-1.54-.9C9.63,15.45,9,15,8.4,14.58l-.29-.21-.26-.21-.65-.52-.58-.52c-.19-.17-.36-.34-.53-.51s-.33-.34-.48-.51A15.23,15.23,0,0,1,3.05,8C2.21,6.18,1.19,5.64.57,6a.66.66,0,0,0-.17.12C0,6.53-.18,7.52.3,8.83l0,.08c.05.18.12.38.17.6l.06.21.06.21c.14.58.28,1.27.41,2,.07.39.13.79.2,1.2,0,.21.06.43.1.65s.05.35.08.53c.06.49.13,1,.19,1.51s.12.94.17,1.43.12,1,.16,1.45h0c0,.25.06.48.07.73.07.48.11,1,.15,1.43a.38.38,0,0,1,0,.11c0,.2,0,.41.05.61,0,.47.08.93.11,1.38s.05.63.07.94,0,.66.06,1l0,.56v.07c0,.37,0,.71,0,1a4.18,4.18,0,0,1,0,.49h0a3.16,3.16,0,0,1,0,.43c0,.14,0,.27,0,.4a10.42,10.42,0,0,0,.55,3.17c0,.08.05.16.08.24l.12.31c.05.12.09.24.14.37s.16.35.25.53l.06.12c.12.23.24.45.37.66s.26.43.41.64a6.68,6.68,0,0,0,.44.6,6.57,6.57,0,0,0,.48.57c.17.18.35.35.53.51a2.84,2.84,0,0,0,.27.24l.28.22.3.21a3.09,3.09,0,0,0,.3.19l.31.19.32.16.28.13.28.11c.19.06.38.13.58.18h0l.45.1.26,0h.1l.42,0c.31,0,.62,0,.94,0h.22a.74.74,0,0,0,.21,0l.39,0c.13,0,.26,0,.39,0h.33l.09,0h.09l.41-.05h0l.21,0,.73-.11.34-.05L15,37l.41-.08.44-.09.37-.08.26-.05.14,0,.39-.09.74-.19.39-.11.33-.09.44-.13H19c.2-.07.36-.1.51-.15h0l.12,0,.22-.07.1,0a2.08,2.08,0,0,1,.3-.1h.05a1.05,1.05,0,0,1,.23-.08l.08,0,.06,0,.25-.09.17-.07a1.52,1.52,0,0,0,.26-.12l.13-.06h0l.39-.25.41-.29.31-.26a4.2,4.2,0,0,0,.31-.29,14.91,14.91,0,0,0,1.16-1.21l.3-.36c.15-.17.28-.34.42-.52l.4-.53c.13-.18.27-.36.4-.56s.26-.37.39-.57c.27-.37.53-.76.76-1.15.12-.19.25-.38.36-.58a.34.34,0,0,0,.05-.08c.11-.16.2-.33.3-.49.23-.38.45-.76.66-1.12l.6-1.07.27-.5c.18-.32.33-.62.48-.9l.2-.4c.13-.26.25-.48.34-.67.21-.39.32-.65.36-.74h0a0,0,0,0,0,0,0h0ZM10.25,34.85c-3-.28-5.09-4.22-5.09-6.94A129.1,129.1,0,0,0,4,14.16c2.07,3.51,3.08,6.46,8.28,12.21a52.58,52.58,0,0,0,7.52,6.69C19.74,33.08,12.63,35.09,10.25,34.85Z"/></g></g></svg>