<?xml version="1.0" encoding="UTF-8"?>
<svg width="120px" height="71px" viewBox="0 0 120 71" version="1.1" xmlns="http://www.w3.org/2000/svg" xmlns:xlink="http://www.w3.org/1999/xlink">
    <!-- Generator: Sketch 48.2 (47327) - http://www.bohemiancoding.com/sketch -->
    <title>Group 8</title>
    <desc>Created with Sketch.</desc>
    <defs></defs>
    <g id="home_page_v1" stroke="none" stroke-width="1" fill="none" fill-rule="evenodd" transform="translate(-242.000000, -2232.000000)">
        <g id="Group-8" transform="translate(242.000000, 2232.000000)">
            <path d="M0.5,70.6 C3.2,65.2 6.1,60 9.4,55 C11.1,52.5 12.8,50 14.7,47.6 C16.6,45.2 18.5,42.9 20.6,40.7 C24.7,36.2 29.2,32.1 34.1,28.3 C35.3,27.4 36.5,26.5 37.8,25.6 C39.1,24.8 40.3,23.8 41.6,23 C42.9,22.2 44.2,21.4 45.5,20.6 L49.5,18.3 L53.6,16.2 L57.7,14.3 C60.5,13.1 63.3,11.9 66.2,10.9 L68.3,10.1 L70.4,9.4 C71.8,8.9 73.3,8.5 74.7,8 L79.1,6.8 L83.5,5.8 C89.5,4.5 95.4,3.5 101.4,3 C107.4,2.4 113.4,2.1 119.4,2.2 C107.7,4.8 96.1,7.5 84.9,11 C79.3,12.8 73.8,14.7 68.3,16.9 C65.6,18 62.9,19.2 60.3,20.4 L56.3,22.3 L52.4,24.3 C42.2,29.8 32.6,36.4 24,44.4 C21.9,46.4 19.7,48.4 17.7,50.5 C15.6,52.6 13.7,54.8 11.7,57 C8,61.3 4.4,66 0.5,70.6 Z" id="Shape" fill="#D7F7F3" fill-rule="nonzero"></path>
            <path d="M46.3,15.5 C46.3,15.5 38.7,12.8 36,13.2 C30.8,14 17.7,23.2 17.7,23.2 L30.1,26.3 L46.3,15.5 Z" id="Shape" fill="#EF5B5B" fill-rule="nonzero"></path>
            <path d="M57.6,36 C57.6,36 55.7,43.9 54,45.9 C50.6,49.9 35.7,55.9 35.7,55.9 L39.7,43.8 L57.6,36 Z" id="Shape" fill="#EF5B5B" fill-rule="nonzero"></path>
            <path d="M44.2,40.8 C54.9,34.9 61.6,26.5 59.1,21.9 C56.6,17.3 45.9,18.4 35.1,24.3 C30.1,27 26,30.3 23.4,33.5 L30.2,45.9 C34.3,45.1 39.2,43.5 44.2,40.8 Z" id="Shape" fill="#FED766" fill-rule="nonzero"></path>
            <path d="M61.4,39.2 C80.1,29 91.6,14.3 87.2,6.5 C82.9,-1.4 64.3,0.5 45.7,10.6 C37.1,15.3 30,21 25.4,26.5 L37.1,47.9 C44.3,46.8 52.8,43.9 61.4,39.2 Z" id="Shape" fill="#16CCBB" fill-rule="nonzero"></path>
            <circle id="Oval" fill="#FFFFFF" fill-rule="nonzero" transform="translate(65.101460, 18.592740) rotate(-28.722942) translate(-65.101460, -18.592740) " cx="65.10146" cy="18.59274" r="8.50044777"></circle>
            <path d="M89,5.5 C86.8,1.5 81,7.4495965e-14 73.4,0.8 L84.6,21.2 C89.3,15.3 91.2,9.6 89,5.5 Z" id="Shape" fill="#EF5B5B" fill-rule="nonzero"></path>
            <g id="Group" transform="translate(35.000000, 36.000000)"></g>
        </g>
    </g>
</svg>