<?xml version="1.0" encoding="UTF-8"?>
<svg width="74px" height="70px" viewBox="0 0 74 70" version="1.1" xmlns="http://www.w3.org/2000/svg" xmlns:xlink="http://www.w3.org/1999/xlink">
    <!-- Generator: Sketch 48.2 (47327) - http://www.bohemiancoding.com/sketch -->
    <title>Group 10</title>
    <desc>Created with Sketch.</desc>
    <defs></defs>
    <g id="home_page_v1" stroke="none" stroke-width="1" fill="none" fill-rule="evenodd" transform="translate(-865.000000, -2223.000000)">
        <g id="Group-10" transform="translate(865.000000, 2223.000000)" fill-rule="nonzero">
            <path d="M35.6,6.4 C36.2,9.2 36.7,12 37.2,14.8 C37.2,17.6 37.3,20.4 37.3,23.2 L37.4,40 L37.5,56.8 L37.5,58.9 L37.5,60 C37.5,60.3 37.5,60.8 37.4,61.1 C37.3,61.9 37.3,62.6 37.2,63.3 C37.1,63.6 37.1,64.1 37,64.4 C36.9,64.7 36.9,65.2 36.7,65.5 C36.4,66.2 36,67 35.4,67.7 L35,68.2 C34.9,68.3 34.7,68.5 34.4,68.6 C34,68.9 33.5,69.1 33.1,69.2 C32.2,69.3 31.4,69.1 30.7,68.7 C30.4,68.5 30.1,68.2 29.9,67.9 C29.7,67.6 29.6,67.1 29.7,66.8 C29.8,67.5 30.4998443,68 31,68 C35,68 34.3,62.4 34.4,61.1 C34.4,60.8 34.4,60.5 34.4,60.1 L34.4,59.1 L34.4,57 L34.3,40 L34.2,23.2 C34.2,20.4 34.2,17.6 34.1,14.8 C34.5,12 34.9,9.2 35.6,6.4 Z" id="Shape" fill="#64DDC6"></path>
            <path d="M5.3,22.2 C2.8,26.3 1,31.1 0.3,36 L15.6,36 C15.7,33.5 16.1,31 16.6,28.7 C19.2,18.4 26,9.6 35.7,4.7 L35.7,4.5 C22.8,5 11.6,11.9 5.3,22.2 Z" id="Shape" fill="#EF5B5B"></path>
            <path d="M14.1264317,28.5894231 C13.4110132,31.0586538 13.1044053,33.5278846 12.9,36.1 L28.639207,36.1 L36.1,36.1 L36.1,4 C25.0621145,8.93846154 17.0903084,17.9923077 14.1264317,28.5894231 Z" id="Shape" fill="#D7F7F3"></path>
            <path d="M70.7,27.3 C69.7,25 68.5,22.8 67.1,20.8 C60.5,11.1 49.3,4.7 36.7,4.7 C36.5,4.7 36.3,4.7 36.1,4.7 C38.5,5.5 40.8,6.5 43.1,7.8 C51.9,12.9 57.8,21.1 60.2,30.1 C60.8,32.1 61.1,34.1 61.3,36.2 L64.4,36.2 L73.2,36.2 C72.7,33 71.9,30.1 70.7,27.3 Z" id="Shape" fill="#FED766"></path>
            <path d="M60.2,30.1 C57.8,21 51.9,12.9 43.1,7.8 C40.9,6.5 38.5,5.5 36.1,4.7 C36,4.8 35.8,4.8 35.8,4.9 L35.8,36.2 L37.6,36.2 L61.3,36.2 C61.1,34 60.7,32 60.2,30.1 Z" id="Shape" fill="#16CCBB"></path>
            <path d="M36.1,0 C35.4,1.9 34.7,3.7 34,5.6 C35.4,5.6 36.8,5.6 38.2,5.6 C37.5,3.7 36.8,1.9 36.1,0 Z" id="Shape" fill="#24E2C2"></path>
        </g>
    </g>
</svg>