<?xml version="1.0" encoding="UTF-8"?>
<svg width="76px" height="75px" viewBox="0 0 76 75" version="1.1" xmlns="http://www.w3.org/2000/svg" xmlns:xlink="http://www.w3.org/1999/xlink">
    <!-- Generator: Sketch 48.2 (47327) - http://www.bohemiancoding.com/sketch -->
    <title>Group 9</title>
    <desc>Created with Sketch.</desc>
    <defs></defs>
    <g id="home_page_v1" stroke="none" stroke-width="1" fill="none" fill-rule="evenodd" transform="translate(-252.000000, -2415.000000)">
        <g id="Group-9" transform="translate(252.000000, 2415.000000)" fill-rule="nonzero">
            <polygon id="Shape" fill="#F15A57" points="34.1 74.1 1.9 41.9 43.7 0.1 60.9 0.4 75.3 14.4 75.9 32.4"></polygon>
            <polygon id="Shape" fill="#16CCBB" points="75.3 14.4 60.9 0.4 43.7 0.1 10.7 33.1 42.9 65.3 75.9 32.4"></polygon>
            <circle id="Oval" stroke="#24E2C2" stroke-width="2.7102" fill="#FFFFFF" cx="58.9" cy="16.3" r="5.5"></circle>
            <path d="M1.7,15.6 C1.7,15.6 15.7,6.6 29.7,6.2 C44.2,5.7 53.5,11 58.3,15.8 C59.3,16.8 59.1,17.9 58.8,18.2 C57.7,19.1 55.5,17.4 55.5,17.4 C55.5,17.4 47.7,9.6 30.8,9.2 C19.3,8.9 3.4,18.2 3.4,18.2 C3.4,18.2 1.5,19 0.9,17.7 C0.4,16.7 1.7,15.6 1.7,15.6 Z" id="Shape" fill="#FED766"></path>
            <path d="M39.7,36 C36.8,43.3 37.1,54.1 46.7,60.9 C55.2,66.8 65.6,62.6 69.5,58.3 C78.6,47.9 73.2,35.2 73.2,35.2 L70.7,37.2 C70.7,37.2 75.2,48.6 67.1,57.1 C63.5,60.9 54.3,63.2 48.3,58.9 C36.9,50.8 41.6,38.9 42.4,36.8 C42.8,35.7 42.1,34.8 42.1,34.8 C42.1,34.8 40.4,34.3 39.7,36 Z" id="Shape" fill="#FED766"></path>
        </g>
    </g>
</svg>