<?xml version="1.0" encoding="UTF-8"?>
<svg width="68px" height="71px" viewBox="0 0 68 71" version="1.1" xmlns="http://www.w3.org/2000/svg" xmlns:xlink="http://www.w3.org/1999/xlink">
    <!-- Generator: Sketch 48.2 (47327) - http://www.bohemiancoding.com/sketch -->
    <title>Group 11</title>
    <desc>Created with Sketch.</desc>
    <defs></defs>
    <g id="home_page_v1" stroke="none" stroke-width="1" fill="none" fill-rule="evenodd" transform="translate(-864.000000, -2415.000000)">
        <g id="Group-11" transform="translate(864.000000, 2415.000000)" fill-rule="nonzero">
            <path d="M18.2,70.1 L5.4,70.1 C2.9,70.1 0.8,68 0.8,65.5 L0.8,45 C0.8,42.5 2.9,40.4 5.4,40.4 L18.1,40.4 C20.6,40.4 22.7,42.5 22.7,45 L22.7,65.5 C22.7,68 20.7,70.1 18.2,70.1 Z" id="Shape" fill="#F15A57"></path>
            <path d="M61.6,69.3 L48.9,69.3 C46.4,69.3 44.3,67.2 44.3,64.7 L44.3,4.7 C44.3,2.2 46.4,0.1 48.9,0.1 L61.6,0.1 C64.1,0.1 66.2,2.2 66.2,4.7 L66.2,64.8 C66.2,67.3 64.1,69.3 61.6,69.3 Z" id="Shape" fill="#16CCBB"></path>
            <path d="M39.8,70.1 L27.1,70.1 C24.6,70.1 22.5,68 22.5,65.5 L22.5,22.9 C22.5,20.4 24.6,18.3 27.1,18.3 L39.8,18.3 C42.3,18.3 44.4,20.4 44.4,22.9 L44.4,65.5 C44.3,68 42.3,70.1 39.8,70.1 Z" id="Shape" fill="#FFBA49"></path>
            <path d="M64.8,70.1 L2.4,70.1 C1.1,70.1 0.1,69.1 0.1,67.8 L0.1,67 C0.1,65.7 1.1,64.7 2.4,64.7 L64.8,64.7 C66.1,64.7 67.1,65.7 67.1,67 L67.1,67.8 C67.1,69.1 66,70.1 64.8,70.1 Z" id="Shape" fill="#26C1DB"></path>
        </g>
    </g>
</svg>